<svg version="1.1" id="Layer_1" xmlns="http://www.w3.org/2000/svg" xmlns:xlink="http://www.w3.org/1999/xlink" x="0px" y="0px"
	 width="100%" viewBox="0 0 312 86" enable-background="new 0 0 312 86" xml:space="preserve">
<path fill="#000000" opacity="1.000000" stroke="none" 
	d="
M1.000000,57.000000 
	C1.000000,38.365036 1.000000,19.730070 1.000000,1.000000 
	C68.020866,1.000000 135.041779,1.000000 202.821701,1.336436 
	C201.689224,2.438175 199.586929,2.908638 197.973221,4.062461 
	C196.692017,4.978527 196.008850,6.730999 195.060150,8.112114 
	C196.569977,8.660425 198.178802,9.844655 199.569519,9.628104 
	C202.717209,9.137973 205.720901,7.395717 208.850006,7.192571 
	C213.205750,6.909791 214.640686,5.029273 214.000000,1.000000 
	C246.884079,1.000000 279.768158,1.000000 313.000000,1.000000 
	C313.000000,9.351006 313.000000,17.706837 312.701294,26.819752 
	C303.179169,16.071383 294.050171,12.613920 282.211761,17.110081 
	C273.021484,20.600504 267.530334,27.783037 265.288635,38.588772 
	C264.224579,18.444687 249.127319,11.036350 233.405975,18.570232 
	C233.144348,18.206116 233.031067,18.066803 232.945679,17.493200 
	C228.861557,16.756779 224.751831,16.370531 220.634628,16.257921 
	C220.114182,16.243685 219.240677,17.600170 219.066711,18.433481 
	C218.273743,22.231743 217.674881,26.070442 217.001541,29.893778 
	C213.837585,47.859592 210.672089,65.825134 207.470352,83.999512 
	C211.108047,83.999512 214.792267,84.252724 218.407349,83.863609 
	C219.690781,83.725471 221.612427,82.195892 221.863983,81.009239 
	C223.242661,74.505432 224.192993,67.910820 225.340332,61.049194 
	C235.751190,72.338951 259.034729,69.061897 264.665497,44.391285 
	C264.977570,46.637749 265.062439,48.944317 265.637970,51.121170 
	C270.678894,70.188026 293.878296,70.128052 305.227600,62.104958 
	C306.157593,61.447529 306.807434,59.092342 306.363464,58.044800 
	C305.187134,55.269215 303.339264,52.778233 301.711761,50.096851 
	C296.078491,54.352161 289.972076,56.890884 283.309631,53.556675 
	C281.111755,52.456741 279.962067,49.262253 277.586273,46.000000 
	C290.690979,46.000000 301.845490,46.000000 313.000000,46.000000 
	C313.000000,59.638138 313.000000,73.276276 313.000000,87.000000 
	C256.979126,87.000000 200.958221,87.000000 144.476685,86.627457 
	C145.181442,85.416138 146.285461,83.981491 147.524094,83.853920 
	C150.818710,83.514587 154.171341,83.738625 157.695053,83.738625 
	C157.695053,81.382599 157.695053,79.476517 157.695053,76.558167 
	C155.150681,77.366371 153.169754,77.995605 151.240540,78.608406 
	C151.024338,77.501236 150.717880,75.931740 150.411407,74.362244 
	C150.075546,74.409081 149.739685,74.455925 149.403809,74.502762 
	C149.155563,75.746902 148.907333,76.991051 148.710098,77.979500 
	C146.580154,77.644859 144.607559,77.334938 142.000000,76.925262 
	C142.000000,80.762276 142.000000,83.881142 142.000000,87.000000 
	C118.312439,87.000000 94.624878,87.000000 70.454163,86.611710 
	C70.360168,84.450684 70.749336,82.677940 71.221626,80.526573 
	C72.023773,81.952766 72.502525,82.803986 73.189613,84.025597 
	C73.876740,82.050995 74.349220,80.693222 75.060188,78.650108 
	C75.857277,80.918907 76.339020,82.290100 77.059662,84.341293 
	C77.851418,82.086388 78.334518,80.710518 79.256554,78.084587 
	C79.863922,80.854584 80.165520,82.230057 80.483147,83.678658 
	C82.974792,83.678658 85.209114,83.678658 89.297867,83.678658 
	C87.559242,80.820862 86.679230,77.610001 85.225929,77.325272 
	C81.288528,76.553856 77.100304,76.877914 73.027702,77.085106 
	C71.667763,77.154289 70.356712,78.184357 69.023308,78.775177 
	C69.079002,78.546471 69.134705,78.317772 69.190399,78.089066 
	C63.661232,78.089066 58.132065,78.089066 52.000000,78.089066 
	C52.000000,80.772362 52.000000,83.886185 52.000000,87.000000 
	C44.645748,87.000000 37.291496,87.000000 29.504272,86.641945 
	C29.833834,84.469406 30.596369,82.654915 31.369991,80.814049 
	C34.492535,86.635178 39.931877,82.512711 44.105774,83.654045 
	C45.253944,83.968010 47.527542,80.166290 50.168606,77.290741 
	C46.858253,77.290741 45.276722,77.290741 43.638126,77.290741 
	C43.110260,79.079910 42.631638,80.702179 42.153015,82.324440 
	C41.901531,82.298378 41.650043,82.272324 41.398556,82.246262 
	C41.101669,80.628288 40.804783,79.010307 40.560768,77.680473 
	C36.540920,79.503113 31.555525,73.658142 29.048168,79.902901 
	C28.101374,78.812332 27.467319,78.082001 27.000000,77.543716 
	C27.000000,80.772118 27.000000,83.886055 27.000000,87.000000 
	C18.409912,87.000000 9.819825,87.000000 1.000000,87.000000 
	C1.000000,79.313980 1.000000,71.625687 1.388028,63.471245 
	C2.203028,63.198177 2.623885,63.406353 3.057863,63.582130 
	C14.338152,68.151016 25.663860,69.408432 36.512764,62.720764 
	C42.251247,59.183346 43.758472,53.171524 42.921665,46.808960 
	C42.221340,41.484123 37.850834,39.042492 33.462154,37.279434 
	C30.373976,36.038818 26.801224,36.027157 23.669132,34.863201 
	C22.177517,34.308887 20.929117,32.481918 20.189163,30.935444 
	C19.991472,30.522284 21.898073,28.580599 23.135618,28.090229 
	C29.398478,25.608610 35.014492,28.080462 41.012222,30.868330 
	C42.779354,27.290060 44.600594,23.602232 46.387787,19.983347 
	C39.555275,15.491744 32.350105,16.014923 25.191570,15.957729 
	C18.509768,15.904346 12.964368,18.358398 9.079484,23.586201 
	C4.385130,29.903290 3.826679,42.394375 15.110473,45.054203 
	C18.672604,45.893871 22.269381,46.763313 25.651007,48.116989 
	C27.326872,48.787849 28.550785,50.587730 29.979172,51.876812 
	C28.133472,52.917747 26.223269,54.939491 24.453682,54.823109 
	C18.128054,54.407089 11.850126,53.265808 5.157766,52.344322 
	C4.364022,53.233120 2.682011,55.116562 1.000000,57.000000 
M52.454906,21.070276 
	C52.358547,21.372198 52.262188,21.674120 52.019825,22.725599 
	C52.329865,23.850994 52.639908,24.976389 52.994328,26.828352 
	C53.051414,27.551483 53.108498,28.274614 53.019871,29.740221 
	C53.068901,30.492235 53.117931,31.244247 53.136200,32.586067 
	C53.479389,33.056992 53.822582,33.527916 54.021423,34.780090 
	C54.330696,36.220196 54.639969,37.660301 54.993652,39.876659 
	C55.051945,40.908657 55.110241,41.940651 55.046680,43.486275 
	C55.086433,43.657654 55.126183,43.829033 55.194252,44.655190 
	C55.518124,45.437355 55.841999,46.219524 56.023319,47.736362 
	C56.310989,48.838741 56.598660,49.941116 56.983448,51.832218 
	C57.044559,52.887463 57.105667,53.942703 57.032425,55.658859 
	C57.412613,56.439022 57.792797,57.219189 58.032433,58.721180 
	C58.670834,60.182320 59.309235,61.643456 60.269432,63.777626 
	C67.171165,68.282616 72.731979,66.820076 74.648674,60.016151 
	C75.253647,59.247654 75.858620,58.479153 76.933090,57.177807 
	C77.659790,55.467060 78.386490,53.756310 79.724770,51.752518 
	C80.185966,50.518734 80.647163,49.284954 81.739906,47.736679 
	C82.842972,45.193993 83.946037,42.651306 85.610558,39.880341 
	C86.021301,39.254669 86.432053,38.628998 86.980247,38.617146 
	C87.282806,39.094105 87.585373,39.571064 87.984528,40.785213 
	C88.045219,41.523834 88.105911,42.262451 88.025314,43.680458 
	C88.310806,44.466660 88.596298,45.252861 88.984985,46.829643 
	C89.045853,47.888306 89.106712,48.946968 89.036392,50.749756 
	C89.413132,52.167591 89.789879,53.585430 90.024803,55.717529 
	C90.405731,56.813457 90.786659,57.909386 91.025894,59.705357 
	C91.980423,61.151962 92.934952,62.598568 94.207367,64.717857 
	C97.626228,67.951981 101.128830,67.459152 104.774529,65.072838 
	C106.951210,63.648075 109.268234,62.421608 108.710365,59.011021 
	C109.509354,57.690556 110.308350,56.370094 111.741325,54.730820 
	C113.176498,51.522549 114.611671,48.314278 116.604393,44.874352 
	C117.015747,44.250309 117.427109,43.626263 118.035439,43.490303 
	C118.319916,43.674896 118.604393,43.859486 118.983742,44.781918 
	C119.044716,45.521114 119.105690,46.260307 119.023857,47.680119 
	C119.311714,48.468746 119.599564,49.257374 119.983261,50.834423 
	C120.044456,51.889240 120.105652,52.944061 120.032028,54.658676 
	C120.410172,55.438213 120.788315,56.217751 121.024376,57.742603 
	C121.331917,58.862675 121.639458,59.982746 122.143616,61.643261 
	C122.484375,62.095215 122.825127,62.547169 123.273613,63.738308 
	C129.645264,67.990463 135.504593,66.892815 137.681900,61.014305 
	C138.137268,60.379112 138.592636,59.743923 139.699448,58.776871 
	C141.099884,55.627277 142.500320,52.477680 144.435394,49.012611 
	C144.973251,47.711361 145.511124,46.410114 146.710663,44.765141 
	C147.439362,42.956253 148.168045,41.147366 149.315155,39.105686 
	C149.598831,38.737759 149.882507,38.369831 150.526535,38.016918 
	C150.526535,38.016918 150.886307,38.042385 150.985001,38.843006 
	C151.283798,40.574314 151.582596,42.305618 151.985245,44.884682 
	C152.046265,46.589565 152.107285,48.294453 152.290558,50.762630 
	C152.582565,52.508972 152.874573,54.255310 153.239319,56.708977 
	C153.786362,58.151550 154.333405,59.594124 154.997986,61.752411 
	C156.132401,63.094013 157.044220,64.759758 158.441193,65.718994 
	C163.480194,69.179092 170.636002,65.725655 171.335373,59.197395 
	C171.797119,59.030106 172.526566,58.993824 172.681839,58.676537 
	C177.747513,48.326187 182.953751,38.037041 187.686951,27.535027 
	C189.783615,22.882977 187.816803,19.577625 183.069672,18.622812 
	C178.656235,17.735109 177.524261,21.202223 175.981125,24.260511 
	C172.134201,31.884588 168.111877,39.420166 164.019913,46.144485 
	C163.957809,44.431248 163.895706,42.718010 163.738907,40.264294 
	C163.437393,38.843327 163.135880,37.422356 162.977310,35.255264 
	C162.596176,33.837070 162.215027,32.418880 161.977020,30.247278 
	C161.596191,28.831873 161.215363,27.416470 160.976852,25.231758 
	C160.691635,23.808226 160.406418,22.384693 160.004379,20.224939 
	C156.799484,15.849976 153.404297,14.441836 149.558502,17.428001 
	C146.676086,19.666128 145.137039,23.634338 142.410263,27.110916 
	C142.238297,27.723581 142.066330,28.336246 141.285431,29.240623 
	C140.578918,30.828760 139.872406,32.416897 138.870697,34.642643 
	C138.211929,36.078098 137.553146,37.513554 136.262833,39.263504 
	C135.158585,41.805729 134.054352,44.347954 132.468552,47.008942 
	C132.468552,47.008942 131.997345,47.163696 131.466705,46.937298 
	C131.255630,46.624069 131.044556,46.310841 130.975601,45.205196 
	C130.928711,44.136208 130.881821,43.067215 130.971191,41.337864 
	C130.592087,40.558201 130.212982,39.778538 129.976105,38.254612 
	C129.928635,37.501575 129.881149,36.748543 129.975769,35.312065 
	C129.688889,34.528091 129.402008,33.744118 129.013062,32.220383 
	C128.952347,31.478556 128.891647,30.736729 128.974045,29.301758 
	C128.352722,28.185675 127.731392,27.069592 127.015518,25.318794 
	C127.048370,24.893429 127.081223,24.468063 127.723450,23.745516 
	C127.426765,22.496471 127.130081,21.247425 126.965790,19.243769 
	C122.517166,13.821930 118.097099,14.815217 114.269783,22.251545 
	C113.790817,23.500303 113.311844,24.749062 112.232071,26.290661 
	C111.784729,27.513163 111.337395,28.735664 110.333672,30.177973 
	C110.204773,30.749685 110.075874,31.321400 109.303825,32.219440 
	C107.497948,36.131092 105.692062,40.042744 103.292603,44.229584 
	C102.581352,45.483471 101.870094,46.737362 101.022171,47.200191 
	C100.958862,46.134483 100.895554,45.068779 100.968681,43.342712 
	C100.590225,42.562241 100.211761,41.781769 99.976997,40.208740 
	C99.929085,39.139095 99.881172,38.069447 99.971382,36.293507 
	C99.592117,35.196060 99.212852,34.098614 98.976524,32.218403 
	C98.667717,30.775707 98.358910,29.333012 98.006653,27.165018 
	C97.948547,26.443254 97.890442,25.721489 97.973946,24.321671 
	C97.689209,23.535526 97.404465,22.749380 97.005478,21.248381 
	C96.016876,20.125826 95.028275,19.003271 93.677597,17.234211 
	C88.295418,15.016927 85.158257,16.087904 82.327003,21.213236 
	C81.551544,23.085943 80.776077,24.958651 79.506142,27.025623 
	C79.321953,27.313555 79.137772,27.601486 78.308327,28.213678 
	C76.834442,31.462210 75.360558,34.710743 73.271790,38.247150 
	C72.810768,39.484264 72.349747,40.721378 71.274879,42.246689 
	C70.814056,43.481895 70.353226,44.717102 69.297035,46.219467 
	C68.585999,46.812744 67.874962,47.406021 67.029564,47.357841 
	C67.297523,46.572033 67.565483,45.786224 67.974510,44.319923 
	C67.688515,43.532417 67.402519,42.744915 67.015411,41.218525 
	C66.954247,40.477562 66.893089,39.736603 66.974060,38.260086 
	C66.687584,37.158154 66.401108,36.056221 66.014267,34.216270 
	C65.953560,33.476295 65.892853,32.736324 65.974869,31.253014 
	C65.927185,30.500706 65.879501,29.748398 65.804619,28.340349 
	C65.480377,27.558313 65.156136,26.776279 64.974449,25.259102 
	C64.687859,24.158747 64.401268,23.058392 64.012993,21.277920 
	C63.712326,20.504725 63.411655,19.731527 62.804935,18.295078 
	C57.355728,14.670225 55.598579,15.139899 52.978928,20.977962 
	C52.978928,20.977962 52.949795,20.897816 52.454906,21.070276 
M95.573364,79.492661 
	C95.890732,80.882393 96.208099,82.272125 96.534096,83.699631 
	C99.041626,83.699631 101.264214,83.699631 103.833870,83.699631 
	C103.550423,81.381050 103.308182,79.399521 103.106194,77.747322 
	C100.517914,77.056915 98.351067,76.478928 95.972130,75.844360 
	C95.662216,76.872787 95.338264,77.947800 94.404015,78.587006 
	C92.833809,78.204994 91.263611,77.822990 89.693413,77.440987 
	C89.488838,79.437660 89.284271,81.434341 89.079697,83.431015 
	C89.524292,83.464325 89.968887,83.497643 90.413483,83.530952 
	C90.842880,82.147591 91.272278,80.764229 92.050552,78.256897 
	C92.828835,80.835381 93.244865,82.213715 93.660904,83.592049 
	C94.102104,83.552605 94.543312,83.513161 94.984512,83.473717 
	C94.984512,81.977242 94.984512,80.480759 95.573364,79.492661 
M208.470779,39.019962 
	C210.087753,30.085476 211.704727,21.150991 213.394440,11.814547 
	C206.591995,13.170177 200.909561,14.302606 195.182220,15.443983 
	C194.589951,18.682522 193.998672,21.915634 193.325623,25.595778 
	C194.776901,25.400204 195.762436,25.267393 197.235367,25.068899 
	C194.754623,38.770020 192.324692,52.190506 189.859573,65.805374 
	C194.821228,65.805374 199.262527,65.805374 203.834183,65.805374 
	C205.252518,57.022648 206.643707,48.408092 208.470779,39.019962 
M129.799911,80.036163 
	C129.971252,81.166046 130.142593,82.295929 130.306778,83.378746 
	C131.934006,83.593353 133.429092,84.099274 134.810608,83.882240 
	C136.084213,83.682144 137.649246,82.978455 138.306534,81.982315 
	C138.806122,81.225204 138.497360,79.195068 137.799072,78.574913 
	C136.931763,77.804657 135.302429,77.739044 133.984619,77.659027 
	C130.433624,77.443451 126.873375,77.305435 123.316612,77.301270 
	C122.102043,77.299850 120.279953,77.405746 119.815689,78.142929 
	C119.135979,79.222214 118.889404,81.212196 119.466537,82.257202 
	C119.993881,83.212036 121.832741,83.762413 123.146301,83.874710 
	C124.506714,83.991005 125.930473,83.366150 127.467484,83.035103 
	C127.981453,82.068970 128.664368,80.785255 129.799911,80.036163 
M163.847717,77.424515 
	C161.189804,76.621094 159.209778,76.977295 159.028748,80.299858 
	C158.852325,83.537468 160.799942,84.156250 163.498611,83.963524 
	C164.939819,83.860603 166.501526,84.294060 167.814590,83.875702 
	C169.091675,83.468811 170.902710,82.407120 171.060684,81.408531 
	C171.258102,80.160667 170.345154,78.016708 169.290619,77.480263 
	C168.072525,76.860619 166.178146,77.570457 163.847717,77.424515 
M18.045656,75.813095 
	C17.969971,77.204399 17.894283,78.595703 17.782158,80.656876 
	C16.659016,78.326324 15.850506,76.648643 14.394564,73.627518 
	C12.759135,77.752586 11.628051,80.605537 10.565231,83.286301 
	C12.720285,83.286301 14.510878,83.385086 16.284073,83.252014 
	C17.491388,83.161415 18.674358,82.746338 19.868214,82.476349 
	C18.916449,80.099899 22.247639,76.763435 18.045656,75.813095 
M113.327934,79.514519 
	C113.827255,80.876282 114.326576,82.238045 115.129730,84.428444 
	C116.569000,77.522148 115.872482,76.698326 110.554192,77.679062 
	C110.554192,79.634056 110.554192,81.559807 110.554192,83.485558 
	C110.825958,83.498863 111.097733,83.512177 111.369499,83.525482 
	C111.788528,82.193420 112.207550,80.861359 113.327934,79.514519 
z"/>
<path fill="#FFFFFF" opacity="1.000000" stroke="none" 
	d="
M313.000000,45.531731 
	C301.845490,46.000000 290.690979,46.000000 277.586273,46.000000 
	C279.962067,49.262253 281.111755,52.456741 283.309631,53.556675 
	C289.972076,56.890884 296.078491,54.352161 301.711761,50.096851 
	C303.339264,52.778233 305.187134,55.269215 306.363464,58.044800 
	C306.807434,59.092342 306.157593,61.447529 305.227600,62.104958 
	C293.878296,70.128052 270.678894,70.188026 265.637970,51.121170 
	C265.062439,48.944317 264.977570,46.637749 264.665497,44.391285 
	C259.034729,69.061897 235.751190,72.338951 225.340332,61.049194 
	C224.192993,67.910820 223.242661,74.505432 221.863983,81.009239 
	C221.612427,82.195892 219.690781,83.725471 218.407349,83.863609 
	C214.792267,84.252724 211.108047,83.999512 207.470352,83.999512 
	C210.672089,65.825134 213.837585,47.859592 217.001541,29.893778 
	C217.674881,26.070442 218.273743,22.231743 219.066711,18.433481 
	C219.240677,17.600170 220.114182,16.243685 220.634628,16.257921 
	C224.751831,16.370531 228.861557,16.756779 232.665283,17.589821 
	C232.316559,18.660383 232.276108,19.200033 232.235657,19.739681 
	C232.675217,19.424799 233.114761,19.109917 233.554321,18.795036 
	C249.127319,11.036350 264.224579,18.444687 265.288635,38.588772 
	C267.530334,27.783037 273.021484,20.600504 282.211761,17.110081 
	C294.050171,12.613920 303.179169,16.071383 312.701294,27.288418 
	C313.000000,33.021152 313.000000,39.042305 313.000000,45.531731 
M229.242081,38.233047 
	C229.161377,40.213299 229.174774,42.202805 228.981140,44.171947 
	C228.527969,48.780056 230.174194,52.250214 234.612015,53.813572 
	C239.056488,55.379272 245.578064,53.706944 247.354156,49.928970 
	C249.214066,45.972691 250.570709,41.458031 250.709198,37.141304 
	C250.785828,34.752792 248.473648,31.401655 246.272659,29.990740 
	C239.431091,25.604998 232.212692,29.218555 229.242081,38.233047 
M287.605225,36.000000 
	C291.914825,36.000000 296.224396,36.000000 300.568359,36.000000 
	C298.971375,29.599827 296.161743,26.993515 290.982605,27.000120 
	C285.852997,27.006659 281.858307,30.245138 280.186432,36.000000 
	C282.402100,36.000000 284.527252,36.000000 287.605225,36.000000 
z"/>
<path fill="#FFFFFF" opacity="1.000000" stroke="none" 
	d="
M1.000000,57.428463 
	C2.682011,55.116562 4.364022,53.233120 5.157766,52.344322 
	C11.850126,53.265808 18.128054,54.407089 24.453682,54.823109 
	C26.223269,54.939491 28.133472,52.917747 29.979172,51.876812 
	C28.550785,50.587730 27.326872,48.787849 25.651007,48.116989 
	C22.269381,46.763313 18.672604,45.893871 15.110473,45.054203 
	C3.826679,42.394375 4.385130,29.903290 9.079484,23.586201 
	C12.964368,18.358398 18.509768,15.904346 25.191570,15.957729 
	C32.350105,16.014923 39.555275,15.491744 46.387787,19.983347 
	C44.600594,23.602232 42.779354,27.290060 41.012222,30.868330 
	C35.014492,28.080462 29.398478,25.608610 23.135618,28.090229 
	C21.898073,28.580599 19.991472,30.522284 20.189163,30.935444 
	C20.929117,32.481918 22.177517,34.308887 23.669132,34.863201 
	C26.801224,36.027157 30.373976,36.038818 33.462154,37.279434 
	C37.850834,39.042492 42.221340,41.484123 42.921665,46.808960 
	C43.758472,53.171524 42.251247,59.183346 36.512764,62.720764 
	C25.663860,69.408432 14.338152,68.151016 3.057863,63.582130 
	C2.623885,63.406353 2.203028,63.198177 1.388028,63.002548 
	C1.000000,61.285641 1.000000,59.571285 1.000000,57.428463 
z"/>
<path fill="#110836" opacity="1.000000" stroke="none" 
	d="
M52.333332,87.000000 
	C52.000000,83.886185 52.000000,80.772362 52.000000,78.089066 
	C58.132065,78.089066 63.661232,78.089066 69.190399,78.089066 
	C69.134705,78.317772 69.079002,78.546471 69.023308,78.775177 
	C70.356712,78.184357 71.667763,77.154289 73.027702,77.085106 
	C77.100304,76.877914 81.288528,76.553856 85.225929,77.325272 
	C86.679230,77.610001 87.559242,80.820862 89.297867,83.678658 
	C85.209114,83.678658 82.974792,83.678658 80.483147,83.678658 
	C80.165520,82.230057 79.863922,80.854584 79.256554,78.084587 
	C78.334518,80.710518 77.851418,82.086388 77.059662,84.341293 
	C76.339020,82.290100 75.857277,80.918907 75.060188,78.650108 
	C74.349220,80.693222 73.876740,82.050995 73.189613,84.025597 
	C72.502525,82.803986 72.023773,81.952766 71.221626,80.526573 
	C70.749336,82.677940 70.360168,84.450684 69.985504,86.611710 
	C69.250000,87.000000 68.500000,87.000000 67.409714,86.638092 
	C67.230118,84.530258 67.390808,82.784325 67.442429,82.223442 
	C64.718155,82.828568 62.687588,83.485184 60.612511,83.689323 
	C57.920738,83.954140 54.483639,82.417938 54.000000,87.000000 
	C53.555553,87.000000 53.111111,87.000000 52.333332,87.000000 
z"/>
<path fill="#110836" opacity="1.000000" stroke="none" 
	d="
M27.333332,87.000000 
	C27.000000,83.886055 27.000000,80.772118 27.000000,77.543716 
	C27.467319,78.082001 28.101374,78.812332 29.048168,79.902901 
	C31.555525,73.658142 36.540920,79.503113 40.560768,77.680473 
	C40.804783,79.010307 41.101669,80.628288 41.398556,82.246262 
	C41.650043,82.272324 41.901531,82.298378 42.153015,82.324440 
	C42.631638,80.702179 43.110260,79.079910 43.638126,77.290741 
	C45.276722,77.290741 46.858253,77.290741 50.168606,77.290741 
	C47.527542,80.166290 45.253944,83.968010 44.105774,83.654045 
	C39.931877,82.512711 34.492535,86.635178 31.369991,80.814049 
	C30.596369,82.654915 29.833834,84.469406 29.035648,86.641945 
	C28.555555,87.000000 28.111111,87.000000 27.333332,87.000000 
z"/>
<path fill="#FFA74E" opacity="1.000000" stroke="none" 
	d="
M213.541931,1.000000 
	C214.640686,5.029273 213.205750,6.909791 208.850006,7.192571 
	C205.720901,7.395717 202.717209,9.137973 199.569519,9.628104 
	C198.178802,9.844655 196.569977,8.660425 195.060150,8.112114 
	C196.008850,6.730999 196.692017,4.978527 197.973221,4.062461 
	C199.586929,2.908638 201.689224,2.438175 203.290359,1.336436 
	C206.361282,1.000000 209.722580,1.000000 213.541931,1.000000 
z"/>
<path fill="#110736" opacity="1.000000" stroke="none" 
	d="
M142.333328,87.000000 
	C142.000000,83.881142 142.000000,80.762276 142.000000,76.925262 
	C144.607559,77.334938 146.580154,77.644859 148.710098,77.979500 
	C148.907333,76.991051 149.155563,75.746902 149.403809,74.502762 
	C149.739685,74.455925 150.075546,74.409081 150.411407,74.362244 
	C150.717880,75.931740 151.024338,77.501236 151.240540,78.608406 
	C153.169754,77.995605 155.150681,77.366371 157.695053,76.558167 
	C157.695053,79.476517 157.695053,81.382599 157.695053,83.738625 
	C154.171341,83.738625 150.818710,83.514587 147.524094,83.853920 
	C146.285461,83.981491 145.181442,85.416138 144.008026,86.627457 
	C143.555557,87.000000 143.111099,87.000000 142.333328,87.000000 
z"/>
<path fill="#000000" opacity="1.000000" stroke="none" 
	d="
M54.463184,87.000000 
	C54.483639,82.417938 57.920738,83.954140 60.612511,83.689323 
	C62.687588,83.485184 64.718155,82.828568 67.442429,82.223442 
	C67.390808,82.784325 67.230118,84.530258 67.034714,86.638092 
	C62.975456,87.000000 58.950912,87.000000 54.463184,87.000000 
z"/>
<path fill="#FFFFFF" opacity="1.000000" stroke="none" 
	d="
M208.252838,39.406754 
	C206.643707,48.408092 205.252518,57.022648 203.834183,65.805374 
	C199.262527,65.805374 194.821228,65.805374 189.859573,65.805374 
	C192.324692,52.190506 194.754623,38.770020 197.235367,25.068899 
	C195.762436,25.267393 194.776901,25.400204 193.325623,25.595778 
	C193.998672,21.915634 194.589951,18.682522 195.182220,15.443983 
	C200.909561,14.302606 206.591995,13.170177 213.394440,11.814547 
	C211.704727,21.150991 210.087753,30.085476 208.252838,39.406754 
z"/>
<path fill="#FFA74E" opacity="1.000000" stroke="none" 
	d="
M164.159973,46.991268 
	C168.111877,39.420166 172.134201,31.884588 175.981125,24.260511 
	C177.524261,21.202223 178.656235,17.735109 183.069672,18.622812 
	C187.816803,19.577625 189.783615,22.882977 187.686951,27.535027 
	C182.953751,38.037041 177.747513,48.326187 172.681839,58.676537 
	C172.526566,58.993824 171.797119,59.030106 170.815002,59.573784 
	C168.907928,59.279263 167.521225,58.608349 166.081360,57.584549 
	C165.390121,55.806419 164.752014,54.381172 164.067108,52.538063 
	C163.984207,50.445377 163.948105,48.770554 163.990723,47.109299 
	C164.069427,47.122868 164.159973,46.991268 164.159973,46.991268 
z"/>
<path fill="#FE9D52" opacity="1.000000" stroke="none" 
	d="
M103.886177,43.954395 
	C105.692062,40.042744 107.497948,36.131092 109.769669,32.387226 
	C112.172630,36.738678 114.109741,40.922340 116.046852,45.106007 
	C114.611671,48.314278 113.176498,51.522549 111.134750,54.696045 
	C108.314178,51.092312 106.100182,47.523354 103.886177,43.954395 
z"/>
<path fill="#FFC047" opacity="1.000000" stroke="none" 
	d="
M85.049103,40.108620 
	C83.946037,42.651306 82.842972,45.193993 81.108765,47.740067 
	C78.280640,44.482063 76.083649,41.220669 73.886673,37.959274 
	C75.360558,34.710743 76.834442,31.462210 78.771164,28.379688 
	C81.172363,32.400005 83.110733,36.254314 85.049103,40.108620 
z"/>
<path fill="#110836" opacity="1.000000" stroke="none" 
	d="
M129.573593,79.768845 
	C128.664368,80.785255 127.981453,82.068970 127.467484,83.035103 
	C125.930473,83.366150 124.506714,83.991005 123.146301,83.874710 
	C121.832741,83.762413 119.993881,83.212036 119.466537,82.257202 
	C118.889404,81.212196 119.135979,79.222214 119.815689,78.142929 
	C120.279953,77.405746 122.102043,77.299850 123.316612,77.301270 
	C126.873375,77.305435 130.433624,77.443451 133.984619,77.659027 
	C135.302429,77.739044 136.931763,77.804657 137.799072,78.574913 
	C138.497360,79.195068 138.806122,81.225204 138.306534,81.982315 
	C137.649246,82.978455 136.084213,83.682144 134.810608,83.882240 
	C133.429092,84.099274 131.934006,83.593353 130.306778,83.378746 
	C130.142593,82.295929 129.971252,81.166046 129.573593,79.768845 
z"/>
<path fill="#FFBE48" opacity="1.000000" stroke="none" 
	d="
M132.950104,46.890179 
	C134.054352,44.347954 135.158585,41.805729 136.870178,39.303661 
	C139.618591,42.671906 141.759674,45.999992 143.900742,49.328079 
	C142.500320,52.477680 141.099884,55.627277 139.219727,58.619812 
	C136.810043,54.605225 134.880066,50.747700 132.950104,46.890179 
z"/>
<path fill="#FEA64F" opacity="1.000000" stroke="none" 
	d="
M103.589386,44.091988 
	C106.100182,47.523354 108.314178,51.092312 110.817764,54.855450 
	C110.308350,56.370094 109.509354,57.690556 108.030792,59.105377 
	C106.246010,59.093830 105.140816,58.987926 103.939941,58.615051 
	C103.264679,57.881943 102.685097,57.415802 102.065933,56.592651 
	C101.628304,55.157890 101.230255,54.080143 100.902954,52.605633 
	C100.920570,51.139290 100.867424,50.069706 100.896332,48.746510 
	C101.038521,48.325680 101.098679,48.158466 101.158844,47.991249 
	C101.870094,46.737362 102.581352,45.483471 103.589386,44.091988 
z"/>
<path fill="#23BBF3" opacity="1.000000" stroke="none" 
	d="
M166.134506,57.937439 
	C167.521225,58.608349 168.907928,59.279263 170.640152,59.880318 
	C170.636002,65.725655 163.480194,69.179092 158.441193,65.718994 
	C157.044220,64.759758 156.132401,63.094013 155.348145,61.383614 
	C159.177032,59.989025 162.655762,58.963234 166.134506,57.937439 
z"/>
<path fill="#5969FB" opacity="1.000000" stroke="none" 
	d="
M142.999893,26.832260 
	C145.137039,23.634338 146.676086,19.666128 149.558502,17.428001 
	C153.404297,14.441836 156.799484,15.849976 159.668671,20.643463 
	C156.986603,21.696877 154.550095,22.111444 152.317719,23.024927 
	C149.783630,24.061869 147.432220,25.545259 144.669891,26.900257 
	C143.892212,26.921387 143.446060,26.876823 142.999893,26.832260 
z"/>
<path fill="#110836" opacity="1.000000" stroke="none" 
	d="
M164.212555,77.563774 
	C166.178146,77.570457 168.072525,76.860619 169.290619,77.480263 
	C170.345154,78.016708 171.258102,80.160667 171.060684,81.408531 
	C170.902710,82.407120 169.091675,83.468811 167.814590,83.875702 
	C166.501526,84.294060 164.939819,83.860603 163.498611,83.963524 
	C160.799942,84.156250 158.852325,83.537468 159.028748,80.299858 
	C159.209778,76.977295 161.189804,76.621094 164.212555,77.563774 
z"/>
<path fill="#FEA34F" opacity="1.000000" stroke="none" 
	d="
M67.163933,47.999298 
	C67.874962,47.406021 68.585999,46.812744 69.915718,46.243698 
	C72.510796,50.082172 74.487190,53.896412 76.463593,57.710651 
	C75.858620,58.479153 75.253647,59.247654 74.030380,60.088654 
	C72.312782,59.757702 71.213486,59.354248 69.971725,58.640625 
	C69.234741,57.189785 68.640228,56.049114 68.027878,54.543343 
	C67.951546,53.451763 67.893044,52.725281 67.896309,51.669304 
	C67.583015,50.558987 67.207954,49.778156 66.915192,48.747665 
	C67.052971,48.331768 67.108452,48.165531 67.163933,47.999298 
z"/>
<path fill="#3A99F6" opacity="1.000000" stroke="none" 
	d="
M152.168304,49.999336 
	C152.107285,48.294453 152.046265,46.589565 152.325241,44.411278 
	C156.388031,42.960171 160.110809,41.982468 163.833603,41.004768 
	C163.895706,42.718010 163.957809,44.431248 164.089935,46.567879 
	C164.159973,46.991268 164.069427,47.122868 163.606537,47.084377 
	C159.485199,48.030369 155.826752,49.014854 152.168304,49.999336 
z"/>
<path fill="#6D49FF" opacity="1.000000" stroke="none" 
	d="
M70.114189,58.950790 
	C71.213486,59.354248 72.312782,59.757702 73.706436,60.163670 
	C72.731979,66.820076 67.171165,68.282616 60.279438,63.110832 
	C63.564358,61.279625 66.839272,60.115208 70.114189,58.950790 
z"/>
<path fill="#418EF8" opacity="1.000000" stroke="none" 
	d="
M163.786255,40.634529 
	C160.110809,41.982468 156.388031,42.960171 152.273315,43.987396 
	C151.582596,42.305618 151.283798,40.574314 151.352722,38.429741 
	C155.425079,37.344780 159.129730,36.673084 162.834366,36.001385 
	C163.135880,37.422356 163.437393,38.843327 163.786255,40.634529 
z"/>
<path fill="#5471FA" opacity="1.000000" stroke="none" 
	d="
M145.001404,26.834568 
	C147.432220,25.545259 149.783630,24.061869 152.317719,23.024927 
	C154.550095,22.111444 156.986603,21.696877 159.727081,21.011574 
	C160.406418,22.384693 160.691635,23.808226 160.506210,25.617249 
	C156.344406,27.035759 152.653259,28.068779 148.659912,28.955170 
	C147.238968,28.150551 146.120178,27.492559 145.001404,26.834568 
z"/>
<path fill="#2BB0F4" opacity="1.000000" stroke="none" 
	d="
M166.081360,57.584549 
	C162.655762,58.963234 159.177032,59.989025 155.289368,61.025757 
	C154.333405,59.594124 153.786362,58.151550 153.568939,56.304298 
	C157.303680,54.918385 160.708786,53.937149 164.113892,52.955917 
	C164.752014,54.381172 165.390121,55.806419 166.081360,57.584549 
z"/>
<path fill="#32A4F5" opacity="1.000000" stroke="none" 
	d="
M164.067108,52.538055 
	C160.708786,53.937149 157.303680,54.918385 153.532562,55.950634 
	C152.874573,54.255310 152.582565,52.508972 152.229431,50.380985 
	C155.826752,49.014854 159.485199,48.030369 163.527832,47.070808 
	C163.948105,48.770554 163.984207,50.445377 164.067108,52.538055 
z"/>
<path fill="#4884F9" opacity="1.000000" stroke="none" 
	d="
M162.905838,35.628326 
	C159.129730,36.673084 155.425079,37.344780 151.303375,38.029430 
	C150.886307,38.042385 150.526535,38.016918 150.276794,37.596420 
	C150.087021,35.785011 150.146988,34.394096 150.590179,32.993279 
	C154.593552,32.322483 158.213730,31.661583 161.833893,31.000687 
	C162.215027,32.418880 162.596176,33.837070 162.905838,35.628326 
z"/>
<path fill="#FFB44B" opacity="1.000000" stroke="none" 
	d="
M144.168060,49.170345 
	C141.759674,45.999992 139.618591,42.671906 137.185944,39.146416 
	C137.553146,37.513554 138.211929,36.078098 139.356873,34.389725 
	C141.911682,37.794163 143.980331,41.451515 146.048981,45.108864 
	C145.511124,46.410114 144.973251,47.711361 144.168060,49.170345 
z"/>
<path fill="#1FC2F2" opacity="1.000000" stroke="none" 
	d="
M104.035614,58.882019 
	C105.140816,58.987926 106.246010,59.093830 107.674408,59.184032 
	C109.268234,62.421608 106.951210,63.648075 104.774529,65.072838 
	C101.128830,67.459152 97.626228,67.951981 94.391289,64.233597 
	C97.728676,62.126900 100.882149,60.504459 104.035614,58.882019 
z"/>
<path fill="#4E7AF9" opacity="1.000000" stroke="none" 
	d="
M161.905457,30.623981 
	C158.213730,31.661583 154.593552,32.322483 150.425842,32.677914 
	C149.572891,31.282232 149.267487,30.192017 148.962097,29.101799 
	C152.653259,28.068779 156.344406,27.035759 160.435059,26.001902 
	C161.215363,27.416470 161.596191,28.831873 161.905457,30.623981 
z"/>
<path fill="#FFA94E" opacity="1.000000" stroke="none" 
	d="
M146.379822,44.937004 
	C143.980331,41.451515 141.911682,37.794163 139.504456,34.070923 
	C139.872406,32.416897 140.578918,30.828760 141.880112,29.290623 
	C144.615448,32.673241 146.756104,36.005859 148.896744,39.338478 
	C148.168045,41.147366 147.439362,42.956253 146.379822,44.937004 
z"/>
<path fill="#FEAD4C" opacity="1.000000" stroke="none" 
	d="
M76.698341,57.444229 
	C74.487190,53.896412 72.510796,50.082172 70.213402,46.110123 
	C70.353226,44.717102 70.814056,43.481895 71.935150,42.159454 
	C74.768013,45.396667 76.940605,48.721115 79.113190,52.045563 
	C78.386490,53.756310 77.659790,55.467060 76.698341,57.444229 
z"/>
<path fill="#110736" opacity="1.000000" stroke="none" 
	d="
M18.127853,75.445877 
	C22.247639,76.763435 18.916449,80.099899 19.868214,82.476349 
	C18.674358,82.746338 17.491388,83.161415 16.284073,83.252014 
	C14.510878,83.385086 12.720285,83.286301 10.565231,83.286301 
	C11.628051,80.605537 12.759135,77.752586 14.394564,73.627518 
	C15.850506,76.648643 16.659016,78.326324 17.782158,80.656876 
	C17.894283,78.595703 17.969971,77.204399 18.127853,75.445877 
z"/>
<path fill="#FEA051" opacity="1.000000" stroke="none" 
	d="
M149.105957,39.222084 
	C146.756104,36.005859 144.615448,32.673241 142.184570,29.144768 
	C142.066330,28.336246 142.238297,27.723581 142.705078,26.971588 
	C143.446060,26.876823 143.892212,26.921387 144.669891,26.900261 
	C146.120178,27.492559 147.238968,28.150551 148.659912,28.955172 
	C149.267487,30.192017 149.572891,31.282232 150.042618,32.687813 
	C150.146988,34.394096 150.087021,35.785011 150.096619,37.588913 
	C149.882507,38.369831 149.598831,38.737759 149.105957,39.222084 
z"/>
<path fill="#6852FE" opacity="1.000000" stroke="none" 
	d="
M94.039673,17.880714 
	C95.028275,19.003271 96.016876,20.125826 96.655350,21.622791 
	C93.947906,22.596048 91.497246,22.963381 89.261871,23.864672 
	C87.365341,24.629349 85.717453,26.010710 83.564728,27.070164 
	C82.113472,26.957874 81.057045,26.894617 80.000610,26.831360 
	C80.776077,24.958651 81.551544,23.085943 82.864685,21.343327 
	C86.948128,20.275846 90.493904,19.078279 94.039673,17.880714 
z"/>
<path fill="#110836" opacity="1.000000" stroke="none" 
	d="
M95.014320,79.022804 
	C95.338264,77.947800 95.662216,76.872787 95.972130,75.844360 
	C98.351067,76.478928 100.517914,77.056915 103.106194,77.747322 
	C103.308182,79.399521 103.550423,81.381050 103.833870,83.699631 
	C101.264214,83.699631 99.041626,83.699631 96.534096,83.699631 
	C96.208099,82.272125 95.890732,80.882393 95.287216,79.247253 
	C95.001068,79.001854 95.014320,79.022804 95.014320,79.022804 
z"/>
<path fill="#FFBA49" opacity="1.000000" stroke="none" 
	d="
M79.753372,26.928492 
	C81.057045,26.894617 82.113472,26.957874 83.633301,27.296391 
	C84.280510,27.859661 84.542732,28.017199 84.936508,28.372135 
	C85.381195,29.467661 85.772705,30.235312 86.101898,31.356581 
	C86.421707,32.807846 86.803825,33.905491 87.105316,35.373287 
	C86.964066,36.496731 86.903435,37.250031 86.842804,38.003326 
	C86.432053,38.628998 86.021301,39.254669 85.329834,39.994484 
	C83.110733,36.254314 81.172363,32.400005 79.093796,28.217558 
	C79.137772,27.601486 79.321953,27.313555 79.753372,26.928492 
z"/>
<path fill="#4F78FA" opacity="1.000000" stroke="none" 
	d="
M86.911530,38.310234 
	C86.903435,37.250031 86.964066,36.496731 87.505569,35.370903 
	C91.602158,34.332642 95.217873,33.666904 98.833588,33.001171 
	C99.212852,34.098614 99.592117,35.196060 99.508621,36.647781 
	C95.326553,38.017376 91.607239,39.032700 87.887932,40.048019 
	C87.585373,39.571064 87.282806,39.094105 86.911530,38.310234 
z"/>
<path fill="#566DFB" opacity="1.000000" stroke="none" 
	d="
M98.905060,32.609787 
	C95.217873,33.666904 91.602158,34.332642 87.586189,35.000755 
	C86.803825,33.905491 86.421707,32.807846 86.501251,31.354441 
	C90.658638,29.962561 94.354362,28.926439 98.050095,27.890316 
	C98.358910,29.333012 98.667717,30.775707 98.905060,32.609787 
z"/>
<path fill="#FEB34A" opacity="1.000000" stroke="none" 
	d="
M132.709320,46.949562 
	C134.880066,50.747700 136.810043,54.605225 138.894012,58.785740 
	C138.592636,59.743923 138.137268,60.379112 137.077072,60.975834 
	C136.012115,60.610126 135.551987,60.282894 134.977966,59.688576 
	C134.281113,58.932621 133.698166,58.443756 133.062637,57.627182 
	C132.618561,56.532345 132.227081,55.765213 131.903961,54.661034 
	C131.680984,53.539062 131.389648,52.754143 131.058105,51.604282 
	C131.050049,50.507187 131.082214,49.775032 131.378937,48.927784 
	C131.761444,48.263027 131.879395,47.713360 131.997345,47.163696 
	C131.997345,47.163696 132.468552,47.008942 132.709320,46.949562 
z"/>
<path fill="#1DC6F2" opacity="1.000000" stroke="none" 
	d="
M126.833397,19.998379 
	C127.130081,21.247425 127.426765,22.496471 126.995209,23.882704 
	C122.496933,25.050936 118.726898,26.081980 114.635696,27.059513 
	C113.820641,26.669941 113.326759,26.333881 112.832870,25.997822 
	C113.311844,24.749062 113.790817,23.500303 115.006172,22.116903 
	C119.439507,21.320969 123.136452,20.659674 126.833397,19.998379 
z"/>
<path fill="#6A50FE" opacity="1.000000" stroke="none" 
	d="
M135.091858,59.955662 
	C135.551987,60.282894 136.012115,60.610126 136.736267,61.052097 
	C135.504593,66.892815 129.645264,67.990463 123.603058,63.312698 
	C127.652290,61.909946 131.372070,60.932804 135.091858,59.955662 
z"/>
<path fill="#34A1F6" opacity="1.000000" stroke="none" 
	d="
M100.814285,49.000126 
	C100.867424,50.069706 100.920570,51.139290 100.516464,52.614372 
	C96.761681,53.681004 93.464149,54.342136 90.166618,55.003265 
	C89.789879,53.585430 89.413132,52.167591 89.529137,50.376244 
	C93.619347,49.668530 97.216820,49.334328 100.814285,49.000126 
z"/>
<path fill="#2CADF4" opacity="1.000000" stroke="none" 
	d="
M90.095711,55.360397 
	C93.464149,54.342136 96.761681,53.681004 100.445709,53.011135 
	C101.230255,54.080143 101.628304,55.157890 101.707039,56.747726 
	C97.981018,57.841648 94.574303,58.423477 91.167587,59.005310 
	C90.786659,57.909386 90.405731,56.813457 90.095711,55.360397 
z"/>
<path fill="#25B9F3" opacity="1.000000" stroke="none" 
	d="
M91.096741,59.355331 
	C94.574303,58.423477 97.981018,57.841648 101.746620,57.104740 
	C102.685097,57.415802 103.264679,57.881943 103.939941,58.615051 
	C100.882149,60.504459 97.728676,62.126900 94.232346,63.897255 
	C92.934952,62.598568 91.980423,61.151962 91.096741,59.355331 
z"/>
<path fill="#3C96F7" opacity="1.000000" stroke="none" 
	d="
M100.896332,48.746510 
	C97.216820,49.334328 93.619347,49.668530 89.594727,50.004181 
	C89.106712,48.946968 89.045853,47.888306 89.367569,46.423344 
	C93.444176,45.345722 97.138206,44.674397 100.832237,44.003075 
	C100.895554,45.068779 100.958862,46.134483 101.090508,47.595718 
	C101.098679,48.158466 101.038521,48.325680 100.896332,48.746510 
z"/>
<path fill="#16D1F1" opacity="1.000000" stroke="none" 
	d="
M126.899597,19.621075 
	C123.136452,20.659674 119.439507,21.320969 115.314377,21.970291 
	C118.097099,14.815217 122.517166,13.821930 126.899597,19.621075 
z"/>
<path fill="#5D62FC" opacity="1.000000" stroke="none" 
	d="
M98.028374,27.527668 
	C94.354362,28.926439 90.658638,29.962561 86.563560,31.000822 
	C85.772705,30.235312 85.381195,29.467661 85.325241,28.321468 
	C89.717979,26.961859 93.775154,25.980791 97.832329,24.999725 
	C97.890442,25.721489 97.948547,26.443254 98.028374,27.527668 
z"/>
<path fill="#FEB749" opacity="1.000000" stroke="none" 
	d="
M79.418976,51.899040 
	C76.940605,48.721115 74.768013,45.396667 72.242081,42.015358 
	C72.349747,40.721378 72.810768,39.484264 73.579224,38.103210 
	C76.083649,41.220669 78.280640,44.482063 80.792999,47.897316 
	C80.647163,49.284954 80.185966,50.518734 79.418976,51.899040 
z"/>
<path fill="#4882F9" opacity="1.000000" stroke="none" 
	d="
M87.936234,40.416618 
	C91.607239,39.032700 95.326553,38.017376 99.439560,37.000931 
	C99.881172,38.069447 99.929085,39.139095 99.506279,40.605797 
	C95.412575,41.668930 91.789589,42.335003 88.166603,43.001072 
	C88.105911,42.262451 88.045219,41.523834 87.936234,40.416618 
z"/>
<path fill="#FFA94E" opacity="1.000000" stroke="none" 
	d="
M116.325623,44.990177 
	C114.109741,40.922340 112.172630,36.738678 110.091248,32.224064 
	C110.075874,31.321400 110.204773,30.749685 110.967400,30.128963 
	C113.679703,33.070789 115.758286,36.061630 117.920059,39.019833 
	C118.003250,38.987194 118.169197,38.920795 118.112480,39.190876 
	C118.092896,39.641151 118.130035,39.821342 118.096024,40.373337 
	C117.962746,41.497501 117.900612,42.249859 117.838470,43.002220 
	C117.427109,43.626263 117.015747,44.250309 116.325623,44.990177 
z"/>
<path fill="#3E93F7" opacity="1.000000" stroke="none" 
	d="
M55.168533,42.972649 
	C55.110241,41.940651 55.051945,40.908657 55.183685,39.188759 
	C58.954021,37.318668 62.534321,36.136478 66.114624,34.954288 
	C66.401108,36.056221 66.687584,37.158154 66.509308,38.630112 
	C62.419209,40.324310 58.793873,41.648479 55.168533,42.972649 
z"/>
<path fill="#24BBF3" opacity="1.000000" stroke="none" 
	d="
M53.165581,28.997746 
	C53.108498,28.274614 53.051414,27.551483 53.184017,26.165070 
	C56.954033,24.320536 60.534359,23.139284 64.114685,21.958035 
	C64.401268,23.058392 64.687859,24.158747 64.508240,25.629364 
	C60.416553,26.999001 56.791069,27.998373 53.165581,28.997746 
z"/>
<path fill="#4090F8" opacity="1.000000" stroke="none" 
	d="
M117.936951,43.246262 
	C117.900612,42.249859 117.962746,41.497501 118.531509,40.373024 
	C122.636711,39.666897 126.235298,39.332886 129.833878,38.998875 
	C130.212982,39.778538 130.592087,40.558201 130.512253,41.678314 
	C126.331833,42.693867 122.610352,43.368973 118.888870,44.044075 
	C118.604393,43.859486 118.319916,43.674896 117.936951,43.246262 
z"/>
<path fill="#6754FD" opacity="1.000000" stroke="none" 
	d="
M69.971725,58.640625 
	C66.839272,60.115208 63.564358,61.279625 60.118538,62.774315 
	C59.309235,61.643456 58.670834,60.182320 58.485859,58.351521 
	C61.974762,56.957390 65.010239,55.932919 68.045715,54.908447 
	C68.640228,56.049114 69.234741,57.189785 69.971725,58.640625 
z"/>
<path fill="#428CF8" opacity="1.000000" stroke="none" 
	d="
M88.095963,43.340767 
	C91.789589,42.335003 95.412575,41.668930 99.434433,41.002075 
	C100.211761,41.781769 100.590225,42.562241 100.900459,43.672894 
	C97.138206,44.674397 93.444176,45.345722 89.315964,46.028053 
	C88.596298,45.252861 88.310806,44.466660 88.095963,43.340767 
z"/>
<path fill="#6D4AFF" opacity="1.000000" stroke="none" 
	d="
M93.858635,17.557461 
	C90.493904,19.078279 86.948128,20.275846 83.174988,21.185337 
	C85.158257,16.087904 88.295418,15.016927 93.858635,17.557461 
z"/>
<path fill="#6359FD" opacity="1.000000" stroke="none" 
	d="
M97.903137,24.660698 
	C93.775154,25.980791 89.717979,26.961859 85.272079,27.993595 
	C84.542732,28.017199 84.280510,27.859661 84.028114,27.345421 
	C85.717453,26.010710 87.365341,24.629349 89.261871,23.864672 
	C91.497246,22.963381 93.947906,22.596048 96.712479,21.980221 
	C97.404465,22.749380 97.689209,23.535526 97.903137,24.660698 
z"/>
<path fill="#379EF6" opacity="1.000000" stroke="none" 
	d="
M66.064445,34.585281 
	C62.534321,36.136478 58.954021,37.318668 55.161480,38.800632 
	C54.639969,37.660301 54.330696,36.220196 54.498386,34.389870 
	C58.594280,33.331882 62.213215,32.664116 65.832146,31.996349 
	C65.892853,32.736324 65.953560,33.476295 66.064445,34.585281 
z"/>
<path fill="#5175FA" opacity="1.000000" stroke="none" 
	d="
M67.096748,47.678570 
	C67.108452,48.165531 67.052971,48.331768 66.522842,48.749447 
	C62.994244,49.681755 59.940289,50.362625 56.886330,51.043495 
	C56.598660,49.941116 56.310989,48.838741 56.502037,47.368675 
	C60.598316,46.334133 64.215881,45.667274 67.833443,45.000420 
	C67.565483,45.786224 67.297523,46.572033 67.096748,47.678570 
z"/>
<path fill="#28B5F4" opacity="1.000000" stroke="none" 
	d="
M127.110062,25.953510 
	C127.731392,27.069592 128.352722,28.185675 128.486893,29.649647 
	C124.388382,30.664492 120.777023,31.331446 117.024612,31.693125 
	C116.644562,30.591307 116.405579,29.794764 116.538437,28.945923 
	C120.310204,27.913584 123.710136,26.933548 127.110062,25.953510 
z"/>
<path fill="#33A3F5" opacity="1.000000" stroke="none" 
	d="
M129.115128,32.960144 
	C129.402008,33.744118 129.688889,34.528091 129.490250,35.655037 
	C125.392883,36.972271 121.781044,37.946533 118.169197,38.920792 
	C118.169197,38.920795 118.003250,38.987194 117.978508,38.663986 
	C117.691780,37.225151 117.429802,36.109520 117.546188,34.941025 
	C121.654747,34.245487 125.384941,33.602818 129.115128,32.960144 
z"/>
<path fill="#1EC5F2" opacity="1.000000" stroke="none" 
	d="
M64.063843,21.617977 
	C60.534359,23.139284 56.954033,24.320536 53.161827,25.801785 
	C52.639908,24.976389 52.329865,23.850994 52.285088,22.222130 
	C52.775414,21.489786 52.908558,21.216169 52.949795,20.897816 
	C52.949795,20.897816 52.978928,20.977962 53.359386,20.977215 
	C56.863560,20.303755 59.987270,19.631042 63.110985,18.958332 
	C63.411655,19.731527 63.712326,20.504725 64.063843,21.617977 
z"/>
<path fill="#4A80F9" opacity="1.000000" stroke="none" 
	d="
M67.903976,44.660172 
	C64.215881,45.667274 60.598316,46.334133 56.573311,47.001343 
	C55.841999,46.219524 55.518124,45.437355 55.586643,44.327759 
	C59.691528,43.319355 63.404022,42.638382 67.116516,41.957413 
	C67.402519,42.744915 67.688515,43.532417 67.903976,44.660172 
z"/>
<path fill="#5E60FC" opacity="1.000000" stroke="none" 
	d="
M68.027878,54.543346 
	C65.010239,55.932919 61.974762,56.957390 58.556133,57.990608 
	C57.792797,57.219189 57.412613,56.439022 57.461475,55.279568 
	C61.205200,53.933117 64.519875,52.965958 67.834549,51.998798 
	C67.893044,52.725281 67.951546,53.451763 68.027878,54.543346 
z"/>
<path fill="#4686F9" opacity="1.000000" stroke="none" 
	d="
M118.936310,44.412998 
	C122.610352,43.368973 126.331833,42.693867 130.444122,42.008492 
	C130.881821,43.067215 130.928711,44.136208 130.482452,45.602005 
	C126.381744,46.332375 122.774200,46.665939 119.166656,46.999504 
	C119.105690,46.260307 119.044716,45.521114 118.936310,44.412998 
z"/>
<path fill="#4C7DF9" opacity="1.000000" stroke="none" 
	d="
M119.095261,47.339813 
	C122.774200,46.665939 126.381744,46.332375 130.411392,45.998215 
	C131.044556,46.310841 131.255630,46.624069 131.732025,47.050499 
	C131.879395,47.713360 131.761444,48.263027 130.949020,48.916229 
	C126.798836,49.361839 123.343124,49.703922 119.887413,50.046005 
	C119.599564,49.257374 119.311714,48.468746 119.095261,47.339813 
z"/>
<path fill="#FFB44B" opacity="1.000000" stroke="none" 
	d="
M117.167824,34.993889 
	C117.429802,36.109520 117.691780,37.225151 117.895309,38.696625 
	C115.758286,36.061630 113.679703,33.070789 111.245590,30.019058 
	C111.337395,28.735664 111.784729,27.513163 112.532471,26.144241 
	C113.326759,26.333881 113.820641,26.669941 114.732529,27.328281 
	C115.489220,28.099781 115.827911,28.549000 116.166595,28.998220 
	C116.405579,29.794764 116.644562,30.591307 116.954338,32.064262 
	C117.072685,33.491745 117.120255,34.242817 117.167824,34.993889 
z"/>
<path fill="#6359FD" opacity="1.000000" stroke="none" 
	d="
M134.977966,59.688576 
	C131.372070,60.932804 127.652290,61.909946 123.549194,62.943104 
	C122.825127,62.547169 122.484375,62.095215 122.264969,61.067566 
	C125.962624,59.646214 129.538925,58.800552 133.115219,57.954891 
	C133.698166,58.443756 134.281113,58.932621 134.977966,59.688576 
z"/>
<path fill="#5273FA" opacity="1.000000" stroke="none" 
	d="
M119.935333,50.440216 
	C123.343124,49.703922 126.798836,49.361839 130.684464,49.031319 
	C131.082214,49.775032 131.050049,50.507187 130.657318,51.656128 
	C126.920113,52.714897 123.543480,53.356884 120.166840,53.998878 
	C120.105652,52.944061 120.044456,51.889240 119.935333,50.440216 
z"/>
<path fill="#2BB0F4" opacity="1.000000" stroke="none" 
	d="
M53.092728,29.368984 
	C56.791069,27.998373 60.416553,26.999001 64.436966,25.996937 
	C65.156136,26.776279 65.480377,27.558313 65.414673,28.669346 
	C61.072144,29.997650 57.119553,30.996956 53.166962,31.996262 
	C53.117931,31.244247 53.068901,30.492235 53.092728,29.368984 
z"/>
<path fill="#30A8F5" opacity="1.000000" stroke="none" 
	d="
M53.151581,32.291164 
	C57.119553,30.996956 61.072144,29.997650 65.428276,28.997217 
	C65.879501,29.748398 65.927185,30.500706 65.903503,31.624683 
	C62.213215,32.664116 58.594280,33.331882 54.570564,33.999245 
	C53.822582,33.527916 53.479389,33.056992 53.151581,32.291164 
z"/>
<path fill="#586BFB" opacity="1.000000" stroke="none" 
	d="
M67.896309,51.669304 
	C64.519875,52.965958 61.205200,53.933117 57.528652,54.949112 
	C57.105667,53.942703 57.044559,52.887463 56.934891,51.437859 
	C59.940289,50.362625 62.994244,49.681755 66.440552,48.999107 
	C67.207954,49.778156 67.583015,50.558987 67.896309,51.669304 
z"/>
<path fill="#5E62FC" opacity="1.000000" stroke="none" 
	d="
M133.062637,57.627186 
	C129.538925,58.800552 125.962624,59.646214 122.166656,60.797344 
	C121.639458,59.982746 121.331917,58.862675 121.477951,57.314590 
	C125.232887,56.257080 128.534241,55.627579 131.835587,54.998077 
	C132.227081,55.765213 132.618561,56.532345 133.062637,57.627186 
z"/>
<path fill="#3A99F6" opacity="1.000000" stroke="none" 
	d="
M118.112480,39.190872 
	C121.781044,37.946533 125.392883,36.972271 129.419189,35.996758 
	C129.881149,36.748543 129.928635,37.501575 129.904999,38.626743 
	C126.235298,39.332886 122.636711,39.666897 118.602646,40.001225 
	C118.130035,39.821342 118.092896,39.641151 118.112480,39.190872 
z"/>
<path fill="#2DACF5" opacity="1.000000" stroke="none" 
	d="
M117.546188,34.941025 
	C117.120255,34.242817 117.072685,33.491745 117.095398,32.369537 
	C120.777023,31.331446 124.388382,30.664492 128.415344,29.996220 
	C128.891647,30.736729 128.952347,31.478556 129.064087,32.590263 
	C125.384941,33.602818 121.654747,34.245487 117.546188,34.941025 
z"/>
<path fill="#586BFB" opacity="1.000000" stroke="none" 
	d="
M131.903961,54.661030 
	C128.534241,55.627579 125.232887,56.257080 121.548996,56.941933 
	C120.788315,56.217751 120.410172,55.438213 120.099434,54.328773 
	C123.543480,53.356884 126.920113,52.714897 130.697540,52.021065 
	C131.389648,52.754143 131.680984,53.539062 131.903961,54.661030 
z"/>
<path fill="#22BEF3" opacity="1.000000" stroke="none" 
	d="
M116.538437,28.945919 
	C115.827911,28.549000 115.489220,28.099781 115.053696,27.381794 
	C118.726898,26.081980 122.496933,25.050936 126.690521,24.031294 
	C127.081223,24.468063 127.048370,24.893429 127.062790,25.636154 
	C123.710136,26.933548 120.310204,27.913584 116.538437,28.945919 
z"/>
<path fill="#4489F8" opacity="1.000000" stroke="none" 
	d="
M67.065964,41.587967 
	C63.404022,42.638382 59.691528,43.319355 55.572487,44.000370 
	C55.126183,43.829033 55.086433,43.657654 55.107605,43.229462 
	C58.793873,41.648479 62.419209,40.324310 66.438232,38.997890 
	C66.893089,39.736603 66.954247,40.477562 67.065964,41.587967 
z"/>
<path fill="#18CEF1" opacity="1.000000" stroke="none" 
	d="
M62.957962,18.626705 
	C59.987270,19.631042 56.863560,20.303755 53.320679,20.959333 
	C55.598579,15.139899 57.355728,14.670225 62.957962,18.626705 
z"/>
<path fill="#110836" opacity="1.000000" stroke="none" 
	d="
M112.977249,79.521912 
	C112.207550,80.861359 111.788528,82.193420 111.369499,83.525482 
	C111.097733,83.512177 110.825958,83.498863 110.554192,83.485558 
	C110.554192,81.559807 110.554192,79.634056 110.554192,77.679062 
	C115.872482,76.698326 116.569000,77.522148 115.129730,84.428444 
	C114.326576,82.238045 113.827255,80.876282 112.977249,79.521912 
z"/>
<path fill="#110836" opacity="1.000000" stroke="none" 
	d="
M94.992790,78.993073 
	C94.984512,80.480759 94.984512,81.977242 94.984512,83.473717 
	C94.543312,83.513161 94.102104,83.552605 93.660904,83.592049 
	C93.244865,82.213715 92.828835,80.835381 92.050552,78.256897 
	C91.272278,80.764229 90.842880,82.147591 90.413483,83.530952 
	C89.968887,83.497643 89.524292,83.464325 89.079697,83.431015 
	C89.284271,81.434341 89.488838,79.437660 89.693405,77.440987 
	C91.263611,77.822990 92.833809,78.204994 94.709167,78.804901 
	C95.014320,79.022804 95.001068,79.001854 94.992790,78.993073 
z"/>
<path fill="#18CEF1" opacity="1.000000" stroke="none" 
	d="
M52.702351,20.984047 
	C52.908558,21.216169 52.775414,21.489786 52.358093,21.847351 
	C52.262188,21.674120 52.358547,21.372198 52.702351,20.984047 
z"/>
<path fill="#000000" opacity="1.000000" stroke="none" 
	d="
M229.551331,37.942593 
	C232.212692,29.218555 239.431091,25.604998 246.272659,29.990740 
	C248.473648,31.401655 250.785828,34.752792 250.709198,37.141304 
	C250.570709,41.458031 249.214066,45.972691 247.354156,49.928970 
	C245.578064,53.706944 239.056488,55.379272 234.612015,53.813572 
	C230.174194,52.250214 228.527969,48.780056 228.981140,44.171947 
	C229.174774,42.202805 229.161377,40.213299 229.551331,37.942593 
z"/>
<path fill="#000000" opacity="1.000000" stroke="none" 
	d="
M287.128815,36.000000 
	C284.527252,36.000000 282.402100,36.000000 280.186432,36.000000 
	C281.858307,30.245138 285.852997,27.006659 290.982605,27.000120 
	C296.161743,26.993515 298.971375,29.599827 300.568359,36.000000 
	C296.224396,36.000000 291.914825,36.000000 287.128815,36.000000 
z"/>
<path fill="#000000" opacity="1.000000" stroke="none" 
	d="
M233.405975,18.570230 
	C233.114761,19.109917 232.675217,19.424799 232.235657,19.739681 
	C232.276108,19.200033 232.316559,18.660383 232.637390,18.024113 
	C233.031067,18.066803 233.144348,18.206116 233.405975,18.570230 
z"/>
</svg>