<svg width="317" height="77" viewBox="0 0 317 77" fill="none" xmlns="http://www.w3.org/2000/svg">
<path d="M199.074 7.85794C197.99 7.85794 197.012 7.10639 196.766 6.00202C196.483 4.72608 197.287 3.45981 198.562 3.17707L212.624 0.0573024C213.899 -0.227851 215.164 0.579278 215.446 1.85522C215.729 3.13116 214.925 4.39743 213.65 4.68017L199.591 7.80236C199.419 7.84102 199.246 7.86035 199.076 7.86035L199.074 7.85794Z" fill="#FFA74E"/>
<path d="M167.377 58.4435C166.518 58.4435 165.648 58.2405 164.834 57.8104C162.178 56.4015 161.166 53.1078 162.572 50.4495L179.017 19.3727C180.424 16.7145 183.718 15.7019 186.372 17.1084C189.028 18.5172 190.04 21.811 188.635 24.4692L172.19 55.5461C171.214 57.3923 169.326 58.4435 167.377 58.4435Z" fill="#FFA74E"/>
<path d="M0 55.8353L5.06142 46.2996C8.94201 48.9167 15.0973 50.6035 20.8325 50.6035C26.9902 50.6035 29.6876 48.9167 29.6876 46.215C29.6876 39.8015 5.65064 45.1179 5.65064 29.7583C5.65064 19.546 15.1819 13.8066 28.4222 13.8066C34.7466 13.8066 41.0734 15.2421 45.2051 17.6055L40.4817 27.2258C36.2655 24.6086 31.2886 23.7653 27.0723 23.7653C20.9991 23.7653 18.3018 25.7903 18.3018 28.2383C18.3018 34.9056 42.2542 29.5892 42.2542 44.695C42.2542 55.0765 32.4718 60.5621 19.3981 60.5621C11.3858 60.5621 3.79607 58.537 0 55.8353Z" fill="#080447"/>
<path d="M213.457 16.8223L211.639 25.7587L204.858 59.8877H191.782L198.602 25.5895L199.698 20.2852L213.457 16.8223Z" fill="#080447"/>
<path d="M267.009 34.1444C267.009 49.4218 255.961 60.5621 241.876 60.5621C235.298 60.5621 230.152 58.4525 227.201 53.8103L222.731 76.2601H209.575L221.888 14.4809H234.37L233.443 18.9539C237.07 15.6626 241.793 13.8066 247.36 13.8066C257.903 13.8066 267.011 21.2327 267.011 34.1468L267.009 34.1444ZM253.684 34.7364C253.684 28.5766 249.888 24.6932 243.31 24.6932C235.636 24.6932 230.07 30.7708 230.07 39.6323C230.07 45.7946 233.781 49.6755 240.359 49.6755C248.118 49.6755 253.684 43.5979 253.684 34.7364Z" fill="#080447"/>
<path d="M315.336 40.7295H280.59C281.012 46.8893 284.806 50.0139 292.314 50.0139C296.952 50.0139 301.338 48.4938 304.458 45.7946L309.939 54.4869C304.711 58.7062 297.88 60.5645 290.964 60.5645C276.796 60.5645 267.77 52.5464 267.77 40.2244C267.77 25.0315 278.733 13.8066 294.504 13.8066C307.744 13.8066 316.095 21.6556 316.095 33.8085C316.095 36.2564 315.756 38.6198 315.336 40.7295ZM281.517 33.0497H304.035C304.035 27.0566 299.985 23.6807 293.915 23.6807C287.844 23.6807 283.287 27.3949 281.517 33.0497Z" fill="#080447"/>
<path d="M116.422 21.3681C115.806 17.8738 118.4 14.6622 121.887 14.4882C121.797 14.4833 121.715 14.4785 121.621 14.4785C121.223 14.4785 120.836 14.522 120.457 14.6066C118.953 14.9377 117.637 15.8994 116.871 17.2817L116.536 17.8931L113.428 23.5237V23.5285L113.295 23.7653L101.554 45.0286L98.9751 29.7101L98.27 25.5391L97.9005 23.3376L97.5166 21.0636C97.4586 20.7277 97.3838 20.3967 97.2848 20.0777C96.8356 18.5963 95.9687 17.3131 94.8338 16.3513C94.1093 15.7351 93.2762 15.2518 92.3731 14.9352C91.5496 14.6428 90.6658 14.4809 89.7409 14.4809C89.6274 14.4809 89.5236 14.4858 89.4101 14.4906C89.2266 14.4954 89.0358 14.5099 88.8571 14.5341C88.7967 14.5389 88.7388 14.5486 88.6808 14.5534C88.4683 14.5824 88.2607 14.6187 88.0506 14.667C87.9661 14.6863 87.884 14.7057 87.7994 14.725C87.5918 14.7782 87.3889 14.8386 87.1837 14.9087C87.1233 14.928 87.0605 14.9522 87.0001 14.9739C86.9663 14.9836 86.9398 14.9932 86.9108 15.0077C86.8577 15.0222 86.8118 15.0416 86.7635 15.0633C86.7031 15.0875 86.65 15.1165 86.5872 15.1382C86.4882 15.1817 86.394 15.2228 86.2974 15.2711C86.1839 15.3243 86.0753 15.3799 85.9666 15.4379C85.8869 15.4862 85.8096 15.5273 85.7348 15.5756C85.6213 15.636 85.5126 15.7085 85.4039 15.7835C85.346 15.8173 85.2904 15.8535 85.2373 15.8922C85.09 15.9913 84.9451 16.1049 84.8027 16.2136C84.723 16.2788 84.6409 16.3465 84.5612 16.4166C84.5032 16.4601 84.4525 16.506 84.3994 16.5592C84.3414 16.6123 84.2859 16.6679 84.2279 16.7211C84.17 16.7742 84.1144 16.8347 84.0565 16.8927C83.9623 16.9966 83.8681 17.0956 83.7764 17.1996C83.7329 17.2431 83.7015 17.289 83.6677 17.3325C83.588 17.4219 83.5107 17.5161 83.4407 17.6176C83.4262 17.637 83.4069 17.6563 83.3972 17.6732C83.3127 17.7868 83.2306 17.8955 83.1558 18.0139C83.1413 18.0381 83.122 18.0671 83.1026 18.0937C83.0133 18.2363 82.9264 18.3837 82.8418 18.5287L79.7944 23.9877L68.0633 45.0286L65.6871 30.4713L63.8832 19.4035C63.6562 17.9825 62.927 16.7525 61.8958 15.8753C60.8647 14.9981 59.5342 14.4785 58.095 14.4785C54.4462 14.4785 51.6885 17.7747 52.3212 21.3681L56.8175 46.8507L56.9793 47.7738L57.8124 52.4716C58.1915 54.6126 59.312 56.4685 60.884 57.7856C62.4513 59.1074 64.47 59.8831 66.6482 59.8831C69.913 59.8831 72.917 58.107 74.4987 55.2506L74.7498 54.7963L87.4372 31.8004L87.541 31.6119L87.5797 31.8004L91.4168 52.5416C92.2016 56.7948 95.9132 59.8807 100.233 59.8807H100.465C102.399 59.8807 104.242 59.2597 105.751 58.1626C105.761 58.1577 105.766 58.1529 105.77 58.1481C106.802 57.3893 107.678 56.4057 108.32 55.2458L109.508 53.095L118.982 35.9278V35.923L117.369 26.7884L116.412 21.3657L116.422 21.3681Z" fill="url(#paint0_linear_8648_65000)"/>
<path d="M172.982 54.12C172.972 54.1539 172.907 54.3182 172.849 54.4753L172.424 55.2461C172.4 55.2945 172.371 55.3404 172.344 55.3839C172.296 55.4588 172.25 55.5361 172.206 55.6159C172.192 55.64 172.177 55.6642 172.163 55.686C171.552 56.6574 170.772 57.4911 169.869 58.1533C169.869 58.1533 169.864 58.1581 169.854 58.1629C168.345 59.2673 166.505 59.8859 164.568 59.8859H164.337C160.016 59.8859 156.307 56.7927 155.515 52.542L151.678 31.8007L151.644 31.6122L151.54 31.7959V31.8007L138.853 54.7967L138.602 55.251C137.986 56.365 137.153 57.305 136.18 58.0493C136.047 58.1533 135.909 58.2523 135.769 58.3466C135.632 58.4408 135.489 58.5302 135.349 58.6172C134.719 58.9966 134.038 59.289 133.338 59.5017C132.509 59.753 131.638 59.8859 130.749 59.8859C129.392 59.8859 128.095 59.5839 126.931 59.028H126.926C126.695 58.9145 126.468 58.7961 126.245 58.668C126.023 58.5351 125.811 58.3973 125.598 58.2523C125.391 58.1049 125.188 57.9503 124.992 57.7835C124.893 57.6989 124.794 57.6119 124.7 57.5322C124.132 57.0102 123.63 56.4182 123.215 55.7705C122.727 55.0093 122.343 54.1659 122.099 53.2597C122.029 52.9987 121.966 52.7378 121.921 52.4695L121.092 47.7717V47.7669L119.006 35.9282V35.9234L121.471 31.4528L124.041 26.7888C124.041 26.7888 124.041 26.784 124.046 26.7791L126.388 22.5357C126.856 21.6826 127.074 20.7885 127.074 19.9113C127.074 18.8069 126.728 17.7388 126.122 16.8471C125.219 15.5156 123.732 14.5731 121.93 14.4837C122.024 14.474 122.114 14.474 122.21 14.474C123.65 14.474 124.978 14.996 126.011 15.8708C126.101 15.9457 126.19 16.0279 126.277 16.1125C126.311 16.1463 126.347 16.1777 126.381 16.2164C126.859 16.6997 127.252 17.2627 127.54 17.8886C127.578 17.9684 127.615 18.0505 127.644 18.1303C127.738 18.3719 127.822 18.6184 127.89 18.8746C127.933 19.051 127.97 19.2202 127.999 19.4014C129.129 26.3442 129.906 33.3425 131.387 40.2128C131.391 40.2321 131.396 40.2563 131.401 40.2732L132.171 45.0265L132.232 44.913L143.905 23.9832L143.924 23.9445L144.108 23.6231L145.484 21.151L146.95 18.5218C146.984 18.4614 147.02 18.3985 147.059 18.3381C147.063 18.3236 147.073 18.314 147.083 18.2995C147.121 18.2294 147.162 18.1569 147.206 18.0868C147.23 18.0578 147.249 18.0336 147.264 18.007C147.339 17.8886 147.421 17.7799 147.505 17.6663C147.515 17.647 147.529 17.6276 147.549 17.6083C147.619 17.5141 147.696 17.415 147.776 17.3232C147.805 17.2797 147.841 17.2386 147.88 17.1903C147.974 17.0912 148.068 16.9873 148.165 16.8834C148.223 16.8254 148.273 16.7698 148.336 16.7118C148.394 16.6586 148.445 16.603 148.507 16.5499C148.561 16.4967 148.611 16.4508 148.669 16.4073C148.744 16.3372 148.826 16.2695 148.911 16.2043C148.954 16.1705 148.995 16.1391 149.044 16.1052C149.118 16.0448 149.196 15.9868 149.275 15.9288C149.295 15.9143 149.319 15.895 149.341 15.8805C149.399 15.8418 149.454 15.8056 149.512 15.7717C149.565 15.7331 149.621 15.7017 149.674 15.663C149.727 15.6243 149.783 15.5929 149.84 15.5639C149.92 15.5156 149.997 15.4745 150.077 15.431C150.186 15.3706 150.294 15.3126 150.408 15.2594C150.502 15.2111 150.596 15.17 150.698 15.1265C150.756 15.1024 150.811 15.0734 150.874 15.0516C150.898 15.0371 150.922 15.0274 150.944 15.0226C150.968 15.0081 150.997 14.9984 151.019 14.9936C151.048 14.9839 151.077 14.9694 151.103 14.9598C151.169 14.9356 151.227 14.9114 151.292 14.8945C151.391 14.8607 151.49 14.8293 151.589 14.8003C151.697 14.7616 151.811 14.735 151.924 14.706C151.999 14.6867 152.077 14.6722 152.156 14.6529C152.26 14.6239 152.364 14.6045 152.468 14.5925C152.572 14.5731 152.675 14.5538 152.779 14.5393C152.84 14.5345 152.898 14.5248 152.956 14.52C153.139 14.4958 153.325 14.4861 153.513 14.4765C153.622 14.4716 153.731 14.4668 153.839 14.4668C154.762 14.4668 155.648 14.6287 156.472 14.9211C157.379 15.2377 158.213 15.7258 158.937 16.3372C160.072 17.299 160.939 18.5822 161.388 20.0635C161.487 20.3801 161.564 20.7112 161.62 21.0495L162.004 23.3235L162.373 25.5249L163.074 29.6959L165.085 41.6144C165.085 41.6289 165.085 41.6434 165.09 41.6579C165.331 43.4099 165.549 45.1715 165.933 46.8994C166.515 49.5286 167.408 53.4023 170.434 54.1684C171.272 54.381 172.165 54.3351 172.994 54.1079L172.982 54.12Z" fill="url(#paint1_linear_8648_65000)"/>
<path d="M74.6855 54.9379C73.9031 56.2719 72.9154 57.5357 71.6211 58.396C70.1626 59.3651 68.4167 59.887 66.6683 59.887C64.4926 59.887 62.4738 59.1089 60.9042 57.7871C59.3346 56.47 58.2141 54.6141 57.8326 52.4731L57.0019 47.7753L52.3461 21.372C51.7111 17.7786 54.4712 14.4824 58.1175 14.4824C59.5543 14.4824 60.8873 15.002 61.916 15.8768C62.9495 16.7564 63.6764 17.9888 63.9058 19.4074C65.0408 26.367 66.1733 33.3243 67.3083 40.284C67.9192 44.0345 67.8564 48.435 69.4381 51.939C70.3147 53.8795 72.4156 55.6992 74.6855 54.9404V54.9379Z" fill="url(#paint2_linear_8648_65000)"/>
<path d="M108.89 54.1226C108.871 54.183 108.658 54.7195 108.641 54.7485C108.477 55.0458 108.277 55.3212 108.113 55.6185C107.197 57.2738 105.374 58.7165 103.657 59.4656C101.885 60.2389 99.8661 60.4661 97.9777 60.0263C94.5535 59.2288 91.7765 56.3096 91.1607 52.8491L90.33 48.1513C90.161 47.1968 89.9944 46.2423 89.8253 45.2877C89.4655 43.2506 89.1057 41.2134 88.7483 39.1762C88.4151 37.2913 88.0843 35.404 87.751 33.5191C87.3936 31.4892 87.2101 29.411 86.5098 27.4584C86.051 26.1776 85.3145 24.7857 84.1988 23.964C82.8224 22.9515 81.2166 23.2898 79.7773 23.9785C80.6732 22.6809 81.3252 21.2309 82.0738 19.8414C82.8248 18.4519 83.7014 17.0938 84.9402 16.1151C88.0987 13.6188 93.1674 14.003 95.8986 16.9174C97.2702 18.3818 97.5382 20.8539 97.857 22.7509C98.8156 28.4733 99.7912 34.1933 100.723 39.9205C101.102 42.2501 101.317 44.6087 101.829 46.9165C102.411 49.5408 103.305 53.417 106.33 54.1855C107.168 54.3981 108.059 54.3522 108.89 54.125V54.1226Z" fill="url(#paint3_linear_8648_65000)"/>
<path d="M116.66 17.6629C116.771 17.4357 116.89 17.2207 117.022 17.0273C116.972 17.1119 116.919 17.1941 116.87 17.2811L116.66 17.6629Z" fill="url(#paint4_linear_8648_65000)"/>
<path d="M118.171 15.7246C117.973 15.8914 117.784 16.0702 117.61 16.2611C117.789 16.0581 117.98 15.8793 118.171 15.7246Z" fill="url(#paint5_linear_8648_65000)"/>
<path d="M118.166 15.724C118.48 15.4606 118.801 15.2552 119.115 15.0957C118.777 15.2697 118.461 15.4824 118.166 15.724Z" fill="url(#paint6_linear_8648_65000)"/>
<path d="M121.777 14.4847C121.729 14.4798 121.683 14.4798 121.63 14.4798C121.432 14.4798 121.236 14.4919 121.043 14.5113C121.487 14.4557 121.775 14.4798 121.775 14.4798L121.779 14.4847H121.777Z" fill="url(#paint7_linear_8648_65000)"/>
<path d="M172.977 54.1217C172.967 54.1555 172.902 54.3198 172.844 54.4769C172.786 54.6098 172.74 54.7331 172.73 54.7524C172.607 54.9699 172.469 55.1777 172.337 55.3879C172.288 55.4629 172.242 55.5402 172.199 55.6199C172.185 55.6441 172.17 55.6683 172.156 55.69C171.233 57.3188 169.434 58.73 167.746 59.4695C165.971 60.2404 163.955 60.4675 162.067 60.0277C158.64 59.2327 155.863 56.3111 155.247 52.8481L154.414 48.1504C154.414 48.1504 151.598 32.177 151.533 31.8024V31.7976C151.198 29.903 150.971 28.0857 150.113 26.3337C149.787 25.6668 149.398 25.0264 148.887 24.4923C148.3 23.8858 147.551 23.4314 146.706 23.3469C145.74 23.243 144.772 23.5499 143.91 23.9534C143.895 23.9631 143.876 23.9679 143.861 23.9776C143.941 23.864 144.018 23.7504 144.093 23.632C144.605 22.8418 145.04 22.0033 145.47 21.1599C145.697 20.7201 145.919 20.2803 146.155 19.8429C146.431 19.3354 146.723 18.8303 147.044 18.347C147.049 18.3325 147.059 18.3229 147.068 18.3084C147.616 17.4843 148.247 16.7255 149.022 16.1165C149.097 16.0561 149.174 15.9981 149.254 15.9401C149.273 15.9256 149.297 15.9063 149.319 15.8918C149.427 15.8169 149.536 15.7396 149.65 15.6743C149.703 15.6356 149.758 15.6042 149.816 15.5752C149.896 15.5269 149.973 15.4858 150.053 15.4423C150.077 15.4302 150.099 15.4182 150.123 15.4061C150.265 15.3287 150.41 15.2587 150.558 15.1934C150.596 15.1765 150.635 15.1572 150.673 15.1403C150.731 15.1161 150.787 15.0871 150.85 15.0653C150.874 15.0508 150.898 15.0412 150.92 15.0363C150.944 15.0218 150.973 15.0122 150.995 15.0073C151.024 14.9977 151.053 14.9832 151.079 14.9735C151.144 14.9493 151.202 14.9252 151.268 14.9083C151.367 14.8744 151.466 14.843 151.565 14.814C151.673 14.7754 151.787 14.7488 151.9 14.7198C151.975 14.7004 152.052 14.6859 152.132 14.6666C152.236 14.6376 152.34 14.6183 152.444 14.6062C152.547 14.5869 152.651 14.5675 152.755 14.553C155.368 14.1736 158.179 14.9977 159.975 16.9164C161.342 18.3808 161.613 20.8506 161.934 22.75C162.89 28.4748 163.866 34.1899 164.798 39.922C164.892 40.4899 164.974 41.0578 165.058 41.6305C165.058 41.645 165.058 41.6595 165.063 41.674C165.305 43.426 165.522 45.1877 165.906 46.9155C166.488 49.5447 167.381 53.4185 170.407 54.1845C171.245 54.3972 172.139 54.3512 172.967 54.1241L172.977 54.1217Z" fill="url(#paint8_linear_8648_65000)"/>
<path d="M180.756 17.6629C180.867 17.4357 180.985 17.2207 181.118 17.0273C181.067 17.1119 181.014 17.1941 180.966 17.2811L180.756 17.6629Z" fill="url(#paint9_linear_8648_65000)"/>
<path d="M182.255 15.7246C182.057 15.8914 181.868 16.0702 181.694 16.2611C181.873 16.0581 182.064 15.8793 182.255 15.7246Z" fill="url(#paint10_linear_8648_65000)"/>
<path d="M182.25 15.724C182.564 15.4606 182.885 15.2552 183.199 15.0957C182.861 15.2697 182.545 15.4824 182.25 15.724Z" fill="url(#paint11_linear_8648_65000)"/>
<path d="M185.861 14.4844C185.813 14.4796 185.767 14.4796 185.714 14.4796C185.516 14.4796 185.32 14.4917 185.127 14.511C185.571 14.4554 185.859 14.4796 185.859 14.4796L185.863 14.4844H185.861Z" fill="url(#paint12_linear_8648_65000)"/>
<path d="M138.747 54.9293C137.998 56.0844 137.233 57.1888 136.163 58.0394C136.03 58.1433 135.888 58.2424 135.748 58.3366C135.729 58.356 135.704 58.3705 135.683 58.385C135.564 58.4599 135.446 58.5372 135.328 58.6073C134.693 58.9915 134.007 59.2839 133.302 59.5014C132.459 59.7479 131.585 59.8808 130.703 59.8808C129.337 59.8808 128.025 59.5788 126.857 59.0229H126.852C126.62 58.9094 126.388 58.791 126.166 58.6581C125.944 58.5251 125.726 58.3874 125.514 58.2424C125.306 58.095 125.103 57.9403 124.903 57.7688C124.804 57.6842 124.705 57.5972 124.611 57.5174C124.043 56.9882 123.541 56.401 123.116 55.7461C122.623 54.9801 122.239 54.1318 121.996 53.2184C121.926 52.9574 121.863 52.6964 121.817 52.4233L120.979 47.6966V47.6917L118.883 35.783V35.7781L117.294 26.791C116.541 22.8737 113.438 23.5286 113.438 23.5286V23.5238L116.545 17.8932L116.881 17.2818C117.137 16.8227 117.448 16.4094 117.813 16.0542C117.861 16.001 117.907 15.96 117.956 15.9116C118.946 14.9257 120.283 14.2877 121.793 14.2128C121.802 14.2128 121.812 14.208 121.822 14.2128C121.921 14.2031 122.01 14.2031 122.107 14.2031C123.556 14.2031 124.888 14.7251 125.929 15.6096C126.057 15.7183 126.18 15.8319 126.299 15.9551C126.782 16.4384 127.178 17.0015 127.467 17.637C127.506 17.7168 127.542 17.799 127.571 17.8787C127.67 18.1252 127.75 18.3765 127.818 18.6278C127.861 18.8067 127.897 18.9782 127.926 19.1571C129.066 26.1409 131.906 43.2477 132.191 44.8281C132.599 47.1673 133.099 49.5017 134.113 51.563C134.98 53.3247 136.668 54.9825 138.754 54.9293H138.747Z" fill="url(#paint13_linear_8648_65000)"/>
<path d="M214.737 10.4043L213.109 18.5916L195.228 22.301L197.014 13.802L214.737 10.4043Z" fill="#080447"/>
<defs>
<linearGradient id="paint0_linear_8648_65000" x1="28.9072" y1="61.0576" x2="156.901" y2="0.903722" gradientUnits="userSpaceOnUse">
<stop offset="0.04" stop-color="#FFA74E"/>
<stop offset="0.22" stop-color="#FE8358"/>
<stop offset="0.35" stop-color="#FEAF4B"/>
<stop offset="0.4" stop-color="#FFC446"/>
<stop offset="0.6" stop-color="#FE9753"/>
<stop offset="0.68" stop-color="#FFC446"/>
<stop offset="0.8" stop-color="#FFC047"/>
<stop offset="0.95" stop-color="#FFA54F"/>
</linearGradient>
<linearGradient id="paint1_linear_8648_65000" x1="101.904" y1="57.119" x2="187.674" y2="16.8104" gradientUnits="userSpaceOnUse">
<stop offset="0.04" stop-color="#FFA74E"/>
<stop offset="0.22" stop-color="#FE8358"/>
<stop offset="0.35" stop-color="#FEAF4B"/>
<stop offset="0.4" stop-color="#FFC446"/>
<stop offset="0.6" stop-color="#FE9753"/>
<stop offset="0.68" stop-color="#FFC446"/>
<stop offset="0.8" stop-color="#FFC047"/>
<stop offset="0.95" stop-color="#FFA54F"/>
</linearGradient>
<linearGradient id="paint2_linear_8648_65000" x1="55.838" y1="13.4506" x2="66.9877" y2="56.5144" gradientUnits="userSpaceOnUse">
<stop stop-color="#10D9F0"/>
<stop offset="1" stop-color="#6E47FF"/>
</linearGradient>
<linearGradient id="paint3_linear_8648_65000" x1="100.134" y1="66.1039" x2="89.3129" y2="15.7099" gradientUnits="userSpaceOnUse">
<stop stop-color="#10D9F0"/>
<stop offset="1" stop-color="#6E47FF"/>
</linearGradient>
<linearGradient id="paint4_linear_8648_65000" x1="116.66" y1="17.3463" x2="117.022" y2="17.3463" gradientUnits="userSpaceOnUse">
<stop stop-color="#FE8358"/>
<stop offset="1" stop-color="#FFC446"/>
</linearGradient>
<linearGradient id="paint5_linear_8648_65000" x1="117.61" y1="15.9928" x2="118.171" y2="15.9928" gradientUnits="userSpaceOnUse">
<stop stop-color="#FE8358"/>
<stop offset="1" stop-color="#FFC446"/>
</linearGradient>
<linearGradient id="paint6_linear_8648_65000" x1="118.166" y1="15.4099" x2="119.115" y2="15.4099" gradientUnits="userSpaceOnUse">
<stop stop-color="#FE8358"/>
<stop offset="1" stop-color="#FFC446"/>
</linearGradient>
<linearGradient id="paint7_linear_8648_65000" x1="121.043" y1="14.4943" x2="121.777" y2="14.4943" gradientUnits="userSpaceOnUse">
<stop stop-color="#FE8358"/>
<stop offset="1" stop-color="#FFC446"/>
</linearGradient>
<linearGradient id="paint8_linear_8648_65000" x1="165.783" y1="71.139" x2="150.002" y2="2.46075" gradientUnits="userSpaceOnUse">
<stop stop-color="#10D9F0"/>
<stop offset="1" stop-color="#6E47FF"/>
</linearGradient>
<linearGradient id="paint9_linear_8648_65000" x1="180.756" y1="-0.00209181" x2="181.118" y2="-0.00209181" gradientUnits="userSpaceOnUse">
<stop stop-color="#FE8358"/>
<stop offset="1" stop-color="#FFC446"/>
</linearGradient>
<linearGradient id="paint10_linear_8648_65000" x1="181.694" y1="15.9928" x2="182.255" y2="15.9928" gradientUnits="userSpaceOnUse">
<stop stop-color="#FE8358"/>
<stop offset="1" stop-color="#FFC446"/>
</linearGradient>
<linearGradient id="paint11_linear_8648_65000" x1="182.25" y1="15.4099" x2="183.199" y2="15.4099" gradientUnits="userSpaceOnUse">
<stop stop-color="#FE8358"/>
<stop offset="1" stop-color="#FFC446"/>
</linearGradient>
<linearGradient id="paint12_linear_8648_65000" x1="185.127" y1="14.4941" x2="185.861" y2="14.4941" gradientUnits="userSpaceOnUse">
<stop stop-color="#FE8358"/>
<stop offset="1" stop-color="#FFC446"/>
</linearGradient>
<linearGradient id="paint13_linear_8648_65000" x1="121.583" y1="14.2007" x2="129.872" y2="60.176" gradientUnits="userSpaceOnUse">
<stop stop-color="#10D9F0"/>
<stop offset="1" stop-color="#6E47FF"/>
</linearGradient>
</defs>
</svg>
