<svg version="1.1" id="Layer_1" xmlns="http://www.w3.org/2000/svg" xmlns:xlink="http://www.w3.org/1999/xlink" x="0px" y="0px"
	 width="100%" viewBox="0 0 1600 899" enable-background="new 0 0 1600 899" xml:space="preserve">
<path fill="#050424" opacity="1.000000" stroke="none" 
	d="
M1519.000000,900.000000 
	C1012.666687,900.000000 506.833344,900.000000 1.000000,900.000000 
	C1.000000,600.333313 1.000000,300.666656 1.000000,1.000000 
	C534.333313,1.000000 1067.666626,1.000000 1601.000000,1.000000 
	C1601.000000,300.666656 1601.000000,600.333313 1601.000000,900.000000 
	C1573.833374,900.000000 1546.666626,900.000000 1519.000000,900.000000 
M562.082214,387.232574 
	C561.746948,387.105865 561.411743,386.979187 561.044006,386.967957 
	C561.044006,386.967957 561.123535,386.878143 560.839722,386.334473 
	C559.909729,385.975037 558.979736,385.615601 557.311096,385.002625 
	C549.144104,383.640015 544.053528,386.000977 540.205872,393.150116 
	C537.523499,399.271271 539.961609,405.123047 541.020935,411.855774 
	C541.754761,415.599182 542.488586,419.342590 543.151794,423.677338 
	C543.351379,424.000885 543.550964,424.324463 543.543457,425.113678 
	C543.669861,425.423798 543.796204,425.733917 543.820007,426.899689 
	C545.561218,436.267334 547.302429,445.635010 548.914551,455.771545 
	C549.236023,457.003662 549.557434,458.235748 549.765442,459.753601 
	C549.765442,459.753601 549.969482,459.983521 549.896301,460.850006 
	C550.893066,466.026520 551.889771,471.203064 552.763916,477.159576 
	C553.972107,487.358795 561.650940,495.344360 571.624329,496.773438 
	C580.766907,498.083466 590.204773,493.185028 594.387756,484.798645 
	C598.195862,477.846375 602.003967,470.894104 606.250366,463.399200 
	C612.813477,451.734680 619.376587,440.070160 626.499268,428.894714 
	C626.729126,429.597870 626.958923,430.301056 627.058899,431.669861 
	C627.131592,432.112488 627.204285,432.555145 627.188538,433.790894 
	C627.882751,437.161804 628.576965,440.532715 629.229858,444.842072 
	C629.478149,445.742279 629.726440,446.642517 629.801453,447.498962 
	C629.801453,447.498962 629.994080,447.706573 629.938538,448.534119 
	C630.345886,450.678711 630.753235,452.823334 631.079773,455.780609 
	C632.655762,463.721771 634.231750,471.662964 635.769531,480.334351 
	C638.019043,489.992981 645.699646,496.733856 655.655396,497.787018 
	C664.895081,498.764435 674.857971,492.457092 679.340637,482.546173 
	C687.533630,468.020233 695.726624,453.494293 704.225952,439.553650 
	C704.533142,440.376282 704.840332,441.198914 705.049194,442.854889 
	C706.041565,447.905823 707.033936,452.956726 707.921265,458.857452 
	C709.386414,466.547455 710.851501,474.237427 712.448486,482.594238 
	C716.442627,491.662292 723.365112,496.823853 733.285461,496.800781 
	C741.953918,496.780640 748.960205,493.174622 753.250610,484.205353 
	C758.882080,473.927185 764.513611,463.649017 770.636292,453.079285 
	C770.731079,452.719299 770.825806,452.359314 771.341858,451.652893 
	C771.410339,451.484497 771.478882,451.316071 771.982178,450.677887 
	C776.247009,443.137146 780.511841,435.596405 784.982605,428.857147 
	C785.771179,432.878387 786.559753,436.899628 787.309875,441.721313 
	C788.235779,447.084229 789.069031,452.465179 790.108826,457.805908 
	C791.742371,466.196136 793.515076,474.559235 795.225525,483.635956 
	C799.102356,492.295258 805.826172,497.535065 815.222534,497.671051 
	C824.569641,497.806274 832.173645,493.637787 837.125854,484.288727 
	C837.213074,484.042786 837.300232,483.796814 837.642883,483.009460 
	C843.394348,472.160706 849.150879,461.314636 854.895874,450.462463 
	C862.118103,436.819641 869.393494,423.204376 876.517578,409.510406 
	C879.429077,403.913849 878.598511,397.943390 874.730164,393.720398 
	C871.053833,389.706970 864.693665,387.893494 859.739563,390.536621 
	C856.724854,392.145020 853.839172,394.997284 852.190125,398.001434 
	C841.171692,418.074341 830.501770,438.338531 819.280457,457.814423 
	C818.133545,451.203003 816.986633,444.591583 815.966675,437.236176 
	C815.686035,436.300079 815.405334,435.364014 815.317383,434.279999 
	C815.317383,434.279999 815.220032,434.057434 815.265564,433.170197 
	C814.500732,429.104431 813.735840,425.038635 813.093811,420.118164 
	C812.010193,413.395630 810.917053,406.674652 809.845459,399.950195 
	C808.588013,392.059204 804.212830,386.873138 796.370789,385.108185 
	C787.707642,383.158325 779.960571,384.978333 774.712524,392.577118 
	C771.623474,397.049774 769.444824,402.151184 766.355713,407.402496 
	C762.930786,413.609467 759.505798,419.816437 755.579773,426.496796 
	C749.478821,437.285828 743.377869,448.074860 736.981628,458.140808 
	C736.364014,455.661255 735.746399,453.181671 735.141968,449.864166 
	C734.428040,445.909973 733.714111,441.955780 733.078247,437.081207 
	C732.754089,435.600159 732.429932,434.119141 732.307251,432.451508 
	C732.326111,432.230927 732.228394,432.092102 732.130371,431.180664 
	C731.153381,425.684753 730.176392,420.188843 729.265991,414.006500 
	C729.127625,413.333038 728.989197,412.659546 728.936646,411.498047 
	C728.936646,411.498047 728.740234,411.043121 728.785217,410.140320 
	C728.536743,409.279144 728.288208,408.417969 728.250732,407.474884 
	C728.250732,407.474884 727.995178,407.163757 728.078308,406.300537 
	C727.098145,401.751495 726.117920,397.202423 724.877380,392.021973 
	C719.694092,381.625427 705.729553,380.814911 699.384766,390.670532 
	C697.063416,394.276367 695.296387,398.239044 692.951721,402.437042 
	C692.939270,402.607819 692.926819,402.778595 692.995544,402.993561 
	C692.995544,402.993561 692.932739,402.925720 692.410034,403.268311 
	C691.905579,404.393768 691.401123,405.519226 690.326416,407.077057 
	C688.041077,411.210144 685.784973,415.359650 683.465088,419.473267 
	C676.017883,432.679108 668.547058,445.871674 660.911621,458.277374 
	C660.531555,456.169861 660.151489,454.062347 659.829163,451.359619 
	C659.599854,451.048553 659.370544,450.737488 659.332458,449.942627 
	C659.213074,449.624329 659.093689,449.306061 659.076294,448.131287 
	C658.328003,443.730011 657.579712,439.328766 656.927429,434.101227 
	C654.970154,423.405548 653.012817,412.709869 651.333557,401.447845 
	C650.743652,393.270447 646.633972,387.652679 638.784973,385.289124 
	C629.825500,382.591156 621.053223,385.290619 616.135071,392.478577 
	C613.065430,396.964966 610.841675,402.030121 607.852722,407.442200 
	C601.951172,417.976074 596.049622,428.509949 589.706055,439.568085 
	C585.803833,445.992432 581.901611,452.416809 577.962158,458.505615 
	C577.962158,458.505615 577.791687,458.211456 577.909607,457.404510 
	C577.520020,455.290405 577.130432,453.176331 576.878784,450.501160 
	C576.715942,449.972198 576.553162,449.443207 576.336304,448.103271 
	C576.089600,446.783325 575.842896,445.463348 575.667969,443.325562 
	C574.215393,435.043854 572.762817,426.762115 571.374146,417.768585 
	C570.827271,414.496857 570.280396,411.225098 569.737610,407.166718 
	C569.502991,405.557648 569.512207,403.863800 568.987915,402.355438 
	C567.434814,397.888062 565.671326,393.493805 563.990845,389.005341 
	C563.990845,389.005341 563.925415,389.008972 563.736267,388.455780 
	C563.234680,388.184204 562.733032,387.912659 562.184937,387.757935 
	C562.184937,387.757935 562.308777,387.736053 562.082214,387.232574 
M1031.555054,494.058746 
	C1062.044922,481.885162 1074.969482,449.879059 1069.609985,421.562347 
	C1064.101318,392.459076 1036.112915,376.233002 1007.499207,384.892700 
	C1000.731323,386.940918 994.459473,390.628418 988.044739,393.523315 
	C988.550842,390.951508 989.147583,387.919250 989.830872,384.447083 
	C980.042297,384.447083 970.580872,384.351349 961.127747,384.587646 
	C960.126404,384.612640 958.559448,386.453217 958.295105,387.676361 
	C956.055908,398.035461 954.056519,408.446442 951.988708,418.842529 
	C945.781921,450.047974 939.572266,481.252838 933.373901,512.459961 
	C931.772278,520.523499 930.207642,528.594299 928.526611,537.168762 
	C938.993042,537.168762 948.796509,537.279724 958.590149,537.019897 
	C959.736755,536.989502 961.545349,535.070923 961.830933,533.762329 
	C963.773804,524.860291 965.355164,515.880127 967.123352,506.939087 
	C968.702698,498.953247 970.371948,490.985138 972.185547,482.108765 
	C978.047607,490.154999 985.042847,494.853302 993.567322,496.687439 
	C1006.132263,499.390930 1018.656128,499.130798 1031.555054,494.058746 
M1105.669189,456.412018 
	C1105.232300,454.195282 1104.795410,451.978546 1104.252197,449.222107 
	C1133.308838,449.222107 1161.728882,449.222107 1191.025757,449.222107 
	C1191.369873,441.906677 1192.220703,434.968048 1191.911377,428.081482 
	C1191.267700,413.751740 1185.698120,401.560211 1173.771973,393.084900 
	C1158.072144,381.927643 1140.484131,380.984985 1122.273193,384.614288 
	C1094.889282,390.071716 1072.971436,413.639130 1072.492554,447.141571 
	C1072.174438,469.388123 1083.703735,486.827972 1104.655029,494.206757 
	C1121.714966,500.214996 1139.032471,499.886658 1156.041870,494.271606 
	C1163.393311,491.844696 1170.191895,487.742523 1177.536621,484.261536 
	C1172.309082,476.013824 1167.901367,469.059570 1163.366211,461.904388 
	C1152.740234,470.400909 1140.826294,473.166290 1127.962891,472.012390 
	C1118.024780,471.120880 1109.504883,467.727295 1105.669189,456.412018 
M449.360687,498.017151 
	C458.151947,497.643585 467.036743,497.940979 475.711609,496.732147 
	C487.419159,495.100800 498.189514,490.698700 506.263550,481.475952 
	C521.528564,464.039246 515.571472,441.223358 493.802155,433.613251 
	C490.987946,432.629456 488.106812,431.797119 485.205688,431.109589 
	C477.474335,429.277313 469.568726,428.012787 462.043182,425.566406 
	C459.254608,424.659882 456.015533,421.416412 455.326050,418.653687 
	C454.308258,414.575500 457.767609,411.237885 461.577301,410.266022 
	C467.294952,408.807465 473.274353,407.725281 479.151337,407.681671 
	C489.991028,407.601257 500.363403,410.232391 509.989441,416.007538 
	C513.983459,407.891602 517.767761,400.201843 521.668701,392.275024 
	C520.189392,391.481689 518.945740,390.654053 517.588379,390.110748 
	C495.160370,381.134430 472.421478,379.993103 449.515930,387.987610 
	C441.040588,390.945679 433.745209,395.929016 428.946777,403.782288 
	C420.219238,418.066010 420.476440,440.466278 443.384155,447.953033 
	C446.840790,449.082764 450.339783,450.121185 453.876770,450.958801 
	C461.286926,452.713776 468.791870,454.095978 476.142609,456.062225 
	C479.430878,456.941833 482.945404,458.389587 483.097260,462.811310 
	C483.261353,467.589233 480.294281,470.326599 476.255341,471.456268 
	C471.820404,472.696777 467.149506,473.638428 462.566833,473.704803 
	C448.287598,473.911591 434.749176,470.683716 422.202667,463.190369 
	C417.956451,471.209656 413.882019,478.904449 409.684753,486.831299 
	C421.889984,494.252441 434.924042,496.943024 449.360687,498.017151 
M940.953918,376.309967 
	C940.002502,375.857941 938.955200,374.879517 938.114014,375.032684 
	C925.245850,377.376648 912.396667,379.828796 899.572571,382.402618 
	C898.581970,382.601501 897.253479,383.765533 897.029358,384.706604 
	C895.547607,390.927551 894.325134,397.210266 892.957642,403.763123 
	C896.519592,403.109344 899.634216,402.537659 903.280396,401.868378 
	C896.945557,433.751770 890.728638,465.041351 884.449890,496.642212 
	C895.583740,496.642212 906.174438,496.642212 916.796021,496.642212 
	C924.820496,456.720276 932.814697,416.948517 940.953918,376.309967 
M920.874817,364.215485 
	C926.041138,363.100891 931.204285,361.971069 936.374756,360.876007 
	C941.582214,359.773041 943.821045,357.332428 942.929871,353.319550 
	C941.841858,348.420013 938.011841,348.395386 934.288147,349.165985 
	C923.600891,351.377655 912.954956,353.791565 902.309387,356.199768 
	C898.411865,357.081482 895.950134,359.364319 896.942078,363.644348 
	C897.951172,367.997986 901.209412,368.668365 905.078430,367.797699 
	C910.072449,366.673828 915.066956,365.551788 920.874817,364.215485 
M625.037170,530.807922 
	C625.012268,527.689026 625.169250,524.197937 629.238342,524.291931 
	C633.245850,524.384521 632.584961,528.075989 632.707886,530.779846 
	C632.822510,533.301819 632.732361,535.833069 632.732361,538.360291 
	C633.321289,538.471497 633.910278,538.582764 634.499207,538.694031 
	C634.938293,537.760071 635.674133,536.851746 635.757141,535.887085 
	C635.955994,533.578796 635.355347,531.091492 636.013489,528.966370 
	C636.575317,527.152588 638.440735,525.742432 639.729492,524.153748 
	C640.837646,525.722778 642.510132,527.159485 642.916321,528.893005 
	C643.469604,531.254333 642.881226,533.861694 643.156067,536.321777 
	C643.248291,537.147461 644.483826,537.845459 645.906189,539.354248 
	C646.049438,537.270020 646.129089,536.624390 646.132080,535.978333 
	C646.144531,533.321777 646.217407,530.661804 646.114136,528.009094 
	C645.891968,522.305908 641.794861,519.780090 636.646179,522.112244 
	C635.909729,522.445801 634.699463,523.306519 634.557861,523.150818 
	C630.703003,518.912231 626.270935,523.393677 621.935730,521.846985 
	C621.935730,525.394348 621.714294,528.548584 622.009399,531.653687 
	C622.225464,533.927185 623.119995,536.136169 623.712097,538.373901 
	C624.153564,536.144836 624.595032,533.915710 625.037170,530.807922 
M566.098511,522.147339 
	C565.311951,522.624939 563.850586,523.088379 563.840210,523.582214 
	C563.691589,530.655701 563.738770,537.733215 563.738770,544.809814 
	C564.408264,544.898865 565.077759,544.987915 565.747314,545.076965 
	C566.263916,542.537170 566.780579,539.997314 567.320007,537.345215 
	C567.774292,537.555237 568.348877,537.840515 568.938477,538.090393 
	C573.962402,540.219604 579.061279,538.152771 580.683472,533.335449 
	C582.406128,528.219788 579.783447,522.552551 574.601624,521.523376 
	C572.158447,521.038208 569.393433,522.174072 566.098511,522.147339 
M821.797852,538.299866 
	C821.797852,540.421936 821.797852,542.544006 821.797852,544.841919 
	C822.795715,544.841919 823.950073,544.952942 823.976990,544.825500 
	C824.496826,542.367249 824.884521,539.881104 825.326111,537.241760 
	C826.387573,537.781677 827.354736,538.524536 828.436646,538.778503 
	C832.181091,539.657410 836.051575,538.908569 837.369934,535.317749 
	C838.491394,532.263184 838.782043,527.910583 837.364807,525.229248 
	C836.218567,523.060547 832.080383,522.005554 829.083740,521.439453 
	C826.919617,521.030579 824.450684,522.234924 821.800293,522.785767 
	C821.800293,527.408081 821.800293,532.377930 821.797852,538.299866 
M456.057953,515.464966 
	C454.916626,515.829773 453.034912,515.895874 452.748596,516.605652 
	C449.895721,523.677124 447.306122,530.854675 444.642181,538.002319 
	C444.993347,538.437012 445.344543,538.871643 445.695740,539.306335 
	C449.222870,534.202454 453.462860,531.116089 459.230408,533.387390 
	C460.754150,535.250183 462.234894,537.060303 463.715637,538.870483 
	C464.186218,538.530334 464.656799,538.190125 465.127380,537.849976 
	C462.314972,530.516724 459.502563,523.183411 456.057953,515.464966 
M849.827820,534.300598 
	C853.514771,542.485718 860.433167,536.883362 865.898804,538.187378 
	C865.898804,532.715820 865.898804,527.399536 865.898804,522.082214 
	C861.577881,522.082214 857.244568,521.089233 853.681335,522.322144 
	C848.719604,524.038879 848.250427,528.845398 849.827820,534.300598 
M904.049133,529.556946 
	C902.676025,523.741699 899.692078,520.672913 895.361084,521.095642 
	C891.182190,521.503662 888.251404,523.746826 887.242371,528.005615 
	C886.238403,532.243103 888.320435,536.717407 892.268738,538.305603 
	C896.474487,539.997375 900.141174,539.222229 902.663696,534.899719 
	C900.418884,534.855835 898.376343,535.775146 896.266602,535.970886 
	C893.446838,536.232483 891.135742,535.245422 890.826843,531.844238 
	C895.372314,531.341736 899.687195,530.864746 904.049133,529.556946 
M648.921875,529.606384 
	C648.823181,533.908325 650.701538,537.127869 654.729126,538.536316 
	C658.629944,539.900391 662.254150,539.154846 664.642761,534.837158 
	C662.377197,534.870361 660.285767,535.777771 658.130371,535.970520 
	C655.299011,536.223694 653.076721,535.132690 652.708374,531.200562 
	C657.242371,531.200562 661.476501,531.200562 665.688904,531.200562 
	C665.575073,525.323303 663.196228,521.975342 658.908264,521.136963 
	C654.651855,520.304810 650.977051,523.130737 648.921875,529.606384 
M804.618469,521.613708 
	C799.488647,520.698120 795.401550,522.591858 794.020142,526.524353 
	C792.324402,531.351624 794.272461,536.303406 798.653503,538.302307 
	C802.855347,540.219482 806.402405,539.121277 809.351135,534.519470 
	C805.119751,533.993774 799.337036,539.581909 796.916077,531.257874 
	C801.617859,531.257874 805.844238,531.257874 810.337830,531.257874 
	C810.403076,526.763367 809.183533,523.632385 804.618469,521.613708 
M601.099121,528.563660 
	C601.099121,526.438721 601.099121,524.313782 601.099121,522.715210 
	C598.561340,522.320435 596.422546,522.295898 594.509827,521.625916 
	C590.568054,520.245239 587.595215,521.680664 585.330078,524.620605 
	C582.744263,527.976746 582.753235,531.779480 585.028076,535.314148 
	C587.129456,538.579224 590.342773,539.633545 594.125977,538.869019 
	C596.182190,538.453613 598.223267,537.962891 601.099243,537.321472 
	C601.099243,535.356750 601.099243,532.432983 601.099121,528.563660 
M540.796448,535.107056 
	C540.775208,522.685852 540.775208,522.685852 537.365234,522.298950 
	C537.365234,525.491150 537.879395,528.747131 537.166504,531.707764 
	C536.758606,533.401672 534.354614,534.614929 532.849304,536.044617 
	C531.563354,534.488464 529.645203,533.108948 529.148743,531.332153 
	C528.501892,529.017700 529.166504,526.366089 528.872864,523.906616 
	C528.778442,523.115662 527.437622,522.473389 525.851257,521.011292 
	C525.851257,525.286255 525.848755,528.106812 525.853149,530.927368 
	C525.854187,531.592224 525.613892,532.453491 525.936951,532.888550 
	C527.489319,534.979248 529.060730,538.474792 530.879028,538.637573 
	C534.116272,538.927368 538.396545,540.068359 540.796448,535.107056 
M506.246765,525.955261 
	C504.508331,530.239929 504.666840,534.593445 508.765289,536.977417 
	C511.220001,538.405334 515.545105,539.059631 517.758911,537.810242 
	C520.241943,536.408813 522.321838,532.599548 522.705322,529.598694 
	C523.188293,525.818909 520.460510,522.867676 516.542969,521.576843 
	C512.218994,520.152100 509.184021,522.057129 506.246765,525.955261 
M758.536499,537.138672 
	C761.982361,539.787415 765.989136,540.216858 768.921021,537.267334 
	C770.959106,535.216919 772.787781,531.322388 772.242920,528.780457 
	C771.646545,525.997925 768.558228,522.435669 765.916809,521.777283 
	C763.312744,521.128174 759.050232,522.883728 757.049377,525.020569 
	C753.732178,528.563232 754.594604,532.987732 758.536499,537.138672 
M732.319519,533.213745 
	C732.453979,531.397217 732.039307,529.256836 732.868835,527.850281 
	C733.803894,526.264648 735.904175,524.358582 737.413635,524.427673 
	C738.697144,524.486450 740.442749,526.988037 740.931213,528.707764 
	C741.543884,530.865295 740.927612,533.343079 741.155273,535.651794 
	C741.257324,536.686646 742.121399,537.646362 742.639587,538.640137 
	C743.292969,538.459106 743.946350,538.278076 744.599731,538.097046 
	C743.915649,533.154602 744.404419,527.609924 742.253296,523.420776 
	C739.506775,518.071838 734.015625,523.559021 730.245728,522.228271 
	C730.245728,527.823792 730.245728,533.151855 730.245728,538.479919 
	C730.801819,538.479309 731.357910,538.478699 731.914001,538.478088 
	C732.049438,537.008972 732.184814,535.539856 732.319519,533.213745 
M498.025330,531.417053 
	C497.355927,531.604492 496.149628,532.052063 496.095886,531.941223 
	C494.871948,529.414612 493.930664,526.740723 492.580597,524.290466 
	C491.981567,523.203186 490.604370,522.544739 489.580353,521.691650 
	C490.294983,526.347168 491.739410,530.039185 493.460541,533.597473 
	C495.183167,537.158752 496.553497,540.404297 491.515594,542.478760 
	C491.112183,542.644836 491.225250,544.065125 490.934265,545.984924 
	C501.408936,540.581421 500.097137,529.844604 504.301819,522.071899 
	C502.763306,522.464844 501.562622,523.224609 500.978241,524.314758 
	C499.894196,526.337097 499.170074,528.552429 498.025330,531.417053 
M790.579895,535.775940 
	C790.455505,532.629150 790.582520,529.446777 790.142944,526.344666 
	C789.595947,522.483887 786.113953,520.376221 782.528198,521.269714 
	C780.451538,521.787109 778.347717,522.195618 776.359497,522.630554 
	C776.359497,527.683044 776.359497,533.014526 776.359497,538.346008 
	C776.779663,538.455872 777.199829,538.565735 777.619995,538.675598 
	C778.044006,537.731140 778.754395,536.810364 778.834839,535.837524 
	C779.025879,533.526794 778.311218,530.951477 779.107849,528.935791 
	C779.858337,527.036743 782.074219,525.716797 783.645447,524.142029 
	C784.951782,525.757935 786.880981,527.195618 787.406982,529.034729 
	C788.066162,531.339172 787.493896,533.977417 787.631958,536.461609 
	C787.668457,537.118896 788.362000,537.739685 788.753906,538.377197 
	C789.360352,537.774414 789.966736,537.171570 790.579895,535.775940 
M606.375183,542.365967 
	C606.919250,543.183777 607.463379,544.001526 608.007446,544.819336 
	C609.389709,543.682312 611.390015,542.822815 612.046875,541.360046 
	C614.833923,535.153748 617.222351,528.768372 620.256714,521.200623 
	C613.546692,523.546570 615.314453,530.089966 611.825317,532.766785 
	C608.472412,529.692200 609.495056,523.631531 604.221191,522.227600 
	C605.485962,526.827332 607.083374,531.167603 609.154114,535.268921 
	C610.787354,538.503662 610.213684,540.587891 606.375183,542.365967 
M872.671570,523.032654 
	C869.169312,525.995728 868.224670,530.051392 870.240356,533.728088 
	C871.528931,536.078674 874.655151,538.054260 877.352600,538.837952 
	C880.628418,539.789429 883.618835,538.111267 885.655884,533.740906 
	C883.944519,534.023254 882.784363,533.870361 882.155884,534.377014 
	C879.222717,536.741516 876.384766,536.885254 873.857117,534.052002 
	C871.726562,531.663818 871.640320,528.829529 873.746094,526.376160 
	C876.191833,523.526794 878.990356,523.414551 882.025635,525.796936 
	C882.659912,526.294800 884.018982,525.869263 885.960938,525.869263 
	C881.732239,520.954834 877.901306,519.854980 872.671570,523.032654 
M672.030396,529.032898 
	C672.208923,525.839600 674.239197,523.577026 677.012085,524.399170 
	C678.718811,524.905212 680.196350,527.981567 680.735291,530.161438 
	C681.371765,532.735718 680.884766,535.587830 680.884766,538.319458 
	C681.429443,538.357178 681.974060,538.394836 682.518738,538.432495 
	C685.280396,534.676636 684.281250,529.991150 683.310852,526.097717 
	C681.085205,517.168091 674.005981,523.627930 669.292664,522.078979 
	C668.319519,534.924744 668.623779,537.146729 672.023132,538.381470 
	C672.023132,535.426392 672.023132,532.663574 672.030396,529.032898 
M709.105530,530.429016 
	C708.206604,530.022888 707.215088,529.746033 706.428284,529.183105 
	C704.874817,528.071777 701.987488,526.106506 702.178650,525.708801 
	C703.598633,522.754456 705.724976,523.821106 707.817627,525.327454 
	C708.174194,525.584167 709.220947,525.181335 709.725708,524.793091 
	C709.943176,524.625793 709.725342,523.292542 709.477966,523.215088 
	C707.234802,522.513123 704.814026,521.253662 702.705811,521.627441 
	C701.216492,521.891479 699.059753,524.492432 699.140808,525.941528 
	C699.238525,527.687500 701.138794,529.630493 702.725525,530.908875 
	C704.215088,532.108948 706.313110,532.553833 708.700745,533.567688 
	C705.753845,536.800598 703.599487,536.498413 701.169495,534.607666 
	C700.696960,534.239990 699.593140,534.683777 698.780518,534.753235 
	C698.953552,535.466858 698.892090,536.422791 699.338135,536.854248 
	C702.014526,539.443787 705.172974,539.963684 708.359497,538.030762 
	C711.238220,536.284546 711.916138,533.802246 709.105530,530.429016 
M690.036072,517.984009 
	C688.808411,519.861877 687.580811,521.739685 687.005859,522.619080 
	C687.838379,525.811218 688.588379,528.350769 689.141663,530.932434 
	C689.484558,532.532471 689.229675,534.303345 689.767944,535.810059 
	C690.962524,539.153687 694.231262,539.572021 696.612183,536.859497 
	C691.680969,534.926697 691.527588,534.485657 692.598511,525.690002 
	C694.142029,524.874878 695.546204,524.133362 696.950439,523.391785 
	C696.804810,523.024902 696.659180,522.657959 696.513489,522.291077 
	C695.131287,522.082642 693.749023,521.874207 693.480042,521.833618 
	C692.182434,519.878235 691.450317,518.774963 690.036072,517.984009 
M470.364807,521.687866 
	C470.230408,519.239380 470.095978,516.790894 469.901398,513.246521 
	C466.734314,517.628540 466.790253,535.532227 470.366486,538.474854 
	C470.366486,533.193726 470.366486,527.912598 470.364807,521.687866 
M843.554504,514.408997 
	C841.578552,519.081604 841.980957,535.910034 844.994385,539.358704 
	C845.134277,530.388245 846.364319,522.411926 843.554504,514.408997 
M550.541504,525.071777 
	C551.437500,524.327942 552.333496,523.584106 553.229492,522.840271 
	C552.971252,522.552246 552.712952,522.264221 552.454651,521.976135 
	C550.061768,522.106873 547.668884,522.237549 545.161743,522.374451 
	C545.161743,527.571960 545.161743,532.877991 545.161743,538.184082 
	C545.664856,538.332886 546.167969,538.481750 546.671082,538.630554 
	C547.062012,537.326355 547.521484,536.038147 547.829956,534.714722 
	C548.544800,531.648865 549.186462,528.565918 550.541504,525.071777 
M478.001129,523.564209 
	C477.249481,520.529480 479.632935,516.658325 474.859467,513.123535 
	C474.859467,521.901306 474.829376,529.322449 474.920807,536.742188 
	C474.927582,537.290649 475.808655,537.828369 476.283264,538.371094 
	C476.851624,537.752380 477.887177,537.151917 477.912140,536.511963 
	C478.067596,532.526123 477.996857,528.531494 478.001129,523.564209 
M722.003845,528.557434 
	C722.005676,531.038513 721.869446,533.531799 722.086121,535.993958 
	C722.159790,536.829834 723.124146,537.587280 723.681519,538.380493 
	C724.132385,537.662781 724.955444,536.954285 724.973694,536.225769 
	C725.091492,531.500977 725.034058,526.771851 725.034058,522.044128 
	C724.339722,521.949646 723.645386,521.855164 722.951050,521.760681 
	C722.633423,523.709412 722.315735,525.658142 722.003845,528.557434 
z"/>
<path fill="#FDFDFD" opacity="1.000000" stroke="none" 
	d="
M1031.182373,494.176941 
	C1018.656128,499.130798 1006.132263,499.390930 993.567322,496.687439 
	C985.042847,494.853302 978.047607,490.154999 972.185547,482.108765 
	C970.371948,490.985138 968.702698,498.953247 967.123352,506.939087 
	C965.355164,515.880127 963.773804,524.860291 961.830933,533.762329 
	C961.545349,535.070923 959.736755,536.989502 958.590149,537.019897 
	C948.796509,537.279724 938.993042,537.168762 928.526611,537.168762 
	C930.207642,528.594299 931.772278,520.523499 933.373901,512.459961 
	C939.572266,481.252838 945.781921,450.047974 951.988708,418.842529 
	C954.056519,408.446442 956.055908,398.035461 958.295105,387.676361 
	C958.559448,386.453217 960.126404,384.612640 961.127747,384.587646 
	C970.580872,384.351349 980.042297,384.447083 989.830872,384.447083 
	C989.147583,387.919250 988.550842,390.951508 988.044739,393.523315 
	C994.459473,390.628418 1000.731323,386.940918 1007.499207,384.892700 
	C1036.112915,376.233002 1064.101318,392.459076 1069.609985,421.562347 
	C1074.969482,449.879059 1062.044922,481.885162 1031.182373,494.176941 
M1036.303955,425.463501 
	C1033.985107,418.061005 1028.923828,413.334076 1021.661804,411.078156 
	C1006.297546,406.305237 989.809937,413.326294 983.377075,428.062225 
	C980.918518,433.694092 979.624451,440.142242 979.247375,446.306915 
	C978.582031,457.183685 984.005249,465.545471 992.699158,469.208466 
	C1004.476135,474.170410 1019.419067,471.088684 1027.911011,461.527649 
	C1036.940430,451.361481 1039.319946,439.369690 1036.303955,425.463501 
z"/>
<path fill="#FDFDFD" opacity="1.000000" stroke="none" 
	d="
M1105.790039,456.807373 
	C1109.504883,467.727295 1118.024780,471.120880 1127.962891,472.012390 
	C1140.826294,473.166290 1152.740234,470.400909 1163.366211,461.904388 
	C1167.901367,469.059570 1172.309082,476.013824 1177.536621,484.261536 
	C1170.191895,487.742523 1163.393311,491.844696 1156.041870,494.271606 
	C1139.032471,499.886658 1121.714966,500.214996 1104.655029,494.206757 
	C1083.703735,486.827972 1072.174438,469.388123 1072.492554,447.141571 
	C1072.971436,413.639130 1094.889282,390.071716 1122.273193,384.614288 
	C1140.484131,380.984985 1158.072144,381.927643 1173.771973,393.084900 
	C1185.698120,401.560211 1191.267700,413.751740 1191.911377,428.081482 
	C1192.220703,434.968048 1191.369873,441.906677 1191.025757,449.222107 
	C1161.728882,449.222107 1133.308838,449.222107 1104.252197,449.222107 
	C1104.795410,451.978546 1105.232300,454.195282 1105.790039,456.807373 
M1128.168823,408.296021 
	C1117.316406,411.713501 1110.436157,418.919128 1106.875000,429.906372 
	C1125.649780,429.906372 1143.756958,429.906372 1161.852173,429.906372 
	C1162.364136,418.845184 1155.430542,409.727081 1144.732666,408.196106 
	C1139.583130,407.459106 1134.236084,408.102356 1128.168823,408.296021 
z"/>
<path fill="#FDFDFD" opacity="1.000000" stroke="none" 
	d="
M448.897980,498.010193 
	C434.924042,496.943024 421.889984,494.252441 409.684753,486.831299 
	C413.882019,478.904449 417.956451,471.209656 422.202667,463.190369 
	C434.749176,470.683716 448.287598,473.911591 462.566833,473.704803 
	C467.149506,473.638428 471.820404,472.696777 476.255341,471.456268 
	C480.294281,470.326599 483.261353,467.589233 483.097260,462.811310 
	C482.945404,458.389587 479.430878,456.941833 476.142609,456.062225 
	C468.791870,454.095978 461.286926,452.713776 453.876770,450.958801 
	C450.339783,450.121185 446.840790,449.082764 443.384155,447.953033 
	C420.476440,440.466278 420.219238,418.066010 428.946777,403.782288 
	C433.745209,395.929016 441.040588,390.945679 449.515930,387.987610 
	C472.421478,379.993103 495.160370,381.134430 517.588379,390.110748 
	C518.945740,390.654053 520.189392,391.481689 521.668701,392.275024 
	C517.767761,400.201843 513.983459,407.891602 509.989441,416.007538 
	C500.363403,410.232391 489.991028,407.601257 479.151337,407.681671 
	C473.274353,407.725281 467.294952,408.807465 461.577301,410.266022 
	C457.767609,411.237885 454.308258,414.575500 455.326050,418.653687 
	C456.015533,421.416412 459.254608,424.659882 462.043182,425.566406 
	C469.568726,428.012787 477.474335,429.277313 485.205688,431.109589 
	C488.106812,431.797119 490.987946,432.629456 493.802155,433.613251 
	C515.571472,441.223358 521.528564,464.039246 506.263550,481.475952 
	C498.189514,490.698700 487.419159,495.100800 475.711609,496.732147 
	C467.036743,497.940979 458.151947,497.643585 448.897980,498.010193 
z"/>
<path fill="#FDFDFD" opacity="1.000000" stroke="none" 
	d="
M940.881470,376.743347 
	C932.814697,416.948517 924.820496,456.720276 916.796021,496.642212 
	C906.174438,496.642212 895.583740,496.642212 884.449890,496.642212 
	C890.728638,465.041351 896.945557,433.751770 903.280396,401.868378 
	C899.634216,402.537659 896.519592,403.109344 892.957642,403.763123 
	C894.325134,397.210266 895.547607,390.927551 897.029358,384.706604 
	C897.253479,383.765533 898.581970,382.601501 899.572571,382.402618 
	C912.396667,379.828796 925.245850,377.376648 938.114014,375.032684 
	C938.955200,374.879517 940.002502,375.857941 940.881470,376.743347 
z"/>
<path fill="#F9A652" opacity="1.000000" stroke="none" 
	d="
M819.718750,458.540649 
	C830.501770,438.338531 841.171692,418.074341 852.190125,398.001434 
	C853.839172,394.997284 856.724854,392.145020 859.739563,390.536621 
	C864.693665,387.893494 871.053833,389.706970 874.730164,393.720398 
	C878.598511,397.943390 879.429077,403.913849 876.517578,409.510406 
	C869.393494,423.204376 862.118103,436.819641 854.895874,450.462463 
	C849.150879,461.314636 843.394348,472.160706 837.333618,483.161713 
	C837.024414,483.313965 836.603760,483.418121 836.508911,483.393555 
	C836.414124,483.368988 836.261658,483.492035 836.053467,483.278351 
	C835.263489,483.109650 834.681702,483.154602 833.732544,483.079956 
	C832.597290,482.948608 831.829468,482.936859 830.948914,482.687805 
	C830.245422,482.288300 829.654602,482.126160 828.847168,481.686981 
	C827.559509,480.552063 826.488464,479.694183 825.320129,478.507202 
	C824.881531,477.889801 824.540283,477.601501 824.239258,477.227539 
	C824.279480,477.141876 824.206543,476.967255 824.166138,476.582275 
	C822.656677,470.311707 821.187683,464.426178 819.718750,458.540649 
z"/>
<path fill="#F9A652" opacity="1.000000" stroke="none" 
	d="
M661.085388,459.069366 
	C668.547058,445.871674 676.017883,432.679108 683.465088,419.473267 
	C685.784973,415.359650 688.041077,411.210144 691.011230,406.964417 
	C692.795105,406.896149 693.894104,406.940521 694.997070,406.997681 
	C695.000977,407.010468 695.026062,407.001160 695.083374,407.196106 
	C695.140625,407.391022 695.473694,407.617767 695.473694,407.617767 
	C695.473694,407.617767 695.854614,407.487274 696.027588,407.715088 
	C696.384705,407.992859 696.568787,408.042786 696.834961,408.374695 
	C697.252563,408.825562 697.588013,408.994446 697.928833,409.114014 
	C697.934204,409.064636 697.835510,409.075562 697.883423,409.374084 
	C698.244812,409.908478 698.558289,410.144348 698.858521,410.578308 
	C698.845337,410.776428 699.162964,411.014648 699.128906,411.376801 
	C699.781372,413.854340 700.467834,415.969727 701.046509,418.454468 
	C701.234009,420.050079 701.529297,421.276306 701.742432,422.617920 
	C701.660339,422.733246 701.803406,422.977600 701.728394,423.398499 
	C702.408813,428.869049 703.164246,433.918671 703.919678,438.968323 
	C695.726624,453.494293 687.533630,468.020233 678.702271,482.762390 
	C670.825684,483.525085 666.633911,479.718994 664.298157,473.305267 
	C663.175232,470.221893 662.115295,467.115570 661.118408,463.613525 
	C661.168518,461.828064 661.126953,460.448730 661.085388,459.069366 
z"/>
<path fill="#FBBC4D" opacity="1.000000" stroke="none" 
	d="
M590.148071,439.043823 
	C596.049622,428.509949 601.951172,417.976074 608.410156,407.194183 
	C614.426819,405.777466 618.859924,407.274139 622.122437,412.344299 
	C623.439148,417.937988 624.689392,423.171814 625.939697,428.405640 
	C619.376587,440.070160 612.813477,451.734680 605.801514,463.414734 
	C604.407410,461.993774 603.492859,460.535889 602.510925,459.124939 
	C600.019958,455.545593 597.343445,452.084229 595.038757,448.390045 
	C593.182983,445.415344 591.761963,442.169434 590.148071,439.043823 
z"/>
<path fill="#596AF6" opacity="1.000000" stroke="none" 
	d="
M766.856689,406.969818 
	C769.444824,402.151184 771.623474,397.049774 774.712524,392.577118 
	C779.960571,384.978333 787.707642,383.158325 796.370789,385.108185 
	C804.212830,386.873138 808.588013,392.059204 809.845459,399.950195 
	C810.917053,406.674652 812.010193,413.395630 812.778198,420.300934 
	C811.412537,418.021881 810.362549,415.560028 809.162903,412.747375 
	C807.263367,415.000122 805.929016,416.582581 804.200134,418.632935 
	C803.281616,416.588135 802.777283,415.465363 802.195618,414.170441 
	C798.723206,415.623535 795.435425,416.785004 792.354797,418.353485 
	C789.684204,419.713257 787.248352,421.534210 784.443848,422.894165 
	C783.804077,421.378784 783.467041,420.107880 783.048218,418.864471 
	C780.492310,411.276855 779.501770,405.203522 766.856689,406.969818 
z"/>
<path fill="#3B9AF1" opacity="1.000000" stroke="none" 
	d="
M819.499634,458.177551 
	C821.187683,464.426178 822.656677,470.311707 823.791382,476.537048 
	C821.722351,473.412781 819.987671,469.948730 818.250977,466.485626 
	C810.381531,467.871826 803.622864,475.624298 794.533081,470.315796 
	C794.775574,474.712708 795.002258,478.823273 795.228882,482.933838 
	C793.515076,474.559235 791.742371,466.196136 790.108826,457.805908 
	C789.069031,452.465179 788.235779,447.084229 787.524719,441.022766 
	C787.958496,438.735992 788.177429,437.147797 788.396423,435.559570 
	C788.754944,435.873627 789.113464,436.187714 789.472046,436.501770 
	C790.961060,435.720459 792.392395,434.780334 793.958496,434.210968 
	C795.092773,433.798584 796.404846,433.869415 797.639343,433.740173 
	C799.234192,433.573242 801.297913,434.004211 802.345947,433.163361 
	C807.060181,429.380890 811.182495,430.134094 815.220032,434.057434 
	C815.220032,434.057434 815.317383,434.279999 815.190308,434.738159 
	C815.322021,436.124298 815.580811,437.052246 815.839722,437.980194 
	C816.986633,444.591583 818.133545,451.203003 819.499634,458.177551 
z"/>
<path fill="#FBBC4D" opacity="1.000000" stroke="none" 
	d="
M770.145142,453.370880 
	C764.513611,463.649017 758.882080,473.927185 752.670288,484.298279 
	C745.886658,483.271484 742.966919,478.531158 740.225647,473.244507 
	C739.255127,468.204193 738.265991,463.534027 737.276855,458.863861 
	C743.377869,448.074860 749.478821,437.285828 756.188293,426.312256 
	C757.417480,426.619232 758.343384,426.982666 758.611633,427.622040 
	C761.276062,433.971832 763.620728,440.466461 766.547180,446.688995 
	C767.421387,448.547943 769.837708,449.681641 771.547485,451.147614 
	C771.478882,451.316071 771.410339,451.484497 770.915527,451.998657 
	C770.374573,452.686615 770.259888,453.028748 770.145142,453.370880 
z"/>
<path fill="#2AB3F0" opacity="1.000000" stroke="none" 
	d="
M661.026794,464.019653 
	C662.115295,467.115570 663.175232,470.221893 664.298157,473.305267 
	C666.633911,479.718994 670.825684,483.525085 678.478210,483.027344 
	C674.857971,492.457092 664.895081,498.764435 655.655396,497.787018 
	C645.699646,496.733856 638.019043,489.992981 635.844482,479.464111 
	C636.108826,474.504639 636.298279,470.415375 636.459351,466.939697 
	C639.517700,466.939697 641.362183,467.157928 643.137329,466.899902 
	C649.113770,466.031158 655.065552,464.993011 661.026794,464.019653 
z"/>
<path fill="#2AB3F0" opacity="1.000000" stroke="none" 
	d="
M795.227173,483.284912 
	C795.002258,478.823273 794.775574,474.712708 794.533081,470.315796 
	C803.622864,475.624298 810.381531,467.871826 818.250977,466.485626 
	C819.987671,469.948730 821.722351,473.412781 823.831787,476.922058 
	C824.206543,476.967255 824.279480,477.141876 824.299072,477.581909 
	C824.684875,478.293427 825.051147,478.564880 825.417419,478.836334 
	C826.488464,479.694183 827.559509,480.552063 828.957153,481.894104 
	C829.876343,482.560547 830.468933,482.742859 831.061584,482.925140 
	C831.829468,482.936859 832.597290,482.948608 833.947327,483.290039 
	C835.106873,483.577209 835.684265,483.534637 836.261658,483.492065 
	C836.261658,483.492035 836.414124,483.368988 836.371948,483.644318 
	C836.442871,484.254578 836.555847,484.589539 836.668884,484.924469 
	C832.173645,493.637787 824.569641,497.806274 815.222534,497.671051 
	C805.826172,497.535065 799.102356,492.295258 795.227173,483.284912 
z"/>
<path fill="#F9A652" opacity="1.000000" stroke="none" 
	d="
M771.764832,450.912750 
	C769.837708,449.681641 767.421387,448.547943 766.547180,446.688995 
	C763.620728,440.466461 761.276062,433.971832 758.611633,427.622040 
	C758.343384,426.982666 757.417480,426.619232 756.438843,426.075562 
	C759.505798,419.816437 762.930786,413.609467 766.606201,407.186157 
	C779.501770,405.203522 780.492310,411.276855 783.048218,418.864471 
	C783.467041,420.107880 783.804077,421.378784 784.400269,423.300598 
	C784.673279,425.328064 784.724915,426.691833 784.776611,428.055634 
	C780.511841,435.596405 776.247009,443.137146 771.764832,450.912750 
z"/>
<path fill="#596AF6" opacity="1.000000" stroke="none" 
	d="
M626.219482,428.650177 
	C624.689392,423.171814 623.439148,417.937988 622.424927,412.183105 
	C624.850952,410.116364 626.836609,407.855042 629.269714,407.159729 
	C636.436584,405.111755 643.780701,403.684448 651.055542,402.014221 
	C653.012817,412.709869 654.970154,423.405548 656.635376,434.286469 
	C654.985840,430.346527 653.136536,427.623352 648.441345,431.151215 
	C647.499939,431.858582 645.911499,431.654510 644.661926,432.012207 
	C641.622620,432.882172 638.607117,433.835205 635.311646,434.837036 
	C632.994019,433.743439 630.091431,432.373840 627.188782,431.004211 
	C626.958923,430.301056 626.729126,429.597870 626.219482,428.650177 
z"/>
<path fill="#4783F5" opacity="1.000000" stroke="none" 
	d="
M549.969482,459.983521 
	C549.969482,459.983521 549.765442,459.753601 549.855286,459.204346 
	C549.644653,457.437622 549.344177,456.220154 549.043701,455.002655 
	C547.302429,445.635010 545.561218,436.267334 544.152100,426.695251 
	C545.442322,429.227478 546.400330,431.964142 547.545593,435.235565 
	C552.851685,433.298859 557.595276,430.909332 562.616516,429.896729 
	C569.299561,428.549072 571.712891,424.799438 571.310303,418.480408 
	C572.762817,426.762115 574.215393,435.043854 575.449951,444.021912 
	C575.618103,446.116943 576.004272,447.515594 576.390381,448.914246 
	C576.553162,449.443207 576.715942,449.972198 576.593018,451.065369 
	C575.381287,452.747375 574.631470,454.592133 573.501160,454.865936 
	C565.701660,456.755157 557.822815,458.316650 549.969482,459.983521 
z"/>
<path fill="#6752F6" opacity="1.000000" stroke="none" 
	d="
M593.814880,485.256042 
	C590.204773,493.185028 580.766907,498.083466 571.624329,496.773438 
	C561.650940,495.344360 553.972107,487.358795 552.890869,476.364014 
	C556.757080,474.046051 560.374817,471.780212 564.259216,471.145081 
	C574.583069,469.457092 576.358887,468.357697 577.587524,460.878784 
	C578.265686,464.001343 578.681641,466.789490 579.178589,469.563141 
	C580.929993,479.339508 585.382690,484.097870 593.814880,485.256042 
z"/>
<path fill="#F9A652" opacity="1.000000" stroke="none" 
	d="
M594.101318,485.027344 
	C585.382690,484.097870 580.929993,479.339508 579.178589,469.563141 
	C578.681641,466.789490 578.265686,464.001343 577.684204,460.706238 
	C577.596069,459.875275 577.466125,459.660675 577.417664,459.422974 
	C577.779358,459.145142 577.889343,458.993164 577.999390,458.841156 
	C581.901611,452.416809 585.803833,445.992432 589.927063,439.305969 
	C591.761963,442.169434 593.182983,445.415344 595.038757,448.390045 
	C597.343445,452.084229 600.019958,455.545593 602.510925,459.124939 
	C603.492859,460.535889 604.407410,461.993774 605.582336,463.686035 
	C602.003967,470.894104 598.195862,477.846375 594.101318,485.027344 
z"/>
<path fill="#6752F6" opacity="1.000000" stroke="none" 
	d="
M651.194519,401.731018 
	C643.780701,403.684448 636.436584,405.111755 629.269714,407.159729 
	C626.836609,407.855042 624.850952,410.116364 622.358398,411.823242 
	C618.859924,407.274139 614.426819,405.777466 608.603027,406.890869 
	C610.841675,402.030121 613.065430,396.964966 616.135071,392.478577 
	C621.053223,385.290619 629.825500,382.591156 638.784973,385.289124 
	C646.633972,387.652679 650.743652,393.270447 651.194519,401.731018 
z"/>
<path fill="#1EC5EE" opacity="1.000000" stroke="none" 
	d="
M696.752869,408.092712 
	C696.568787,408.042786 696.384705,407.992859 695.916260,407.598450 
	C695.451355,407.118500 695.249390,407.034241 695.026062,407.001160 
	C695.026062,407.001160 695.000977,407.010468 694.798828,406.722443 
	C694.041992,405.264862 693.487366,404.095276 692.932739,402.925720 
	C692.932739,402.925720 692.995544,402.993561 693.123291,402.929626 
	C693.337158,402.790924 693.505737,402.699982 693.494751,402.644379 
	C693.453857,402.436310 693.354187,402.239807 693.276489,402.038940 
	C695.296387,398.239044 697.063416,394.276367 699.384766,390.670532 
	C705.729553,380.814911 719.694092,381.625427 724.963379,392.794006 
	C725.363403,396.520325 725.629639,399.480682 726.004639,402.427185 
	C726.385132,405.416473 725.344482,407.034698 722.168823,407.474854 
	C714.484314,408.540039 706.829651,409.820770 699.162964,411.014648 
	C699.162964,411.014648 698.845337,410.776428 698.797241,410.284424 
	C698.444580,409.553467 698.140015,409.314514 697.835510,409.075562 
	C697.835510,409.075562 697.934204,409.064636 697.823608,408.850281 
	C697.393005,408.454865 697.072937,408.273773 696.752869,408.092712 
z"/>
<path fill="#6752F6" opacity="1.000000" stroke="none" 
	d="
M740.207031,473.614624 
	C742.966919,478.531158 745.886658,483.271484 752.414795,484.591736 
	C748.960205,493.174622 741.953918,496.780640 733.285461,496.800781 
	C723.365112,496.823853 716.442627,491.662292 712.689209,482.097778 
	C720.542786,480.044678 728.187317,478.621063 735.743896,476.826996 
	C737.392883,476.435486 738.727600,474.720245 740.207031,473.614624 
z"/>
<path fill="#F9A652" opacity="1.000000" stroke="none" 
	d="
M920.468018,364.322266 
	C915.066956,365.551788 910.072449,366.673828 905.078430,367.797699 
	C901.209412,368.668365 897.951172,367.997986 896.942078,363.644348 
	C895.950134,359.364319 898.411865,357.081482 902.309387,356.199768 
	C912.954956,353.791565 923.600891,351.377655 934.288147,349.165985 
	C938.011841,348.395386 941.841858,348.420013 942.929871,353.319550 
	C943.821045,357.332428 941.582214,359.773041 936.374756,360.876007 
	C931.204285,361.971069 926.041138,363.100891 920.468018,364.322266 
z"/>
<path fill="#3B9AF1" opacity="1.000000" stroke="none" 
	d="
M704.072754,439.260986 
	C703.164246,433.918671 702.408813,428.869049 702.053223,423.595947 
	C704.902283,424.197998 707.326111,425.580292 709.807983,425.693878 
	C712.338440,425.809723 714.904175,424.321808 717.492859,424.163727 
	C723.765625,423.780670 729.088013,422.550751 729.199463,414.692932 
	C730.176392,420.188843 731.153381,425.684753 732.078003,431.709808 
	C732.025635,432.238953 732.105713,432.638123 732.105713,432.638123 
	C732.429932,434.119141 732.754089,435.600159 732.758667,437.761047 
	C731.146179,439.315277 729.964294,440.611176 728.539917,440.986328 
	C723.948364,442.195557 719.146667,442.699066 714.657715,444.177826 
	C710.784912,445.453583 707.942566,444.383789 705.147522,442.021545 
	C704.840332,441.198914 704.533142,440.376282 704.072754,439.260986 
z"/>
<path fill="#4783F5" opacity="1.000000" stroke="none" 
	d="
M705.098389,442.438232 
	C707.942566,444.383789 710.784912,445.453583 714.657715,444.177826 
	C719.146667,442.699066 723.948364,442.195557 728.539917,440.986328 
	C729.964294,440.611176 731.146179,439.315277 732.719604,438.221252 
	C733.714111,441.955780 734.428040,445.909973 735.096191,450.748291 
	C735.024231,453.283417 735.359619,455.054810 734.862244,456.548981 
	C734.431274,457.843658 733.215637,459.578125 732.072205,459.819946 
	C725.046936,461.306061 717.943787,462.423340 710.760254,463.681976 
	C709.850952,461.794800 708.938660,459.901215 708.026306,458.007660 
	C707.033936,452.956726 706.041565,447.905823 705.098389,442.438232 
z"/>
<path fill="#596AF6" opacity="1.000000" stroke="none" 
	d="
M707.973755,458.432556 
	C708.938660,459.901215 709.850952,461.794800 710.760254,463.681976 
	C717.943787,462.423340 725.046936,461.306061 732.072205,459.819946 
	C733.215637,459.578125 734.431274,457.843658 734.862244,456.548981 
	C735.359619,455.054810 735.024231,453.283417 735.089600,451.167236 
	C735.746399,453.181671 736.364014,455.661255 737.129272,458.502319 
	C738.265991,463.534027 739.255127,468.204193 740.225647,473.244507 
	C738.727600,474.720245 737.392883,476.435486 735.743896,476.826996 
	C728.187317,478.621063 720.542786,480.044678 712.623230,481.764343 
	C710.851501,474.237427 709.386414,466.547455 707.973755,458.432556 
z"/>
<path fill="#3B9AF1" opacity="1.000000" stroke="none" 
	d="
M661.118408,463.613525 
	C655.065552,464.993011 649.113770,466.031158 643.137329,466.899902 
	C641.362183,467.157928 639.517700,466.939697 636.459351,466.939697 
	C636.298279,470.415375 636.108826,474.504639 635.863586,479.098999 
	C634.231750,471.662964 632.655762,463.721771 631.350342,455.131683 
	C633.304382,450.819458 635.037476,447.403290 639.998413,450.614441 
	C640.572388,450.985931 641.847290,450.344971 642.773804,450.088867 
	C646.264832,449.123688 649.697815,447.764526 653.251221,447.286560 
	C655.050049,447.044525 657.059875,448.370636 658.974304,448.987762 
	C659.093689,449.306061 659.213074,449.624329 659.254822,450.473328 
	C659.375305,451.320923 659.573425,451.637848 659.771484,451.954803 
	C660.151489,454.062347 660.531555,456.169861 660.998535,458.673370 
	C661.126953,460.448730 661.168518,461.828064 661.118408,463.613525 
z"/>
<path fill="#4783F5" opacity="1.000000" stroke="none" 
	d="
M659.025269,448.559509 
	C657.059875,448.370636 655.050049,447.044525 653.251221,447.286560 
	C649.697815,447.764526 646.264832,449.123688 642.773804,450.088867 
	C641.847290,450.344971 640.572388,450.985931 639.998413,450.614441 
	C635.037476,447.403290 633.304382,450.819458 631.390747,454.725342 
	C630.753235,452.823334 630.345886,450.678711 629.956055,448.095245 
	C629.973633,447.656372 629.974731,447.542725 629.974731,447.542725 
	C629.726440,446.642517 629.478149,445.742279 629.462646,444.080933 
	C628.889221,439.879150 628.083130,436.438446 627.276978,432.997772 
	C627.204285,432.555145 627.131592,432.112488 627.123840,431.337036 
	C630.091431,432.373840 632.994019,433.743439 635.311646,434.837036 
	C638.607117,433.835205 641.622620,432.882172 644.661926,432.012207 
	C645.911499,431.654510 647.499939,431.858582 648.441345,431.151215 
	C653.136536,427.623352 654.985840,430.346527 656.587402,434.699585 
	C657.579712,439.328766 658.328003,443.730011 659.025269,448.559509 
z"/>
<path fill="#4783F5" opacity="1.000000" stroke="none" 
	d="
M784.879639,428.456390 
	C784.724915,426.691833 784.673279,425.328064 784.665161,423.557800 
	C787.248352,421.534210 789.684204,419.713257 792.354797,418.353485 
	C795.435425,416.785004 798.723206,415.623535 802.195618,414.170441 
	C802.777283,415.465363 803.281616,416.588135 804.200134,418.632935 
	C805.929016,416.582581 807.263367,415.000122 809.162903,412.747375 
	C810.362549,415.560028 811.412537,418.021881 812.716736,420.728271 
	C813.735840,425.038635 814.500732,429.104431 815.242798,433.613831 
	C811.182495,430.134094 807.060181,429.380890 802.345947,433.163361 
	C801.297913,434.004211 799.234192,433.573242 797.639343,433.740173 
	C796.404846,433.869415 795.092773,433.798584 793.958496,434.210968 
	C792.392395,434.780334 790.961060,435.720459 789.472046,436.501770 
	C789.113464,436.187714 788.754944,435.873627 788.396423,435.559570 
	C788.177429,437.147797 787.958496,438.735992 787.543945,440.622559 
	C786.559753,436.899628 785.771179,432.878387 784.879639,428.456390 
z"/>
<path fill="#3B9AF1" opacity="1.000000" stroke="none" 
	d="
M571.342224,418.124512 
	C571.712891,424.799438 569.299561,428.549072 562.616516,429.896729 
	C557.595276,430.909332 552.851685,433.298859 547.545593,435.235565 
	C546.400330,431.964142 545.442322,429.227478 544.203369,426.267426 
	C543.796204,425.733917 543.669861,425.423798 543.656128,424.590271 
	C543.586670,423.739899 543.404541,423.412964 543.222412,423.085999 
	C542.488586,419.342590 541.754761,415.599182 541.337646,411.677582 
	C543.509399,414.793762 545.158691,418.481842 550.076233,416.990448 
	C557.036438,414.879639 565.496826,415.996124 569.733521,407.953369 
	C570.280396,411.225098 570.827271,414.496857 571.342224,418.124512 
z"/>
<path fill="#2AB3F0" opacity="1.000000" stroke="none" 
	d="
M729.232727,414.349731 
	C729.088013,422.550751 723.765625,423.780670 717.492859,424.163727 
	C714.904175,424.321808 712.338440,425.809723 709.807983,425.693878 
	C707.326111,425.580292 704.902283,424.197998 702.128174,423.175049 
	C701.803406,422.977600 701.660339,422.733246 701.795532,422.217682 
	C701.671875,420.496460 701.413086,419.290771 701.154297,418.085114 
	C700.467834,415.969727 699.781372,413.854340 699.128906,411.376770 
	C706.829651,409.820770 714.484314,408.540039 722.168823,407.474854 
	C725.344482,407.034698 726.385132,405.416473 726.004639,402.427185 
	C725.629639,399.480682 725.363403,396.520325 725.093628,393.109711 
	C726.117920,397.202423 727.098145,401.751495 728.036255,406.797607 
	C727.994141,407.294647 728.039734,407.556793 728.039734,407.556793 
	C728.288208,408.417969 728.536743,409.279144 728.641724,410.694763 
	C728.374695,411.590546 728.492188,411.836151 728.850769,411.986084 
	C728.989197,412.659546 729.127625,413.333038 729.232727,414.349731 
z"/>
<path fill="#2AB3F0" opacity="1.000000" stroke="none" 
	d="
M569.735596,407.560059 
	C565.496826,415.996124 557.036438,414.879639 550.076233,416.990448 
	C545.158691,418.481842 543.509399,414.793762 541.400696,411.270081 
	C539.961609,405.123047 537.523499,399.271271 540.559937,393.325684 
	C540.731201,394.466370 540.562195,395.434357 540.363464,396.396179 
	C539.167053,402.185120 540.882324,404.053925 546.597656,402.966156 
	C549.157104,402.479034 551.656738,401.675537 554.181030,401.006348 
	C558.139832,399.956757 562.096619,398.899353 566.054260,397.845215 
	C565.568726,397.442230 565.083252,397.039215 564.597717,396.636200 
	C564.395203,394.114471 564.192688,391.592712 563.990173,389.070953 
	C565.671326,393.493805 567.434814,397.888062 568.987915,402.355438 
	C569.512207,403.863800 569.502991,405.557648 569.735596,407.560059 
z"/>
<path fill="#596AF6" opacity="1.000000" stroke="none" 
	d="
M577.165894,459.548859 
	C577.466125,459.660675 577.596069,459.875275 577.459167,460.365173 
	C576.358887,468.357697 574.583069,469.457092 564.259216,471.145081 
	C560.374817,471.780212 556.757080,474.046051 552.952148,475.973999 
	C551.889771,471.203064 550.893066,466.026520 549.932861,460.416748 
	C557.822815,458.316650 565.701660,456.755157 573.501160,454.865936 
	C574.631470,454.592133 575.381287,452.747375 576.524048,451.345886 
	C577.130432,453.176331 577.520020,455.290405 577.642944,457.963867 
	C577.306152,458.865082 577.236023,459.206970 577.165894,459.548859 
z"/>
<path fill="#1EC5EE" opacity="1.000000" stroke="none" 
	d="
M563.990479,389.038147 
	C564.192688,391.592712 564.395203,394.114471 564.597717,396.636200 
	C565.083252,397.039215 565.568726,397.442230 566.054260,397.845215 
	C562.096619,398.899353 558.139832,399.956757 554.181030,401.006348 
	C551.656738,401.675537 549.157104,402.479034 546.597656,402.966156 
	C540.882324,404.053925 539.167053,402.185120 540.363464,396.396179 
	C540.562195,395.434357 540.731201,394.466370 540.868286,393.075562 
	C544.053528,386.000977 549.144104,383.640015 557.847778,385.390076 
	C559.297424,386.144379 560.210510,386.511261 561.123535,386.878143 
	C561.123535,386.878143 561.044006,386.967957 561.177368,387.161255 
	C561.643433,387.481689 561.976135,387.608887 562.308777,387.736053 
	C562.308777,387.736053 562.184937,387.757935 562.268677,388.001770 
	C562.876770,388.500092 563.401062,388.754517 563.925415,389.008972 
	C563.925415,389.008972 563.990845,389.005341 563.990479,389.038147 
z"/>
<path fill="#C9C9D4" opacity="1.000000" stroke="none" 
	d="
M625.036865,531.247314 
	C624.595032,533.915710 624.153564,536.144836 623.712097,538.373901 
	C623.119995,536.136169 622.225464,533.927185 622.009399,531.653687 
	C621.714294,528.548584 621.935730,525.394348 621.935730,521.846985 
	C626.270935,523.393677 630.703003,518.912231 634.557861,523.150818 
	C634.699463,523.306519 635.909729,522.445801 636.646179,522.112244 
	C641.794861,519.780090 645.891968,522.305908 646.114136,528.009094 
	C646.217407,530.661804 646.144531,533.321777 646.132080,535.978333 
	C646.129089,536.624390 646.049438,537.270020 645.906189,539.354248 
	C644.483826,537.845459 643.248291,537.147461 643.156067,536.321777 
	C642.881226,533.861694 643.469604,531.254333 642.916321,528.893005 
	C642.510132,527.159485 640.837646,525.722778 639.729492,524.153748 
	C638.440735,525.742432 636.575317,527.152588 636.013489,528.966370 
	C635.355347,531.091492 635.955994,533.578796 635.757141,535.887085 
	C635.674133,536.851746 634.938293,537.760071 634.499207,538.694031 
	C633.910278,538.582764 633.321289,538.471497 632.732361,538.360291 
	C632.732361,535.833069 632.822510,533.301819 632.707886,530.779846 
	C632.584961,528.075989 633.245850,524.384521 629.238342,524.291931 
	C625.169250,524.197937 625.012268,527.689026 625.036865,531.247314 
z"/>
<path fill="#C9C9D4" opacity="1.000000" stroke="none" 
	d="
M566.436401,522.361328 
	C569.393433,522.174072 572.158447,521.038208 574.601624,521.523376 
	C579.783447,522.552551 582.406128,528.219788 580.683472,533.335449 
	C579.061279,538.152771 573.962402,540.219604 568.938477,538.090393 
	C568.348877,537.840515 567.774292,537.555237 567.320007,537.345215 
	C566.780579,539.997314 566.263916,542.537170 565.747314,545.076965 
	C565.077759,544.987915 564.408264,544.898865 563.738770,544.809814 
	C563.738770,537.733215 563.691589,530.655701 563.840210,523.582214 
	C563.850586,523.088379 565.311951,522.624939 566.436401,522.361328 
M567.669861,533.526978 
	C568.849426,534.342712 570.331421,536.072632 571.151367,535.801392 
	C573.537109,535.012024 576.610535,533.939209 577.653320,532.020508 
	C579.119507,529.322876 577.890808,526.294434 574.626587,524.741028 
	C571.422485,523.216187 568.953186,524.594788 567.538330,527.166626 
	C566.710388,528.671631 567.259460,530.934143 567.669861,533.526978 
z"/>
<path fill="#C9C9D4" opacity="1.000000" stroke="none" 
	d="
M821.799072,537.823853 
	C821.800293,532.377930 821.800293,527.408081 821.800293,522.785767 
	C824.450684,522.234924 826.919617,521.030579 829.083740,521.439453 
	C832.080383,522.005554 836.218567,523.060547 837.364807,525.229248 
	C838.782043,527.910583 838.491394,532.263184 837.369934,535.317749 
	C836.051575,538.908569 832.181091,539.657410 828.436646,538.778503 
	C827.354736,538.524536 826.387573,537.781677 825.326111,537.241760 
	C824.884521,539.881104 824.496826,542.367249 823.976990,544.825500 
	C823.950073,544.952942 822.795715,544.841919 821.797852,544.841919 
	C821.797852,542.544006 821.797852,540.421936 821.799072,537.823853 
M832.810852,535.617004 
	C836.072693,533.539062 837.416992,530.390320 835.230530,527.301514 
	C834.061890,525.650574 830.801086,524.409119 828.734009,524.708069 
	C825.333130,525.199951 824.256470,528.337219 824.985107,531.601440 
	C825.815491,535.321045 828.489685,536.464478 832.810852,535.617004 
z"/>
<path fill="#C9C9D4" opacity="1.000000" stroke="none" 
	d="
M456.374054,515.657593 
	C459.502563,523.183411 462.314972,530.516724 465.127380,537.849976 
	C464.656799,538.190125 464.186218,538.530334 463.715637,538.870483 
	C462.234894,537.060303 460.754150,535.250183 459.230408,533.387390 
	C453.462860,531.116089 449.222870,534.202454 445.695740,539.306335 
	C445.344543,538.871643 444.993347,538.437012 444.642181,538.002319 
	C447.306122,530.854675 449.895721,523.677124 452.748596,516.605652 
	C453.034912,515.895874 454.916626,515.829773 456.374054,515.657593 
M457.865540,527.450256 
	C456.953339,525.119507 456.041168,522.788818 454.762054,519.520630 
	C453.278473,523.656433 452.211182,526.631714 451.143890,529.606934 
	C451.431335,529.973389 451.718811,530.339844 452.006256,530.706299 
	C454.025085,529.869995 456.043884,529.033752 457.865540,527.450256 
z"/>
<path fill="#C9C9D4" opacity="1.000000" stroke="none" 
	d="
M849.615967,533.959595 
	C848.250427,528.845398 848.719604,524.038879 853.681335,522.322144 
	C857.244568,521.089233 861.577881,522.082214 865.898804,522.082214 
	C865.898804,527.399536 865.898804,532.715820 865.898804,538.187378 
	C860.433167,536.883362 853.514771,542.485718 849.615967,533.959595 
M859.143982,535.937805 
	C863.240051,533.295166 864.742310,529.443604 862.111755,526.826538 
	C860.668884,525.390991 857.407532,524.125061 855.914856,524.820068 
	C854.074646,525.676941 852.261292,528.606873 852.157227,530.725342 
	C851.981995,534.296204 854.588257,536.218018 859.143982,535.937805 
z"/>
<path fill="#C9C9D4" opacity="1.000000" stroke="none" 
	d="
M904.025635,529.972351 
	C899.687195,530.864746 895.372314,531.341736 890.826843,531.844238 
	C891.135742,535.245422 893.446838,536.232483 896.266602,535.970886 
	C898.376343,535.775146 900.418884,534.855835 902.663696,534.899719 
	C900.141174,539.222229 896.474487,539.997375 892.268738,538.305603 
	C888.320435,536.717407 886.238403,532.243103 887.242371,528.005615 
	C888.251404,523.746826 891.182190,521.503662 895.361084,521.095642 
	C899.692078,520.672913 902.676025,523.741699 904.025635,529.972351 
M894.711426,528.865662 
	C896.626770,528.865662 898.542114,528.865662 900.457458,528.865662 
	C900.687622,528.403564 900.917725,527.941528 901.147827,527.479431 
	C899.308655,526.355347 897.473145,524.358765 895.629272,524.351074 
	C893.762329,524.343201 891.887207,526.302612 890.015625,527.400269 
	C890.222351,527.835205 890.429016,528.270142 890.635742,528.705017 
	C891.720154,528.759094 892.804504,528.813232 894.711426,528.865662 
z"/>
<path fill="#C9C9D4" opacity="1.000000" stroke="none" 
	d="
M648.934143,529.202026 
	C650.977051,523.130737 654.651855,520.304810 658.908264,521.136963 
	C663.196228,521.975342 665.575073,525.323303 665.688904,531.200562 
	C661.476501,531.200562 657.242371,531.200562 652.708374,531.200562 
	C653.076721,535.132690 655.299011,536.223694 658.130371,535.970520 
	C660.285767,535.777771 662.377197,534.870361 664.642761,534.837158 
	C662.254150,539.154846 658.629944,539.900391 654.729126,538.536316 
	C650.701538,537.127869 648.823181,533.908325 648.934143,529.202026 
M659.173462,528.867371 
	C660.342896,528.748718 661.512329,528.630066 662.681702,528.511414 
	C662.825073,528.024109 662.968384,527.536804 663.111755,527.049561 
	C661.093323,526.076599 659.061279,524.330566 657.060608,524.365723 
	C655.338013,524.396118 653.651245,526.457520 651.948669,527.620911 
	C652.158752,528.036377 652.368835,528.451843 652.578918,528.867310 
	C654.499817,528.867310 656.420654,528.867310 659.173462,528.867371 
z"/>
<path fill="#C9C9D4" opacity="1.000000" stroke="none" 
	d="
M804.972168,521.763672 
	C809.183533,523.632385 810.403076,526.763367 810.337830,531.257874 
	C805.844238,531.257874 801.617859,531.257874 796.916077,531.257874 
	C799.337036,539.581909 805.119751,533.993774 809.351135,534.519470 
	C806.402405,539.121277 802.855347,540.219482 798.653503,538.302307 
	C794.272461,536.303406 792.324402,531.351624 794.020142,526.524353 
	C795.401550,522.591858 799.488647,520.698120 804.972168,521.763672 
M803.885132,524.505127 
	C800.321899,523.601257 797.928589,524.634827 796.935486,528.583618 
	C800.422546,528.583618 803.589111,528.583618 807.969849,528.583618 
	C806.378296,526.859802 805.471680,525.877869 803.885132,524.505127 
z"/>
<path fill="#C9C9D4" opacity="1.000000" stroke="none" 
	d="
M601.099182,529.036499 
	C601.099243,532.432983 601.099243,535.356750 601.099243,537.321472 
	C598.223267,537.962891 596.182190,538.453613 594.125977,538.869019 
	C590.342773,539.633545 587.129456,538.579224 585.028076,535.314148 
	C582.753235,531.779480 582.744263,527.976746 585.330078,524.620605 
	C587.595215,521.680664 590.568054,520.245239 594.509827,521.625916 
	C596.422546,522.295898 598.561340,522.320435 601.099121,522.715210 
	C601.099121,524.313782 601.099121,526.438721 601.099182,529.036499 
M589.445312,524.979614 
	C586.007263,527.464844 585.387146,530.929443 588.022156,533.820557 
	C589.327332,535.252563 593.393616,536.047913 594.752197,535.081360 
	C596.498047,533.839294 597.848206,530.337280 597.442993,528.168701 
	C596.811829,524.791016 593.831116,523.293640 589.445312,524.979614 
z"/>
<path fill="#C9C9D4" opacity="1.000000" stroke="none" 
	d="
M540.798340,535.559204 
	C538.396545,540.068359 534.116272,538.927368 530.879028,538.637573 
	C529.060730,538.474792 527.489319,534.979248 525.936951,532.888550 
	C525.613892,532.453491 525.854187,531.592224 525.853149,530.927368 
	C525.848755,528.106812 525.851257,525.286255 525.851257,521.011292 
	C527.437622,522.473389 528.778442,523.115662 528.872864,523.906616 
	C529.166504,526.366089 528.501892,529.017700 529.148743,531.332153 
	C529.645203,533.108948 531.563354,534.488464 532.849304,536.044617 
	C534.354614,534.614929 536.758606,533.401672 537.166504,531.707764 
	C537.879395,528.747131 537.365234,525.491150 537.365234,522.298950 
	C540.775208,522.685852 540.775208,522.685852 540.798340,535.559204 
z"/>
<path fill="#C9C9D4" opacity="1.000000" stroke="none" 
	d="
M506.439331,525.626709 
	C509.184021,522.057129 512.218994,520.152100 516.542969,521.576843 
	C520.460510,522.867676 523.188293,525.818909 522.705322,529.598694 
	C522.321838,532.599548 520.241943,536.408813 517.758911,537.810242 
	C515.545105,539.059631 511.220001,538.405334 508.765289,536.977417 
	C504.666840,534.593445 504.508331,530.239929 506.439331,525.626709 
M513.651062,536.051819 
	C517.277283,536.199463 519.509094,534.100769 519.643066,530.872437 
	C519.722534,528.958435 518.397400,526.359436 516.855957,525.141418 
	C514.056702,522.929504 511.129517,524.121704 509.255554,526.942322 
	C507.072571,530.228088 508.527008,533.579956 513.651062,536.051819 
z"/>
<path fill="#C9C9D4" opacity="1.000000" stroke="none" 
	d="
M758.235229,536.896362 
	C754.594604,532.987732 753.732178,528.563232 757.049377,525.020569 
	C759.050232,522.883728 763.312744,521.128174 765.916809,521.777283 
	C768.558228,522.435669 771.646545,525.997925 772.242920,528.780457 
	C772.787781,531.322388 770.959106,535.216919 768.921021,537.267334 
	C765.989136,540.216858 761.982361,539.787415 758.235229,536.896362 
M759.136353,533.286072 
	C761.317627,536.370422 764.215332,537.116516 767.250000,534.980591 
	C770.013733,533.035339 770.865234,529.736450 768.712463,527.199280 
	C767.355164,525.599670 764.074707,524.277283 762.177917,524.783325 
	C758.658020,525.722351 757.077026,528.729492 759.136353,533.286072 
z"/>
<path fill="#C9C9D4" opacity="1.000000" stroke="none" 
	d="
M732.319885,533.642273 
	C732.184814,535.539856 732.049438,537.008972 731.914001,538.478088 
	C731.357910,538.478699 730.801819,538.479309 730.245728,538.479919 
	C730.245728,533.151855 730.245728,527.823792 730.245728,522.228271 
	C734.015625,523.559021 739.506775,518.071838 742.253296,523.420776 
	C744.404419,527.609924 743.915649,533.154602 744.599731,538.097046 
	C743.946350,538.278076 743.292969,538.459106 742.639587,538.640137 
	C742.121399,537.646362 741.257324,536.686646 741.155273,535.651794 
	C740.927612,533.343079 741.543884,530.865295 740.931213,528.707764 
	C740.442749,526.988037 738.697144,524.486450 737.413635,524.427673 
	C735.904175,524.358582 733.803894,526.264648 732.868835,527.850281 
	C732.039307,529.256836 732.453979,531.397217 732.319885,533.642273 
z"/>
<path fill="#C9C9D4" opacity="1.000000" stroke="none" 
	d="
M498.160706,531.052246 
	C499.170074,528.552429 499.894196,526.337097 500.978241,524.314758 
	C501.562622,523.224609 502.763306,522.464844 504.301819,522.071899 
	C500.097137,529.844604 501.408936,540.581421 490.934265,545.984924 
	C491.225250,544.065125 491.112183,542.644836 491.515594,542.478760 
	C496.553497,540.404297 495.183167,537.158752 493.460541,533.597473 
	C491.739410,530.039185 490.294983,526.347168 489.580353,521.691650 
	C490.604370,522.544739 491.981567,523.203186 492.580597,524.290466 
	C493.930664,526.740723 494.871948,529.414612 496.095886,531.941223 
	C496.149628,532.052063 497.355927,531.604492 498.160706,531.052246 
z"/>
<path fill="#C9C9D4" opacity="1.000000" stroke="none" 
	d="
M790.576538,536.172363 
	C789.966736,537.171570 789.360352,537.774414 788.753906,538.377197 
	C788.362000,537.739685 787.668457,537.118896 787.631958,536.461609 
	C787.493896,533.977417 788.066162,531.339172 787.406982,529.034729 
	C786.880981,527.195618 784.951782,525.757935 783.645508,524.142090 
	C782.074219,525.716797 779.858337,527.036743 779.107849,528.935791 
	C778.311218,530.951477 779.025879,533.526794 778.834839,535.837524 
	C778.754395,536.810364 778.044006,537.731140 777.619995,538.675598 
	C777.199829,538.565735 776.779663,538.455872 776.359497,538.346008 
	C776.359497,533.014526 776.359497,527.683044 776.359497,522.630554 
	C778.347717,522.195618 780.451538,521.787109 782.528198,521.269714 
	C786.113953,520.376221 789.595947,522.483887 790.142944,526.344666 
	C790.582520,529.446777 790.455505,532.629150 790.576538,536.172363 
z"/>
<path fill="#C9C9D4" opacity="1.000000" stroke="none" 
	d="
M606.692566,542.220459 
	C610.213684,540.587891 610.787354,538.503662 609.154114,535.268921 
	C607.083374,531.167603 605.485962,526.827332 604.221191,522.227600 
	C609.495056,523.631531 608.472412,529.692200 611.825317,532.766785 
	C615.314453,530.089966 613.546692,523.546570 620.256714,521.200623 
	C617.222351,528.768372 614.833923,535.153748 612.046875,541.360046 
	C611.390015,542.822815 609.389709,543.682312 608.007446,544.819336 
	C607.463379,544.001526 606.919250,543.183777 606.692566,542.220459 
z"/>
<path fill="#C9C9D4" opacity="1.000000" stroke="none" 
	d="
M872.978943,522.803101 
	C877.901306,519.854980 881.732239,520.954834 885.960938,525.869263 
	C884.018982,525.869263 882.659912,526.294800 882.025635,525.796936 
	C878.990356,523.414551 876.191833,523.526794 873.746094,526.376160 
	C871.640320,528.829529 871.726562,531.663818 873.857117,534.052002 
	C876.384766,536.885254 879.222717,536.741516 882.155884,534.377014 
	C882.784363,533.870361 883.944519,534.023254 885.655884,533.740906 
	C883.618835,538.111267 880.628418,539.789429 877.352600,538.837952 
	C874.655151,538.054260 871.528931,536.078674 870.240356,533.728088 
	C868.224670,530.051392 869.169312,525.995728 872.978943,522.803101 
z"/>
<path fill="#C9C9D4" opacity="1.000000" stroke="none" 
	d="
M672.026733,529.466797 
	C672.023132,532.663574 672.023132,535.426392 672.023132,538.381470 
	C668.623779,537.146729 668.319519,534.924744 669.292664,522.078979 
	C674.005981,523.627930 681.085205,517.168091 683.310852,526.097717 
	C684.281250,529.991150 685.280396,534.676636 682.518738,538.432495 
	C681.974060,538.394836 681.429443,538.357178 680.884766,538.319458 
	C680.884766,535.587830 681.371765,532.735718 680.735291,530.161438 
	C680.196350,527.981567 678.718811,524.905212 677.012085,524.399170 
	C674.239197,523.577026 672.208923,525.839600 672.026733,529.466797 
z"/>
<path fill="#C9C9D4" opacity="1.000000" stroke="none" 
	d="
M709.388062,530.686340 
	C711.916138,533.802246 711.238220,536.284546 708.359497,538.030762 
	C705.172974,539.963684 702.014526,539.443787 699.338135,536.854248 
	C698.892090,536.422791 698.953552,535.466858 698.780518,534.753296 
	C699.593140,534.683777 700.696960,534.239990 701.169495,534.607666 
	C703.599487,536.498413 705.753845,536.800598 708.700745,533.567688 
	C706.313110,532.553833 704.215088,532.108948 702.725525,530.908875 
	C701.138794,529.630493 699.238525,527.687500 699.140808,525.941528 
	C699.059753,524.492432 701.216492,521.891479 702.705811,521.627441 
	C704.814026,521.253662 707.234802,522.513123 709.477966,523.215088 
	C709.725342,523.292542 709.943176,524.625793 709.725708,524.793091 
	C709.220947,525.181335 708.174194,525.584167 707.817627,525.327454 
	C705.724976,523.821106 703.598633,522.754456 702.178650,525.708801 
	C701.987488,526.106506 704.874817,528.071777 706.428284,529.183105 
	C707.215088,529.746033 708.206604,530.022888 709.388062,530.686340 
z"/>
<path fill="#C9C9D4" opacity="1.000000" stroke="none" 
	d="
M690.377136,517.827881 
	C691.450317,518.774963 692.182434,519.878235 693.480042,521.833618 
	C693.749023,521.874207 695.131287,522.082642 696.513489,522.291077 
	C696.659180,522.657959 696.804810,523.024902 696.950439,523.391785 
	C695.546204,524.133362 694.142029,524.874878 692.598511,525.690002 
	C691.527588,534.485657 691.680969,534.926697 696.612183,536.859497 
	C694.231262,539.572021 690.962524,539.153687 689.767944,535.810059 
	C689.229675,534.303345 689.484558,532.532471 689.141663,530.932434 
	C688.588379,528.350769 687.838379,525.811218 687.005859,522.619080 
	C687.580811,521.739685 688.808411,519.861877 690.377136,517.827881 
z"/>
<path fill="#C9C9D4" opacity="1.000000" stroke="none" 
	d="
M470.365662,522.159668 
	C470.366486,527.912598 470.366486,533.193726 470.366486,538.474854 
	C466.790253,535.532227 466.734314,517.628540 469.901398,513.246521 
	C470.095978,516.790894 470.230408,519.239380 470.365662,522.159668 
z"/>
<path fill="#C9C9D4" opacity="1.000000" stroke="none" 
	d="
M843.941772,514.408569 
	C846.364319,522.411926 845.134277,530.388245 844.994385,539.358704 
	C841.980957,535.910034 841.578552,519.081604 843.941772,514.408569 
z"/>
<path fill="#C9C9D4" opacity="1.000000" stroke="none" 
	d="
M550.199707,525.280884 
	C549.186462,528.565918 548.544800,531.648865 547.829956,534.714722 
	C547.521484,536.038147 547.062012,537.326355 546.671082,538.630554 
	C546.167969,538.481750 545.664856,538.332886 545.161743,538.184082 
	C545.161743,532.877991 545.161743,527.571960 545.161743,522.374451 
	C547.668884,522.237549 550.061768,522.106873 552.454651,521.976135 
	C552.712952,522.264221 552.971252,522.552246 553.229492,522.840271 
	C552.333496,523.584106 551.437500,524.327942 550.199707,525.280884 
z"/>
<path fill="#C9C9D4" opacity="1.000000" stroke="none" 
	d="
M478.001099,524.052002 
	C477.996857,528.531494 478.067596,532.526123 477.912140,536.511963 
	C477.887177,537.151917 476.851624,537.752380 476.283264,538.371094 
	C475.808655,537.828369 474.927582,537.290649 474.920807,536.742188 
	C474.829376,529.322449 474.859467,521.901306 474.859467,513.123535 
	C479.632935,516.658325 477.249481,520.529480 478.001099,524.052002 
z"/>
<path fill="#C9C9D4" opacity="1.000000" stroke="none" 
	d="
M722.000977,528.082153 
	C722.315735,525.658142 722.633423,523.709412 722.951050,521.760681 
	C723.645386,521.855164 724.339722,521.949646 725.034058,522.044128 
	C725.034058,526.771851 725.091492,531.500977 724.973694,536.225769 
	C724.955444,536.954285 724.132385,537.662781 723.681519,538.380493 
	C723.124146,537.587280 722.159790,536.829834 722.086121,535.993958 
	C721.869446,533.531799 722.005676,531.038513 722.000977,528.082153 
z"/>
<path fill="#596AF6" opacity="1.000000" stroke="none" 
	d="
M627.232788,433.394348 
	C628.083130,436.438446 628.889221,439.879150 629.483276,443.611725 
	C628.576965,440.532715 627.882751,437.161804 627.232788,433.394348 
z"/>
<path fill="#2AB3F0" opacity="1.000000" stroke="none" 
	d="
M692.671387,403.097015 
	C693.487366,404.095276 694.041992,405.264862 694.794861,406.709656 
	C693.894104,406.940521 692.795105,406.896149 691.296387,406.748230 
	C691.401123,405.519226 691.905579,404.393768 692.671387,403.097015 
z"/>
<path fill="#596AF6" opacity="1.000000" stroke="none" 
	d="
M576.363342,448.508759 
	C576.004272,447.515594 575.618103,446.116943 575.414062,444.430847 
	C575.842896,445.463348 576.089600,446.783325 576.363342,448.508759 
z"/>
<path fill="#2AB3F0" opacity="1.000000" stroke="none" 
	d="
M560.981628,386.606323 
	C560.210510,386.511261 559.297424,386.144379 558.217041,385.516846 
	C558.979736,385.615601 559.909729,385.975037 560.981628,386.606323 
z"/>
<path fill="#596AF6" opacity="1.000000" stroke="none" 
	d="
M548.979126,455.387085 
	C549.344177,456.220154 549.644653,457.437622 549.911987,459.061493 
	C549.557434,458.235748 549.236023,457.003662 548.979126,455.387085 
z"/>
<path fill="#4783F5" opacity="1.000000" stroke="none" 
	d="
M815.903198,437.608185 
	C815.580811,437.052246 815.322021,436.124298 815.093994,434.812134 
	C815.405334,435.364014 815.686035,436.300079 815.903198,437.608185 
z"/>
<path fill="#2AB3F0" opacity="1.000000" stroke="none" 
	d="
M563.830811,388.732361 
	C563.401062,388.754517 562.876770,388.500092 562.291931,387.943359 
	C562.733032,387.912659 563.234680,388.184204 563.830811,388.732361 
z"/>
<path fill="#4783F5" opacity="1.000000" stroke="none" 
	d="
M543.187134,423.381653 
	C543.404541,423.412964 543.586670,423.739899 543.759644,424.357452 
	C543.550964,424.324463 543.351379,424.000885 543.187134,423.381653 
z"/>
<path fill="#3B9AF1" opacity="1.000000" stroke="none" 
	d="
M728.145264,407.515839 
	C728.039734,407.556793 727.994141,407.294647 727.994629,407.229187 
	C727.995178,407.163757 728.250732,407.474884 728.145264,407.515839 
z"/>
<path fill="#3B9AF1" opacity="1.000000" stroke="none" 
	d="
M728.893677,411.742065 
	C728.492188,411.836151 728.374695,411.590546 728.619263,411.146179 
	C728.740234,411.043121 728.936646,411.498047 728.893677,411.742065 
z"/>
<path fill="#4783F5" opacity="1.000000" stroke="none" 
	d="
M732.206482,432.544800 
	C732.105713,432.638123 732.025635,432.238953 732.019836,432.136963 
	C732.228394,432.092102 732.326111,432.230927 732.206482,432.544800 
z"/>
<path fill="#2AB3F0" opacity="1.000000" stroke="none" 
	d="
M693.114136,402.238007 
	C693.354187,402.239807 693.453857,402.436310 693.494751,402.644379 
	C693.505737,402.699982 693.337158,402.790924 693.082642,402.907532 
	C692.926819,402.778595 692.939270,402.607819 693.114136,402.238007 
z"/>
<path fill="#596AF6" opacity="1.000000" stroke="none" 
	d="
M629.888062,447.520844 
	C629.974731,447.542725 629.973633,447.656372 629.983887,447.681458 
	C629.994080,447.706573 629.801453,447.498962 629.888062,447.520844 
z"/>
<path fill="#4783F5" opacity="1.000000" stroke="none" 
	d="
M659.800293,451.657227 
	C659.573425,451.637848 659.375305,451.320923 659.159180,450.715210 
	C659.370544,450.737488 659.599854,451.048553 659.800293,451.657227 
z"/>
<path fill="#F9A652" opacity="1.000000" stroke="none" 
	d="
M770.390747,453.225098 
	C770.259888,453.028748 770.374573,452.686615 770.704956,452.171875 
	C770.825806,452.359314 770.731079,452.719299 770.390747,453.225098 
z"/>
<path fill="#6752F6" opacity="1.000000" stroke="none" 
	d="
M577.417603,459.422974 
	C577.236023,459.206970 577.306152,458.865082 577.583984,458.367340 
	C577.791687,458.211456 577.962158,458.505615 577.980774,458.673401 
	C577.889343,458.993164 577.779358,459.145142 577.417603,459.422974 
z"/>
<path fill="#2AB3F0" opacity="1.000000" stroke="none" 
	d="
M562.195496,387.484314 
	C561.976135,387.608887 561.643433,387.481689 561.193604,387.103516 
	C561.411743,386.979187 561.746948,387.105865 562.195496,387.484314 
z"/>
<path fill="#3B9AF1" opacity="1.000000" stroke="none" 
	d="
M836.897339,484.606598 
	C836.555847,484.589539 836.442871,484.254578 836.466797,483.668884 
	C836.603760,483.418121 837.024414,483.313965 837.205933,483.432404 
	C837.300232,483.796814 837.213074,484.042786 836.897339,484.606598 
z"/>
<path fill="#070625" opacity="1.000000" stroke="none" 
	d="
M1036.447754,425.839966 
	C1039.319946,439.369690 1036.940430,451.361481 1027.911011,461.527649 
	C1019.419067,471.088684 1004.476135,474.170410 992.699158,469.208466 
	C984.005249,465.545471 978.582031,457.183685 979.247375,446.306915 
	C979.624451,440.142242 980.918518,433.694092 983.377075,428.062225 
	C989.809937,413.326294 1006.297546,406.305237 1021.661804,411.078156 
	C1028.923828,413.334076 1033.985107,418.061005 1036.447754,425.839966 
z"/>
<path fill="#070625" opacity="1.000000" stroke="none" 
	d="
M1128.573608,408.208313 
	C1134.236084,408.102356 1139.583130,407.459106 1144.732666,408.196106 
	C1155.430542,409.727081 1162.364136,418.845184 1161.852173,429.906372 
	C1143.756958,429.906372 1125.649780,429.906372 1106.875000,429.906372 
	C1110.436157,418.919128 1117.316406,411.713501 1128.573608,408.208313 
z"/>
<path fill="#3B9AF1" opacity="1.000000" stroke="none" 
	d="
M830.948914,482.687805 
	C830.468933,482.742859 829.876343,482.560547 829.173706,482.171143 
	C829.654602,482.126160 830.245422,482.288300 830.948914,482.687805 
z"/>
<path fill="#3B9AF1" opacity="1.000000" stroke="none" 
	d="
M836.053467,483.278381 
	C835.684265,483.534637 835.106873,483.577209 834.314697,483.409668 
	C834.681702,483.154602 835.263489,483.109650 836.053467,483.278381 
z"/>
<path fill="#3B9AF1" opacity="1.000000" stroke="none" 
	d="
M825.320129,478.507202 
	C825.051147,478.564880 824.684875,478.293427 824.258789,477.667572 
	C824.540283,477.601501 824.881531,477.889801 825.320129,478.507202 
z"/>
<path fill="#3B9AF1" opacity="1.000000" stroke="none" 
	d="
M701.046509,418.454468 
	C701.413086,419.290771 701.671875,420.496460 701.877563,422.102356 
	C701.529297,421.276306 701.234009,420.050079 701.046509,418.454468 
z"/>
<path fill="#2AB3F0" opacity="1.000000" stroke="none" 
	d="
M695.083374,407.196106 
	C695.249390,407.034241 695.451355,407.118500 695.743286,407.370605 
	C695.854614,407.487274 695.473694,407.617767 695.473694,407.617767 
	C695.473694,407.617767 695.140625,407.391022 695.083374,407.196106 
z"/>
<path fill="#2AB3F0" opacity="1.000000" stroke="none" 
	d="
M697.883423,409.374084 
	C698.140015,409.314514 698.444580,409.553467 698.810425,410.086304 
	C698.558289,410.144348 698.244812,409.908478 697.883423,409.374084 
z"/>
<path fill="#2AB3F0" opacity="1.000000" stroke="none" 
	d="
M696.834961,408.374695 
	C697.072937,408.273773 697.393005,408.454865 697.818298,408.899658 
	C697.588013,408.994446 697.252563,408.825562 696.834961,408.374695 
z"/>
<path fill="#070625" opacity="1.000000" stroke="none" 
	d="
M567.429443,533.191406 
	C567.259460,530.934143 566.710388,528.671631 567.538330,527.166626 
	C568.953186,524.594788 571.422485,523.216187 574.626587,524.741028 
	C577.890808,526.294434 579.119507,529.322876 577.653320,532.020508 
	C576.610535,533.939209 573.537109,535.012024 571.151367,535.801392 
	C570.331421,536.072632 568.849426,534.342712 567.429443,533.191406 
z"/>
<path fill="#070625" opacity="1.000000" stroke="none" 
	d="
M832.437012,535.764038 
	C828.489685,536.464478 825.815491,535.321045 824.985107,531.601440 
	C824.256470,528.337219 825.333130,525.199951 828.734009,524.708069 
	C830.801086,524.409119 834.061890,525.650574 835.230530,527.301514 
	C837.416992,530.390320 836.072693,533.539062 832.437012,535.764038 
z"/>
<path fill="#070625" opacity="1.000000" stroke="none" 
	d="
M457.964111,527.823853 
	C456.043884,529.033752 454.025085,529.869995 452.006256,530.706299 
	C451.718811,530.339844 451.431335,529.973389 451.143890,529.606934 
	C452.211182,526.631714 453.278473,523.656433 454.762054,519.520630 
	C456.041168,522.788818 456.953339,525.119507 457.964111,527.823853 
z"/>
<path fill="#070625" opacity="1.000000" stroke="none" 
	d="
M858.745361,535.989746 
	C854.588257,536.218018 851.981995,534.296204 852.157227,530.725342 
	C852.261292,528.606873 854.074646,525.676941 855.914856,524.820068 
	C857.407532,524.125061 860.668884,525.390991 862.111755,526.826538 
	C864.742310,529.443604 863.240051,533.295166 858.745361,535.989746 
z"/>
<path fill="#070625" opacity="1.000000" stroke="none" 
	d="
M894.300171,528.866455 
	C892.804504,528.813232 891.720154,528.759094 890.635742,528.705017 
	C890.429016,528.270142 890.222351,527.835205 890.015625,527.400269 
	C891.887207,526.302612 893.762329,524.343201 895.629272,524.351074 
	C897.473145,524.358765 899.308655,526.355347 901.147827,527.479431 
	C900.917725,527.941528 900.687622,528.403564 900.457458,528.865662 
	C898.542114,528.865662 896.626770,528.865662 894.300171,528.866455 
z"/>
<path fill="#070625" opacity="1.000000" stroke="none" 
	d="
M658.757507,528.867310 
	C656.420654,528.867310 654.499817,528.867310 652.578918,528.867310 
	C652.368835,528.451843 652.158752,528.036377 651.948669,527.620911 
	C653.651245,526.457520 655.338013,524.396118 657.060608,524.365723 
	C659.061279,524.330566 661.093323,526.076599 663.111755,527.049561 
	C662.968384,527.536804 662.825073,528.024109 662.681702,528.511414 
	C661.512329,528.630066 660.342896,528.748718 658.757507,528.867310 
z"/>
<path fill="#070625" opacity="1.000000" stroke="none" 
	d="
M804.225098,524.700562 
	C805.471680,525.877869 806.378296,526.859802 807.969849,528.583618 
	C803.589111,528.583618 800.422546,528.583618 796.935486,528.583618 
	C797.928589,524.634827 800.321899,523.601257 804.225098,524.700562 
z"/>
<path fill="#070625" opacity="1.000000" stroke="none" 
	d="
M589.803650,524.811951 
	C593.831116,523.293640 596.811829,524.791016 597.442993,528.168701 
	C597.848206,530.337280 596.498047,533.839294 594.752197,535.081360 
	C593.393616,536.047913 589.327332,535.252563 588.022156,533.820557 
	C585.387146,530.929443 586.007263,527.464844 589.803650,524.811951 
z"/>
<path fill="#070625" opacity="1.000000" stroke="none" 
	d="
M513.261230,536.015686 
	C508.527008,533.579956 507.072571,530.228088 509.255554,526.942322 
	C511.129517,524.121704 514.056702,522.929504 516.855957,525.141418 
	C518.397400,526.359436 519.722534,528.958435 519.643066,530.872437 
	C519.509094,534.100769 517.277283,536.199463 513.261230,536.015686 
z"/>
<path fill="#070625" opacity="1.000000" stroke="none" 
	d="
M758.979858,532.928345 
	C757.077026,528.729492 758.658020,525.722351 762.177917,524.783325 
	C764.074707,524.277283 767.355164,525.599670 768.712463,527.199280 
	C770.865234,529.736450 770.013733,533.035339 767.250000,534.980591 
	C764.215332,537.116516 761.317627,536.370422 758.979858,532.928345 
z"/>
</svg>