<?xml version="1.0" encoding="UTF-8"?>
<svg id="Layer_2" data-name="Layer 2" xmlns="http://www.w3.org/2000/svg" xmlns:xlink="http://www.w3.org/1999/xlink" viewBox="0 0 1309 331.05">
  <defs>
    <style>
      .cls-1 {
        fill: url(#linear-gradient-2);
      }

      .cls-2 {
        letter-spacing: 0em;
      }

      .cls-3, .cls-4 {
        fill: #080447;
      }

      .cls-5 {
        fill: url(#linear-gradient-14);
      }

      .cls-6 {
        fill: url(#linear-gradient-6);
      }

      .cls-7 {
        fill: url(#linear-gradient-11);
      }

      .cls-8 {
        letter-spacing: 0em;
      }

      .cls-9 {
        fill: url(#linear-gradient-10);
      }

      .cls-10 {
        fill: url(#linear-gradient-5);
      }

      .cls-11 {
        letter-spacing: -.03em;
      }

      .cls-12 {
        fill: url(#linear-gradient-7);
      }

      .cls-13 {
        fill: url(#linear-gradient-9);
      }

      .cls-14 {
        fill: url(#linear-gradient-3);
      }

      .cls-15 {
        fill: url(#linear-gradient);
      }

      .cls-16 {
        letter-spacing: -.02em;
      }

      .cls-17 {
        fill: #ffa74e;
      }

      .cls-4 {
        font-family: Gilroy-Medium, Gilroy-Medium;
        font-size: 54.87px;
        font-weight: 500;
      }

      .cls-18 {
        fill: url(#linear-gradient-4);
      }

      .cls-19 {
        fill: url(#linear-gradient-8);
      }

      .cls-20 {
        fill: url(#linear-gradient-12);
      }

      .cls-21 {
        fill: url(#linear-gradient-13);
      }
    </style>
    <linearGradient id="linear-gradient" x1="119.72" y1="252.67" x2="649.62" y2="3.45" gradientUnits="userSpaceOnUse">
      <stop offset=".04" stop-color="#ffa74e"/>
      <stop offset=".22" stop-color="#fe8358"/>
      <stop offset=".35" stop-color="#feaf4b"/>
      <stop offset=".4" stop-color="#ffc446"/>
      <stop offset=".6" stop-color="#fe9753"/>
      <stop offset=".68" stop-color="#ffc446"/>
      <stop offset=".8" stop-color="#ffc047"/>
      <stop offset=".95" stop-color="#ffa54f"/>
    </linearGradient>
    <linearGradient id="linear-gradient-2" x1="421.99" y1="236.37" x2="777.08" y2="69.37" xlink:href="#linear-gradient"/>
    <linearGradient id="linear-gradient-3" x1="231.21" y1="55.65" x2="277.32" y2="233.87" gradientUnits="userSpaceOnUse">
      <stop offset="0" stop-color="#10d9f0"/>
      <stop offset="1" stop-color="#6e47ff"/>
    </linearGradient>
    <linearGradient id="linear-gradient-4" x1="414.69" y1="273.55" x2="369.94" y2="65" xlink:href="#linear-gradient-3"/>
    <linearGradient id="linear-gradient-5" x1="483.12" y1="71.79" x2="484.62" y2="71.79" gradientUnits="userSpaceOnUse">
      <stop offset="0" stop-color="#fe8358"/>
      <stop offset="1" stop-color="#ffc446"/>
    </linearGradient>
    <linearGradient id="linear-gradient-6" x1="487.02" y1="66.18" x2="489.34" y2="66.18" xlink:href="#linear-gradient-5"/>
    <linearGradient id="linear-gradient-7" x1="489.34" y1="63.77" x2="493.27" y2="63.77" xlink:href="#linear-gradient-5"/>
    <linearGradient id="linear-gradient-8" x1="501.24" y1="59.98" x2="504.28" y2="59.98" xlink:href="#linear-gradient-5"/>
    <linearGradient id="linear-gradient-9" x1="686.54" y1="294.38" x2="621.28" y2="10.16" xlink:href="#linear-gradient-3"/>
    <linearGradient id="linear-gradient-10" x1="748.51" x2="750.01" xlink:href="#linear-gradient-5"/>
    <linearGradient id="linear-gradient-11" x1="752.41" y1="66.18" x2="754.73" y2="66.18" xlink:href="#linear-gradient-5"/>
    <linearGradient id="linear-gradient-12" x1="754.73" y1="63.77" x2="758.66" y2="63.77" xlink:href="#linear-gradient-5"/>
    <linearGradient id="linear-gradient-13" x1="766.63" y1="59.98" x2="769.67" y2="59.98" xlink:href="#linear-gradient-5"/>
    <linearGradient id="linear-gradient-14" x1="503.49" y1="58.77" x2="537.77" y2="249.03" xlink:href="#linear-gradient-3"/>
  </defs>
  <g id="Layer_1-2" data-name="Layer 1">
    <path class="cls-17" d="m824.41,32.52c-4.49,0-8.54-3.11-9.56-7.68-1.17-5.28,2.16-10.52,7.44-11.69L880.52.24c5.28-1.18,10.52,2.16,11.69,7.44,1.17,5.28-2.16,10.52-7.44,11.69l-58.22,12.92c-.71.16-1.43.24-2.13.24Z"/>
    <path class="cls-17" d="m693.15,241.85c-3.56,0-7.16-.84-10.53-2.62-11-5.83-15.19-19.46-9.37-30.46l68.1-128.6c5.83-11,19.47-15.19,30.46-9.37,11,5.83,15.19,19.46,9.37,30.46l-68.1,128.6c-4.04,7.64-11.86,11.99-19.93,11.99Z"/>
    <path class="cls-3" d="m0,231.05l20.96-39.46c16.07,10.83,41.56,17.81,65.31,17.81,25.5,0,36.67-6.98,36.67-18.16,0-26.54-99.54-4.54-99.54-68.1,0-42.26,39.47-66.01,94.3-66.01,26.19,0,52.39,5.94,69.5,15.72l-19.56,39.81c-17.46-10.83-38.07-14.32-55.53-14.32-25.15,0-36.32,8.38-36.32,18.51,0,27.59,99.19,5.59,99.19,68.1,0,42.96-40.51,65.66-94.65,65.66-33.18,0-64.61-8.38-80.33-19.56Z"/>
    <polygon class="cls-3" points="883.96 69.6 876.43 106.58 848.35 247.81 794.2 247.81 822.44 105.88 826.98 83.93 883.96 69.6"/>
    <path class="cls-3" d="m1105.74,141.29c0,63.22-45.75,109.32-104.08,109.32-27.24,0-48.55-8.73-60.77-27.94l-18.51,92.9h-54.48l50.99-255.65h51.69l-3.84,18.51c15.02-13.62,34.58-21.3,57.63-21.3,43.66,0,81.38,30.73,81.38,84.17Zm-55.18,2.45c0-25.49-15.72-41.56-42.96-41.56-31.78,0-54.83,25.15-54.83,61.82,0,25.5,15.37,41.56,42.61,41.56,32.13,0,55.18-25.15,55.18-61.82Z"/>
    <path class="cls-3" d="m1305.86,168.54h-143.89c1.75,25.49,17.46,38.42,48.55,38.42,19.21,0,37.37-6.29,50.29-17.46l22.7,35.97c-21.65,17.46-49.94,25.15-78.58,25.15-58.67,0-96.05-33.18-96.05-84.17,0-62.87,45.4-109.32,110.71-109.32,54.83,0,89.41,32.48,89.41,82.77,0,10.13-1.4,19.91-3.14,28.64Zm-140.05-31.78h93.25c0-24.8-16.77-38.77-41.91-38.77s-44.01,15.37-51.34,38.77Z"/>
    <path class="cls-15" d="m482.13,88.43c-2.55-14.46,8.19-27.75,22.63-28.47-.37-.02-.71-.04-1.1-.04-1.65,0-3.25.18-4.82.53-6.23,1.37-11.68,5.35-14.85,11.07l-1.39,2.53-12.87,23.3v.02l-.55.98-48.62,87.99-10.68-63.39-2.92-17.26-1.53-9.11-1.59-9.41c-.24-1.39-.55-2.76-.96-4.08-1.86-6.13-5.45-11.44-10.15-15.42-3-2.55-6.45-4.55-10.19-5.86-3.41-1.21-7.07-1.88-10.9-1.88-.47,0-.9.02-1.37.04-.76.02-1.55.08-2.29.18-.25.02-.49.06-.73.08-.88.12-1.74.27-2.61.47-.35.08-.69.16-1.04.24-.86.22-1.7.47-2.55.76-.25.08-.51.18-.76.27-.14.04-.25.08-.37.14-.22.06-.41.14-.61.23-.25.1-.47.22-.73.31-.41.18-.8.35-1.2.55-.47.22-.92.45-1.37.69-.33.2-.65.37-.96.57-.47.25-.92.55-1.37.86-.24.14-.47.29-.69.45-.61.41-1.21.88-1.8,1.33-.33.27-.67.55-1,.84-.24.18-.45.37-.67.59-.24.22-.47.45-.71.67-.24.22-.47.47-.71.71-.39.43-.78.84-1.16,1.27-.18.18-.31.37-.45.55-.33.37-.65.76-.94,1.18-.06.08-.14.16-.18.23-.35.47-.69.92-1,1.41-.06.1-.14.22-.22.33-.37.59-.73,1.2-1.08,1.8l-12.62,22.59-48.58,87.07-9.84-60.24-7.47-45.8c-.94-5.88-3.96-10.97-8.23-14.6-4.27-3.63-9.78-5.78-15.74-5.78-15.11,0-26.53,13.64-23.91,28.51l18.62,105.45.67,3.82,3.45,19.44c1.57,8.86,6.21,16.54,12.72,21.99,6.49,5.47,14.85,8.68,23.87,8.68,13.52,0,25.96-7.35,32.51-19.17l1.04-1.88,52.54-95.16.43-.78.16.78,15.89,85.83c3.25,17.6,18.62,30.37,36.51,30.37h.96c8.01,0,15.64-2.57,21.89-7.11.04-.02.06-.04.08-.06,4.27-3.14,7.9-7.21,10.56-12.01l4.92-8.9,39.23-71.04v-.02l-6.68-37.8-3.96-22.44Z"/>
    <path class="cls-1" d="m716.33,223.96c-.04.14-.31.82-.55,1.47l-1.76,3.19c-.1.2-.22.39-.33.57-.2.31-.39.63-.57.96-.06.1-.12.2-.18.29-2.53,4.02-5.76,7.47-9.5,10.21,0,0-.02.02-.06.04-6.25,4.57-13.87,7.13-21.89,7.13h-.96c-17.89,0-33.25-12.8-36.53-30.39l-15.89-85.83-.14-.78-.43.76v.02l-52.54,95.16-1.04,1.88c-2.55,4.61-6,8.5-10.03,11.58-.55.43-1.12.84-1.7,1.23-.57.39-1.16.76-1.74,1.12-2.61,1.57-5.43,2.78-8.33,3.66-3.43,1.04-7.04,1.59-10.72,1.59-5.62,0-10.99-1.25-15.81-3.55h-.02c-.96-.47-1.9-.96-2.82-1.49-.92-.55-1.8-1.12-2.68-1.72-.86-.61-1.7-1.25-2.51-1.94-.41-.35-.82-.71-1.21-1.04-2.35-2.16-4.43-4.61-6.15-7.29-2.02-3.15-3.61-6.64-4.62-10.39-.29-1.08-.55-2.16-.74-3.27l-3.43-19.44v-.02l-8.64-48.99v-.02l10.21-18.5,10.64-19.3s0-.02.02-.04l9.7-17.56c1.94-3.53,2.84-7.23,2.84-10.86,0-4.57-1.43-8.99-3.94-12.68-3.74-5.51-9.9-9.41-17.36-9.78.39-.04.76-.04,1.16-.04,5.96,0,11.46,2.16,15.74,5.78.37.31.74.65,1.1,1,.14.14.29.27.43.43,1.98,2,3.61,4.33,4.8,6.92.16.33.31.67.43,1,.39,1,.74,2.02,1.02,3.08.18.73.33,1.43.45,2.18,4.68,28.73,7.9,57.69,14.03,86.12.02.08.04.18.06.25l3.19,19.67.25-.47,48.34-86.61.08-.16.76-1.33,5.7-10.23,6.07-10.88c.14-.25.29-.51.45-.76.02-.06.06-.1.1-.16.16-.29.33-.59.51-.88.1-.12.18-.22.24-.33.31-.49.65-.94,1-1.41.04-.08.1-.16.18-.24.29-.39.61-.8.94-1.18.12-.18.27-.35.43-.55.39-.41.78-.84,1.18-1.27.24-.24.45-.47.71-.71.24-.22.45-.45.71-.67.22-.22.43-.41.67-.59.31-.29.65-.57,1-.84.18-.14.35-.27.55-.41.31-.25.63-.49.96-.73.08-.06.18-.14.27-.2.24-.16.47-.31.71-.45.22-.16.45-.29.67-.45.22-.16.45-.29.69-.41.33-.2.65-.37.98-.55.45-.25.9-.49,1.37-.71.39-.2.78-.37,1.2-.55.24-.1.47-.22.73-.31.1-.06.2-.1.29-.12.1-.06.22-.1.31-.12.12-.04.24-.1.35-.14.27-.1.51-.2.78-.27.41-.14.82-.27,1.23-.39.45-.16.92-.27,1.39-.39.31-.08.63-.14.96-.22.43-.12.86-.2,1.29-.25.43-.08.86-.16,1.29-.22.25-.02.49-.06.73-.08.76-.1,1.53-.14,2.31-.18.45-.02.9-.04,1.35-.04,3.82,0,7.49.67,10.9,1.88,3.76,1.31,7.21,3.33,10.21,5.86,4.7,3.98,8.29,9.29,10.15,15.42.41,1.31.73,2.68.96,4.08l1.59,9.41,1.53,9.11,2.9,17.26,8.33,49.32c0,.06,0,.12.02.18,1,7.25,1.9,14.54,3.49,21.69,2.41,10.88,6.11,26.91,18.64,30.08,3.47.88,7.17.69,10.6-.25Z"/>
    <path class="cls-14" d="m309.26,227.33c-3.24,5.52-7.33,10.75-12.69,14.31-6.04,4.01-13.27,6.17-20.51,6.17-9.01,0-17.37-3.22-23.87-8.69-6.5-5.45-11.14-13.13-12.72-21.99l-3.44-19.44-19.28-109.26c-2.63-14.87,8.8-28.51,23.9-28.51,5.95,0,11.47,2.15,15.73,5.77,4.28,3.64,7.29,8.74,8.24,14.61,4.7,28.8,9.39,57.59,14.09,86.39,2.53,15.52,2.27,33.73,8.82,48.23,3.63,8.03,12.33,15.56,21.73,12.42Z"/>
    <path class="cls-18" d="m450.95,223.97c-.08.25-.96,2.47-1.03,2.59-.68,1.23-1.51,2.37-2.19,3.6-3.79,6.85-11.34,12.82-18.45,15.92-7.34,3.2-15.7,4.14-23.52,2.32-14.18-3.3-25.68-15.38-28.23-29.7l-3.44-19.44c-.7-3.95-1.39-7.9-2.09-11.85-1.49-8.43-2.98-16.86-4.46-25.29-1.38-7.8-2.75-15.61-4.13-23.41-1.48-8.4-2.24-17-5.14-25.08-1.9-5.3-4.95-11.06-9.57-14.46-5.7-4.19-12.35-2.79-18.31.06,3.71-5.37,6.41-11.37,9.51-17.12,3.11-5.75,6.74-11.37,11.87-15.42,13.08-10.33,34.07-8.74,45.38,3.32,5.68,6.06,6.79,16.29,8.11,24.14,3.97,23.68,8.01,47.35,11.87,71.05,1.57,9.64,2.46,19.4,4.58,28.95,2.41,10.86,6.11,26.9,18.64,30.08,3.47.88,7.16.69,10.6-.25Z"/>
    <path class="cls-10" d="m483.12,73.1c.46-.94.95-1.83,1.5-2.63-.21.35-.43.69-.63,1.05l-.87,1.58Z"/>
    <path class="cls-6" d="m489.34,65.07c-.82.69-1.6,1.43-2.32,2.22.74-.84,1.53-1.58,2.32-2.22Z"/>
    <path class="cls-12" d="m489.34,65.07c1.3-1.09,2.63-1.94,3.93-2.6-1.4.72-2.71,1.6-3.93,2.6Z"/>
    <path class="cls-19" d="m504.28,59.94c-.2-.02-.39-.02-.61-.02-.82,0-1.63.05-2.43.13,1.84-.23,3.03-.13,3.03-.13l.02.02Z"/>
    <path class="cls-13" d="m716.33,223.96c-.04.14-.31.82-.55,1.47-.24.55-.43,1.06-.47,1.14-.51.9-1.08,1.76-1.63,2.63-.2.31-.39.63-.57.96-.06.1-.12.2-.18.29-3.82,6.74-11.27,12.58-18.26,15.64-7.35,3.19-15.7,4.13-23.52,2.31-14.19-3.29-25.69-15.38-28.24-29.71l-3.45-19.44s-11.66-66.1-11.93-67.65v-.02c-1.39-7.84-2.33-15.36-5.88-22.61-1.35-2.76-2.96-5.41-5.08-7.62-2.43-2.51-5.53-4.39-9.03-4.74-4-.43-8.01.84-11.58,2.51-.06.04-.14.06-.2.1.33-.47.65-.94.96-1.43,2.12-3.27,3.92-6.74,5.7-10.23.94-1.82,1.86-3.64,2.84-5.45,1.14-2.1,2.35-4.19,3.68-6.19.02-.06.06-.1.1-.16,2.27-3.41,4.88-6.55,8.09-9.07.31-.25.63-.49.96-.73.08-.06.18-.14.27-.2.45-.31.9-.63,1.37-.9.22-.16.45-.29.69-.41.33-.2.65-.37.98-.55.1-.05.19-.1.29-.15.59-.32,1.19-.61,1.8-.88.16-.07.32-.15.48-.22.24-.1.47-.22.73-.31.1-.06.2-.1.29-.12.1-.06.22-.1.31-.12.12-.04.24-.1.35-.14.27-.1.51-.2.78-.27.41-.14.82-.27,1.23-.39.45-.16.92-.27,1.39-.39.31-.08.63-.14.96-.22.43-.12.86-.2,1.29-.25.43-.08.86-.16,1.29-.22,10.82-1.57,22.46,1.84,29.9,9.78,5.66,6.06,6.78,16.28,8.11,24.14,3.96,23.69,8,47.34,11.86,71.06.39,2.35.73,4.7,1.08,7.07,0,.06,0,.12.02.18,1,7.25,1.9,14.54,3.49,21.69,2.41,10.88,6.11,26.91,18.64,30.08,3.47.88,7.17.69,10.6-.25Z"/>
    <path class="cls-9" d="m748.51,73.1c.46-.94.95-1.83,1.5-2.63-.21.35-.43.69-.63,1.05l-.87,1.58Z"/>
    <path class="cls-7" d="m754.73,65.07c-.82.69-1.6,1.43-2.32,2.22.74-.84,1.53-1.58,2.32-2.22Z"/>
    <path class="cls-20" d="m754.73,65.07c1.3-1.09,2.63-1.94,3.93-2.6-1.4.72-2.71,1.6-3.93,2.6Z"/>
    <path class="cls-21" d="m769.67,59.94c-.2-.02-.39-.02-.61-.02-.82,0-1.63.05-2.43.13,1.84-.23,3.03-.13,3.03-.13l.02.02Z"/>
    <path class="cls-5" d="m574.57,227.31c-3.1,4.78-6.27,9.35-10.7,12.87-.55.43-1.14.84-1.72,1.23-.08.08-.18.14-.27.2-.49.31-.98.63-1.47.92-2.63,1.59-5.47,2.8-8.39,3.7-3.49,1.02-7.11,1.57-10.76,1.57-5.66,0-11.09-1.25-15.93-3.55h-.02c-.96-.47-1.92-.96-2.84-1.51-.92-.55-1.82-1.12-2.7-1.72-.86-.61-1.7-1.25-2.53-1.96-.41-.35-.82-.71-1.21-1.04-2.35-2.19-4.43-4.62-6.19-7.33-2.04-3.17-3.63-6.68-4.64-10.46-.29-1.08-.55-2.16-.74-3.29l-3.47-19.56v-.02l-8.68-49.28v-.02l-6.58-37.19c-3.12-16.21-15.97-13.5-15.97-13.5v-.02l12.87-23.3,1.39-2.53c1.06-1.9,2.35-3.61,3.86-5.08.2-.22.39-.39.59-.59,4.1-4.08,9.64-6.72,15.89-7.03.04,0,.08-.02.12,0,.41-.04.78-.04,1.18-.04,6,0,11.52,2.16,15.83,5.82.53.45,1.04.92,1.53,1.43,2,2,3.64,4.33,4.84,6.96.16.33.31.67.43,1,.41,1.02.74,2.06,1.02,3.1.18.74.33,1.45.45,2.19,4.72,28.9,16.48,99.69,17.66,106.23,1.69,9.68,3.76,19.34,7.96,27.87,3.59,7.29,10.58,14.15,19.22,13.93Z"/>
    <polygon class="cls-3" points="889.23 43.06 882.49 76.94 808.44 92.29 815.84 57.12 889.23 43.06"/>
    <text class="cls-4" transform="translate(57.86 317.44)"><tspan x="0" y="0">All </tspan><tspan class="cls-16" x="73.14" y="0">y</tspan><tspan class="cls-8" x="100.3" y="0">our paymen</tspan><tspan class="cls-11" x="403.23" y="0">t</tspan><tspan x="422.49" y="0">s in one pla</tspan><tspan class="cls-2" x="709.28" y="0">c</tspan><tspan x="738.86" y="0">e</tspan></text>
  </g>
</svg>