<svg version="1.1" id="Layer_1" xmlns="http://www.w3.org/2000/svg" xmlns:xlink="http://www.w3.org/1999/xlink" x="0px" y="0px"
	 width="100%" viewBox="0 0 1024 560" enable-background="new 0 0 1024 560" xml:space="preserve">
<path fill="#000000" opacity="1.000000" stroke="none" 
	d="
M345.518890,261.284363 
	C345.196930,259.213074 344.775391,257.568726 344.769928,255.923004 
	C344.752594,250.692673 348.451202,246.389938 353.293396,245.803070 
	C358.567169,245.163895 363.249664,248.356720 364.258575,253.754181 
	C366.090149,263.553009 367.646179,273.403198 369.331787,283.229462 
	C369.714447,285.460052 370.156555,287.680481 370.604797,290.085388 
	C373.175568,289.075531 373.645538,286.981201 374.581329,285.335358 
	C380.507568,274.912201 386.397858,264.468079 392.225525,253.989487 
	C395.453339,248.185638 400.118835,245.088531 406.908234,245.793060 
	C412.344635,246.357193 416.302002,249.596497 417.335724,254.994247 
	C419.179565,264.622253 420.666931,274.318420 422.322601,283.982758 
	C422.656281,285.930420 423.075562,287.863403 423.508270,290.073151 
	C425.938965,289.555847 426.370087,287.587280 427.191528,286.140167 
	C433.521667,274.988708 439.779053,263.795959 446.066193,252.620071 
	C449.217438,247.018539 452.649078,245.061874 457.641876,245.992081 
	C461.929382,246.790863 465.350403,250.962204 466.277924,256.475372 
	C467.933075,266.313446 469.613495,276.147278 471.259430,285.986908 
	C471.480469,287.308258 471.653870,288.618774 472.697937,289.726288 
	C474.828064,289.243896 475.093567,287.151520 475.935883,285.680176 
	C481.809357,275.420837 487.574219,265.099396 493.394165,254.809357 
	C494.953125,252.052948 496.539612,249.352249 499.424713,247.646255 
	C507.553253,242.839798 517.385193,246.929535 519.143921,256.136414 
	C521.014404,265.927948 522.544434,275.784332 524.248047,285.608063 
	C524.491821,287.013489 524.214966,288.637299 526.161682,289.964325 
	C528.350708,286.035156 530.555054,282.204193 532.640381,278.309601 
	C536.963562,270.235382 541.132996,262.077484 545.550415,254.055756 
	C547.552795,250.419586 550.872620,248.385880 555.101135,249.033386 
	C559.055115,249.638855 561.497864,252.266357 562.716187,256.110657 
	C563.500183,258.584412 562.733032,260.736938 561.644653,262.813751 
	C553.141846,279.039185 544.723938,295.311340 536.000122,311.417572 
	C532.761047,317.397797 527.151855,319.942566 520.419739,319.128326 
	C513.911133,318.341125 509.746613,314.271301 508.390778,308.035797 
	C506.204712,297.982178 504.552521,287.812469 502.603638,277.308167 
	C500.606689,278.121307 500.218567,279.829834 499.496796,281.125641 
	C494.473175,290.144257 489.512909,299.198273 484.558716,308.255402 
	C480.328247,315.989532 474.708344,319.493317 467.939026,318.558594 
	C460.409302,317.518890 455.829620,312.640839 454.657898,305.141785 
	C453.571350,298.187805 452.851135,291.119598 450.206909,283.538269 
	C444.954742,293.016357 440.160522,301.715271 435.319489,310.388062 
	C431.936951,316.447876 426.760864,319.733978 419.793060,319.335571 
	C413.254028,318.961731 408.203583,314.586517 406.808258,308.026276 
	C404.909485,299.099121 403.452789,290.078186 401.776917,281.102997 
	C401.601532,280.163666 401.226471,279.261597 400.931793,278.302338 
	C398.543640,278.502716 398.382935,280.510162 397.665283,281.793427 
	C392.626953,290.802826 387.763977,299.910217 382.739838,308.927734 
	C378.197906,317.079742 371.962646,320.164551 364.318420,318.242767 
	C357.798065,316.603485 354.133331,311.410461 352.768799,302.954376 
	C350.546112,289.180054 348.012268,275.455963 345.518890,261.284363 
z"/>
<path fill="#000000" opacity="1.000000" stroke="none" 
	d="
M711.574585,288.297180 
	C707.328430,288.647888 708.015015,291.070251 708.960815,293.354034 
	C711.378723,299.191956 716.402710,301.140839 722.153992,301.667847 
	C729.131775,302.307220 735.830444,301.198669 741.770874,297.290771 
	C744.327881,295.608612 745.978394,295.870728 747.377197,298.540924 
	C747.994263,299.718750 748.752075,300.823456 749.456787,301.954620 
	C754.944275,310.763123 754.939758,310.849518 745.603821,315.113617 
	C734.229858,320.308594 722.301392,320.896820 710.419617,317.966644 
	C695.154236,314.202026 687.441833,303.566345 685.713196,286.576508 
	C681.324219,301.223358 674.039917,312.063080 660.610657,316.830566 
	C647.625122,321.440491 634.739929,321.551056 622.824402,310.927216 
	C621.228271,318.603851 619.680115,325.483490 618.383667,332.410248 
	C616.150879,344.340393 616.216309,344.414520 604.305298,344.338440 
	C601.199829,344.318604 598.002625,345.180725 594.581970,343.681274 
	C594.608948,337.032440 596.670227,330.666107 597.933289,324.211212 
	C602.753723,299.575623 607.844971,274.992950 612.656555,250.355667 
	C613.337646,246.868393 614.829834,245.495895 618.300598,245.667892 
	C621.956970,245.849121 625.633667,245.809586 629.293762,245.666229 
	C632.257874,245.550095 634.672729,245.899094 634.466064,250.247391 
	C646.809753,243.557953 659.049927,242.097778 671.046509,249.038086 
	C683.475098,256.228333 686.723816,268.137268 686.296692,281.645233 
	C687.880859,270.675781 692.301392,261.254761 701.010681,254.126816 
	C709.845520,246.896103 720.123108,244.433441 731.307556,244.669693 
	C753.522095,245.138962 767.628174,262.736969 763.329468,284.485474 
	C762.594910,288.201752 760.276672,288.279083 757.489197,288.277435 
	C742.327271,288.268433 727.165405,288.279480 711.574585,288.297180 
M662.471313,271.317780 
	C659.999573,265.831360 655.441895,263.622528 649.738770,263.253021 
	C633.549622,262.204102 627.127930,275.506012 627.660156,287.295807 
	C628.065002,296.264771 633.611145,300.765228 642.303650,300.974060 
	C657.522400,301.339722 667.183350,287.667328 662.471313,271.317780 
M721.539673,274.814514 
	C728.742798,274.814514 735.945862,274.814514 743.186951,274.814514 
	C742.497620,265.978271 737.100464,261.430634 728.278564,261.344208 
	C719.344116,261.256683 711.205811,267.310242 710.659546,274.814880 
	C713.975952,274.814880 717.268738,274.814880 721.539673,274.814514 
z"/>
<path fill="#000000" opacity="1.000000" stroke="none" 
	d="
M325.367493,308.245483 
	C316.349762,318.139099 304.678589,319.675873 292.678040,319.725555 
	C283.999115,319.761475 275.435059,318.448364 267.312744,315.078491 
	C261.925903,312.843506 261.577484,312.005219 264.257874,307.088135 
	C266.084839,303.736633 267.230957,299.226624 270.071198,297.423126 
	C273.295319,295.375793 276.858948,299.577728 280.477936,300.481995 
	C288.119904,302.391449 295.754974,303.948303 303.585754,301.717651 
	C306.041046,301.018219 308.536407,299.980347 308.579132,296.917175 
	C308.623474,293.733459 305.986450,292.889832 303.542175,292.279297 
	C297.899536,290.870026 292.177185,289.769348 286.561279,288.266541 
	C278.688477,286.159760 272.281433,282.126404 271.115417,273.281586 
	C269.899811,264.060638 273.318695,256.574524 281.135773,251.399872 
	C291.743225,244.378082 303.657440,243.903381 315.762177,245.093430 
	C321.055115,245.613770 326.242584,246.866943 331.214539,248.917175 
	C334.090057,250.102936 335.272491,251.699966 333.379669,254.597351 
	C333.199188,254.873581 333.097565,255.200119 332.945007,255.495926 
	C331.191925,258.895721 330.197968,263.212952 327.487976,265.460144 
	C324.101135,268.268646 320.691833,263.655609 317.032349,263.033203 
	C311.062592,262.017914 305.166565,261.478088 299.191101,262.345459 
	C296.092285,262.795319 293.024567,264.073517 292.571503,267.470642 
	C292.072815,271.209900 295.554108,271.917419 298.197357,272.621521 
	C303.169922,273.946045 308.270905,274.784332 313.254944,276.070984 
	C330.306793,280.473022 335.155243,293.085022 325.367493,308.245483 
z"/>
<path fill="#000000" opacity="1.000000" stroke="none" 
	d="
M570.560425,294.658875 
	C572.889709,282.527100 575.158997,270.819305 577.365173,259.437225 
	C575.553711,257.821320 573.928345,258.976074 572.548889,258.393860 
	C570.662109,250.417404 573.864441,244.942169 581.388306,243.385330 
	C588.320007,241.950974 595.216064,240.249313 602.609741,239.639069 
	C603.239380,243.451599 602.091797,246.433243 601.489075,249.441437 
	C597.176453,270.964172 592.716553,292.458191 588.566040,314.011871 
	C587.839050,317.787201 586.188354,319.099670 582.593567,318.970795 
	C578.599670,318.827637 574.596436,318.946045 570.597229,318.953827 
	C567.320374,318.960236 565.634827,317.946106 566.556885,314.126801 
	C568.077332,307.828552 569.206360,301.435791 570.560425,294.658875 
z"/>
<path fill="#000000" opacity="1.000000" stroke="none" 
	d="
M410.450928,337.498962 
	C407.285400,337.063538 408.443695,339.393188 408.138062,340.760864 
	C407.802277,342.263550 408.442993,344.208405 405.972290,344.768951 
	C403.286316,342.798981 406.044159,338.807770 403.183136,336.690308 
	C399.452789,338.344391 402.678558,342.952362 399.596710,344.853271 
	C396.391693,343.267242 398.685730,339.936829 397.267822,337.841339 
	C393.513214,340.779663 395.007294,347.972076 387.547363,349.379272 
	C390.533722,344.539398 389.734589,340.942688 386.624695,337.472168 
	C384.485626,346.964417 380.269318,348.356873 372.979248,342.170044 
	C371.095398,343.353424 369.781708,345.924530 367.175751,345.504913 
	C364.185730,345.023438 364.078491,348.037659 362.411011,349.075684 
	C360.680389,347.017548 359.887177,336.248901 361.267609,334.614349 
	C363.097229,332.447937 368.826111,333.186188 372.535370,336.066345 
	C380.571808,331.885895 387.296509,332.544128 392.000275,338.322021 
	C394.391022,332.041534 400.005676,333.962982 404.593170,333.193390 
	C405.522369,333.037537 406.627808,333.714508 407.498413,333.467041 
	C410.268433,332.679626 412.807831,333.029327 413.755859,335.835083 
	C414.753296,338.787079 415.214142,342.058533 413.216614,345.530182 
	C410.114777,343.092072 411.632202,340.042725 410.450928,337.498962 
M367.738983,336.818268 
	C364.456116,336.012756 363.928650,337.954712 364.346649,340.450439 
	C364.590424,341.905914 365.808868,342.927948 367.278046,342.264282 
	C369.737976,341.153046 370.347168,339.358368 367.738983,336.818268 
M380.242035,336.698944 
	C377.381836,336.480530 376.325012,338.052094 376.870636,340.574371 
	C377.150909,341.869781 378.465942,342.891022 379.900238,342.198914 
	C382.382599,341.001007 382.479462,339.122223 380.242035,336.698944 
z"/>
<path fill="#000000" opacity="1.000000" stroke="none" 
	d="
M574.249634,233.622360 
	C573.388306,230.109375 575.142883,228.424759 577.812195,227.766251 
	C584.598816,226.091995 591.423828,224.561554 598.266968,223.134247 
	C600.908630,222.583267 603.489746,223.068802 604.110291,226.243088 
	C604.705872,229.289810 602.892395,230.795242 600.045044,231.432251 
	C593.388489,232.921524 586.757446,234.524384 580.102966,236.023331 
	C577.833130,236.534637 575.779114,236.165070 574.249634,233.622360 
z"/>
<path fill="#000000" opacity="1.000000" stroke="none" 
	d="
M438.764587,335.594543 
	C439.266510,333.536591 440.986450,332.474121 442.385773,330.467041 
	C444.744598,334.017578 447.494690,334.675049 451.010406,333.225372 
	C452.358063,332.669739 454.113251,333.449677 454.707977,335.003906 
	C455.637207,337.432526 452.882263,336.481415 452.072388,337.494019 
	C453.836456,339.100006 456.799103,340.157867 455.295349,343.322266 
	C453.941376,346.171387 451.433777,346.029083 448.894806,345.169800 
	C447.886017,344.828369 446.995636,345.045746 446.007965,345.253387 
	C442.588684,345.972382 441.120697,344.148590 440.799225,341.000549 
	C440.651031,339.548981 440.991425,337.984589 439.419983,336.367981 
	C439.038574,335.955688 438.764587,335.594543 438.764587,335.594543 
M449.491669,340.381042 
	C448.234406,339.196198 446.977142,338.011322 445.417053,336.541107 
	C444.016602,338.475952 443.938629,340.187347 444.856750,342.223236 
	C446.829315,342.397247 448.595032,341.086578 450.625519,341.766693 
	C451.140381,341.939148 450.218445,341.045898 449.491669,340.381042 
z"/>
<path fill="#000000" opacity="1.000000" stroke="none" 
	d="
M417.474670,334.380981 
	C420.998718,332.188660 423.814758,332.876160 426.057312,335.697052 
	C428.508148,338.779999 426.323914,341.798615 424.980408,344.238129 
	C423.775024,346.426910 420.808655,345.847473 418.638580,344.936249 
	C414.796722,343.322998 414.238861,338.902100 417.474670,334.380981 
z"/>
<path fill="#000000" opacity="1.000000" stroke="none" 
	d="
M518.705627,341.241943 
	C517.907104,346.292786 514.417603,345.837921 511.411255,344.903717 
	C508.015472,343.848541 507.163940,340.761261 508.010864,337.572296 
	C508.899841,334.225037 511.577942,332.481140 514.851624,333.354431 
	C518.454773,334.315613 520.470581,336.848877 518.705627,341.241943 
z"/>
<path fill="#000000" opacity="1.000000" stroke="none" 
	d="
M297.002319,344.733521 
	C293.082184,341.085938 289.523346,341.131195 286.202728,345.515320 
	C285.124359,342.280060 288.421722,331.144470 290.334167,330.028992 
	C291.316254,329.456268 292.547943,329.439392 292.947510,330.443787 
	C294.785339,335.063538 298.097290,339.249329 297.002319,344.733521 
z"/>
<path fill="#000000" opacity="1.000000" stroke="none" 
	d="
M525.708130,342.865814 
	C525.710022,341.238098 525.859436,340.050293 525.684753,338.912201 
	C525.083435,334.993469 527.111633,333.622528 530.644043,333.218689 
	C534.464417,332.781921 536.774109,334.522125 537.780029,337.933380 
	C538.791748,341.364258 537.160034,344.191742 533.986938,345.027252 
	C531.210022,345.758423 528.964844,346.852478 527.277344,349.097656 
	C525.016541,347.354492 525.977051,345.194855 525.708130,342.865814 
M529.479492,340.857727 
	C530.525024,342.692505 531.896301,342.982239 533.528625,341.640625 
	C534.512512,340.832031 534.860413,339.749359 534.391602,338.536621 
	C533.942200,337.373871 533.065002,336.497894 531.786743,336.645081 
	C529.754700,336.879059 529.105164,338.298218 529.479492,340.857727 
z"/>
<path fill="#000000" opacity="1.000000" stroke="none" 
	d="
M577.903076,335.342041 
	C581.630798,342.298096 575.327271,340.240265 572.544373,341.707977 
	C574.311462,343.079041 576.200134,341.063690 578.320801,342.712738 
	C576.678894,345.919403 573.876038,345.794250 571.153564,344.852905 
	C568.099670,343.797028 566.817322,339.345337 568.407715,336.419586 
	C570.231812,333.063934 573.430115,332.586212 577.903076,335.342041 
z"/>
<path fill="#000000" opacity="1.000000" stroke="none" 
	d="
M547.568298,345.204163 
	C543.083008,343.202362 542.010803,340.115784 544.016296,336.185120 
	C545.558716,333.162048 550.359009,332.072632 553.714905,334.114929 
	C556.766541,335.972046 554.851013,339.229675 555.214294,341.838074 
	C555.476868,343.723175 554.597290,345.012543 552.437561,345.049469 
	C550.954895,345.074799 549.473938,345.200012 547.568298,345.204163 
M547.108521,341.312195 
	C548.508240,342.780518 549.958008,342.830444 551.225708,341.239166 
	C552.112427,340.126190 552.057922,338.788635 551.299744,337.595764 
	C550.740051,336.715210 549.795410,336.201294 548.793335,336.565094 
	C546.846802,337.271759 545.970276,338.649109 547.108521,341.312195 
z"/>
<path fill="#000000" opacity="1.000000" stroke="none" 
	d="
M495.322083,340.654724 
	C494.160889,344.808014 491.335754,345.811554 487.869965,345.236389 
	C484.874847,344.739380 483.170380,342.574768 483.082367,339.644928 
	C482.994385,336.716431 484.695770,334.633209 487.459381,333.591461 
	C491.579529,332.038361 494.797760,334.784668 495.322083,340.654724 
M488.796051,342.360474 
	C491.731354,342.046936 492.412415,340.295929 491.366791,337.858093 
	C490.781281,336.492981 489.373230,335.971375 488.068634,336.949188 
	C485.826172,338.629944 485.852448,340.443939 488.796051,342.360474 
z"/>
<path fill="#000000" opacity="1.000000" stroke="none" 
	d="
M335.984344,338.936096 
	C335.079926,342.483978 333.679230,345.476685 329.242584,345.346863 
	C325.161407,345.227417 323.623932,342.596832 323.027283,338.421112 
	C323.460236,337.115540 323.768524,336.491791 324.076843,335.868042 
	C329.404968,331.561340 332.428619,332.226654 335.846375,338.702240 
	C336.003479,338.981232 335.984344,338.936096 335.984344,338.936096 
M332.078369,338.854309 
	C331.390717,337.158783 330.369202,335.939240 328.347260,336.768646 
	C327.215851,337.232697 326.535248,338.254974 326.530975,339.493256 
	C326.525787,340.984894 327.416321,342.112610 328.819275,342.305084 
	C330.774323,342.573364 331.822021,341.343536 332.078369,338.854309 
z"/>
<path fill="#000000" opacity="1.000000" stroke="none" 
	d="
M323.933960,335.562683 
	C323.768524,336.491791 323.460236,337.115540 323.006958,338.060303 
	C321.826355,340.823303 320.901001,343.320312 319.720184,345.690033 
	C318.771423,347.594116 317.675293,349.610504 314.011841,348.509247 
	C319.445862,343.462769 312.807709,339.337402 313.202423,334.239502 
	C316.689240,333.856079 316.344452,337.421234 318.236359,338.464417 
	C320.185791,337.541809 319.753418,334.269836 322.359863,334.086395 
	C322.807281,334.054932 323.312531,334.846130 323.933960,335.562683 
z"/>
<path fill="#000000" opacity="1.000000" stroke="none" 
	d="
M439.182861,336.130493 
	C438.319885,338.998016 439.977997,342.338196 437.250244,344.800690 
	C434.866211,343.615784 435.891815,341.373810 435.552979,339.629059 
	C435.285858,338.253418 434.839752,336.842865 433.291412,336.806396 
	C431.585266,336.766235 431.441071,338.310699 431.227051,339.655212 
	C430.940460,341.455902 431.962311,343.736633 428.844788,345.095184 
	C427.465332,341.425568 426.300629,337.252655 428.901917,334.574951 
	C431.176300,332.233765 435.317871,332.161377 438.489502,335.451294 
	C438.764587,335.594543 439.038574,335.955688 439.182861,336.130493 
z"/>
<path fill="#000000" opacity="1.000000" stroke="none" 
	d="
M469.967285,341.088745 
	C469.746490,342.753693 469.869995,344.196960 467.636475,344.937531 
	C466.276459,341.340424 465.456512,337.363251 467.846161,334.443573 
	C469.314514,332.649506 473.215363,331.927094 475.515137,334.456970 
	C478.377502,337.605774 477.568451,341.232239 476.296539,345.028564 
	C472.022919,343.259705 475.572754,338.506500 472.175812,336.859222 
	C469.856964,337.231110 470.262848,339.162720 469.967285,341.088745 
z"/>
<path fill="#000000" opacity="1.000000" stroke="none" 
	d="
M336.017212,339.001495 
	C336.032440,337.244965 335.786438,335.386383 337.639496,333.994232 
	C341.045288,335.847626 337.683563,340.361847 341.192780,342.189789 
	C345.671082,341.227783 342.150055,336.124176 345.684967,333.739197 
	C348.193359,336.736725 347.427765,340.215912 346.805267,343.253571 
	C346.176788,346.320435 343.011993,345.363525 340.926910,345.443573 
	C337.077026,345.591492 336.791321,342.396179 336.127686,339.272949 
	C335.984344,338.936096 336.003479,338.981232 336.017212,339.001495 
z"/>
<path fill="#000000" opacity="1.000000" stroke="none" 
	d="
M499.423523,339.695618 
	C499.050751,341.566589 499.928284,343.453583 497.376190,344.806763 
	C496.741882,341.004059 494.764771,337.163483 497.773285,334.256073 
	C499.288879,332.791412 502.927368,332.055267 505.110870,334.488770 
	C507.954559,337.658081 507.542633,341.217682 506.077911,344.986359 
	C503.113647,343.809601 503.960693,341.704865 503.739502,340.020782 
	C503.568298,338.717407 503.768250,337.109467 502.040924,336.835876 
	C500.338989,336.566254 499.884247,338.022003 499.423523,339.695618 
z"/>
<path fill="#000000" opacity="1.000000" stroke="none" 
	d="
M559.504578,339.157288 
	C560.244385,344.668182 564.136108,341.085114 567.093567,341.959198 
	C566.170898,345.169495 563.924133,345.522308 561.437927,345.272278 
	C558.303467,344.957092 556.794678,343.008728 556.587952,339.951416 
	C556.349976,336.433105 557.944885,334.096497 561.382935,333.473969 
	C563.935303,333.011810 566.221741,333.649109 566.929382,337.018250 
	C564.340088,337.774323 560.913940,334.595825 559.504578,339.157288 
z"/>
<path fill="#000000" opacity="1.000000" stroke="none" 
	d="
M307.053162,336.103485 
	C306.602417,339.303680 308.086517,342.463593 305.406738,344.875214 
	C303.134827,341.368866 302.995453,332.649872 305.156677,329.032135 
	C307.972290,330.655487 306.684418,333.409149 307.053162,336.103485 
z"/>
<path fill="#000000" opacity="1.000000" stroke="none" 
	d="
M298.829010,336.080505 
	C299.136871,333.482391 297.930267,330.952637 300.388885,329.319336 
	C302.895386,332.660126 302.952789,340.969849 300.449249,344.806885 
	C297.649719,342.444061 299.333252,339.263947 298.829010,336.080505 
z"/>
<path fill="#000000" opacity="1.000000" stroke="none" 
	d="
M540.889893,329.539825 
	C542.807190,334.761841 542.564575,339.734619 541.081055,345.358765 
	C538.052246,341.228729 538.038086,332.892822 540.889893,329.539825 
z"/>
<path fill="#000000" opacity="1.000000" stroke="none" 
	d="
M465.194946,336.762604 
	C464.808746,339.729218 466.265533,342.743378 463.061157,345.227051 
	C460.489990,340.254608 462.299377,335.353760 462.155090,330.644287 
	C462.128540,329.776642 463.162537,329.375153 464.060364,329.588928 
	C465.002808,329.813293 465.485992,330.667145 465.250702,331.475128 
	C464.768890,333.129517 464.928741,334.730682 465.194946,336.762604 
z"/>
<path fill="#000000" opacity="1.000000" stroke="none" 
	d="
M349.109314,334.782288 
	C350.980530,333.648346 352.659302,333.209320 354.770813,334.580597 
	C352.548981,337.550781 350.605133,340.632843 350.435883,344.630615 
	C347.890015,341.639252 348.740479,338.339417 349.109314,334.782288 
z"/>
</svg>